%TF.GenerationSoftware,KiCad,Pcbnew,9.0.0*%
%TF.CreationDate,2026-01-22T12:53:31+03:00*%
%TF.ProjectId,AlexJ_bz_ArduinoGigaShield,416c6578-4a5f-4627-9a5f-41726475696e,rev?*%
%TF.SameCoordinates,Original*%
%TF.FileFunction,Legend,Top*%
%TF.FilePolarity,Positive*%
%FSLAX46Y46*%
G04 Gerber Fmt 4.6, Leading zero omitted, Abs format (unit mm)*
G04 Created by KiCad (PCBNEW 9.0.0) date 2026-01-22 12:53:31*
%MOMM*%
%LPD*%
G01*
G04 APERTURE LIST*
%ADD10C,0.100000*%
%ADD11C,0.150000*%
%ADD12C,0.500000*%
%ADD13C,0.120000*%
G04 APERTURE END LIST*
D10*
X255538646Y-68292419D02*
X256157693Y-68292419D01*
X256157693Y-68292419D02*
X255824360Y-68673371D01*
X255824360Y-68673371D02*
X255967217Y-68673371D01*
X255967217Y-68673371D02*
X256062455Y-68720990D01*
X256062455Y-68720990D02*
X256110074Y-68768609D01*
X256110074Y-68768609D02*
X256157693Y-68863847D01*
X256157693Y-68863847D02*
X256157693Y-69101942D01*
X256157693Y-69101942D02*
X256110074Y-69197180D01*
X256110074Y-69197180D02*
X256062455Y-69244800D01*
X256062455Y-69244800D02*
X255967217Y-69292419D01*
X255967217Y-69292419D02*
X255681503Y-69292419D01*
X255681503Y-69292419D02*
X255586265Y-69244800D01*
X255586265Y-69244800D02*
X255538646Y-69197180D01*
X257110074Y-69292419D02*
X256538646Y-69292419D01*
X256824360Y-69292419D02*
X256824360Y-68292419D01*
X256824360Y-68292419D02*
X256729122Y-68435276D01*
X256729122Y-68435276D02*
X256633884Y-68530514D01*
X256633884Y-68530514D02*
X256538646Y-68578133D01*
X203732419Y-34352306D02*
X203732419Y-34923734D01*
X203732419Y-34638020D02*
X202732419Y-34638020D01*
X202732419Y-34638020D02*
X202875276Y-34733258D01*
X202875276Y-34733258D02*
X202970514Y-34828496D01*
X202970514Y-34828496D02*
X203018133Y-34923734D01*
X203732419Y-33876115D02*
X203732419Y-33685639D01*
X203732419Y-33685639D02*
X203684800Y-33590401D01*
X203684800Y-33590401D02*
X203637180Y-33542782D01*
X203637180Y-33542782D02*
X203494323Y-33447544D01*
X203494323Y-33447544D02*
X203303847Y-33399925D01*
X203303847Y-33399925D02*
X202922895Y-33399925D01*
X202922895Y-33399925D02*
X202827657Y-33447544D01*
X202827657Y-33447544D02*
X202780038Y-33495163D01*
X202780038Y-33495163D02*
X202732419Y-33590401D01*
X202732419Y-33590401D02*
X202732419Y-33780877D01*
X202732419Y-33780877D02*
X202780038Y-33876115D01*
X202780038Y-33876115D02*
X202827657Y-33923734D01*
X202827657Y-33923734D02*
X202922895Y-33971353D01*
X202922895Y-33971353D02*
X203160990Y-33971353D01*
X203160990Y-33971353D02*
X203256228Y-33923734D01*
X203256228Y-33923734D02*
X203303847Y-33876115D01*
X203303847Y-33876115D02*
X203351466Y-33780877D01*
X203351466Y-33780877D02*
X203351466Y-33590401D01*
X203351466Y-33590401D02*
X203303847Y-33495163D01*
X203303847Y-33495163D02*
X203256228Y-33447544D01*
X203256228Y-33447544D02*
X203160990Y-33399925D01*
X167720990Y-34763258D02*
X167673371Y-34858496D01*
X167673371Y-34858496D02*
X167625752Y-34906115D01*
X167625752Y-34906115D02*
X167530514Y-34953734D01*
X167530514Y-34953734D02*
X167482895Y-34953734D01*
X167482895Y-34953734D02*
X167387657Y-34906115D01*
X167387657Y-34906115D02*
X167340038Y-34858496D01*
X167340038Y-34858496D02*
X167292419Y-34763258D01*
X167292419Y-34763258D02*
X167292419Y-34572782D01*
X167292419Y-34572782D02*
X167340038Y-34477544D01*
X167340038Y-34477544D02*
X167387657Y-34429925D01*
X167387657Y-34429925D02*
X167482895Y-34382306D01*
X167482895Y-34382306D02*
X167530514Y-34382306D01*
X167530514Y-34382306D02*
X167625752Y-34429925D01*
X167625752Y-34429925D02*
X167673371Y-34477544D01*
X167673371Y-34477544D02*
X167720990Y-34572782D01*
X167720990Y-34572782D02*
X167720990Y-34763258D01*
X167720990Y-34763258D02*
X167768609Y-34858496D01*
X167768609Y-34858496D02*
X167816228Y-34906115D01*
X167816228Y-34906115D02*
X167911466Y-34953734D01*
X167911466Y-34953734D02*
X168101942Y-34953734D01*
X168101942Y-34953734D02*
X168197180Y-34906115D01*
X168197180Y-34906115D02*
X168244800Y-34858496D01*
X168244800Y-34858496D02*
X168292419Y-34763258D01*
X168292419Y-34763258D02*
X168292419Y-34572782D01*
X168292419Y-34572782D02*
X168244800Y-34477544D01*
X168244800Y-34477544D02*
X168197180Y-34429925D01*
X168197180Y-34429925D02*
X168101942Y-34382306D01*
X168101942Y-34382306D02*
X167911466Y-34382306D01*
X167911466Y-34382306D02*
X167816228Y-34429925D01*
X167816228Y-34429925D02*
X167768609Y-34477544D01*
X167768609Y-34477544D02*
X167720990Y-34572782D01*
X247018646Y-75852419D02*
X247637693Y-75852419D01*
X247637693Y-75852419D02*
X247304360Y-76233371D01*
X247304360Y-76233371D02*
X247447217Y-76233371D01*
X247447217Y-76233371D02*
X247542455Y-76280990D01*
X247542455Y-76280990D02*
X247590074Y-76328609D01*
X247590074Y-76328609D02*
X247637693Y-76423847D01*
X247637693Y-76423847D02*
X247637693Y-76661942D01*
X247637693Y-76661942D02*
X247590074Y-76757180D01*
X247590074Y-76757180D02*
X247542455Y-76804800D01*
X247542455Y-76804800D02*
X247447217Y-76852419D01*
X247447217Y-76852419D02*
X247161503Y-76852419D01*
X247161503Y-76852419D02*
X247066265Y-76804800D01*
X247066265Y-76804800D02*
X247018646Y-76757180D01*
X248494836Y-75852419D02*
X248304360Y-75852419D01*
X248304360Y-75852419D02*
X248209122Y-75900038D01*
X248209122Y-75900038D02*
X248161503Y-75947657D01*
X248161503Y-75947657D02*
X248066265Y-76090514D01*
X248066265Y-76090514D02*
X248018646Y-76280990D01*
X248018646Y-76280990D02*
X248018646Y-76661942D01*
X248018646Y-76661942D02*
X248066265Y-76757180D01*
X248066265Y-76757180D02*
X248113884Y-76804800D01*
X248113884Y-76804800D02*
X248209122Y-76852419D01*
X248209122Y-76852419D02*
X248399598Y-76852419D01*
X248399598Y-76852419D02*
X248494836Y-76804800D01*
X248494836Y-76804800D02*
X248542455Y-76757180D01*
X248542455Y-76757180D02*
X248590074Y-76661942D01*
X248590074Y-76661942D02*
X248590074Y-76423847D01*
X248590074Y-76423847D02*
X248542455Y-76328609D01*
X248542455Y-76328609D02*
X248494836Y-76280990D01*
X248494836Y-76280990D02*
X248399598Y-76233371D01*
X248399598Y-76233371D02*
X248209122Y-76233371D01*
X248209122Y-76233371D02*
X248113884Y-76280990D01*
X248113884Y-76280990D02*
X248066265Y-76328609D01*
X248066265Y-76328609D02*
X248018646Y-76423847D01*
X247622455Y-88765752D02*
X247622455Y-89432419D01*
X247384360Y-88384800D02*
X247146265Y-89099085D01*
X247146265Y-89099085D02*
X247765312Y-89099085D01*
X248574836Y-88432419D02*
X248384360Y-88432419D01*
X248384360Y-88432419D02*
X248289122Y-88480038D01*
X248289122Y-88480038D02*
X248241503Y-88527657D01*
X248241503Y-88527657D02*
X248146265Y-88670514D01*
X248146265Y-88670514D02*
X248098646Y-88860990D01*
X248098646Y-88860990D02*
X248098646Y-89241942D01*
X248098646Y-89241942D02*
X248146265Y-89337180D01*
X248146265Y-89337180D02*
X248193884Y-89384800D01*
X248193884Y-89384800D02*
X248289122Y-89432419D01*
X248289122Y-89432419D02*
X248479598Y-89432419D01*
X248479598Y-89432419D02*
X248574836Y-89384800D01*
X248574836Y-89384800D02*
X248622455Y-89337180D01*
X248622455Y-89337180D02*
X248670074Y-89241942D01*
X248670074Y-89241942D02*
X248670074Y-89003847D01*
X248670074Y-89003847D02*
X248622455Y-88908609D01*
X248622455Y-88908609D02*
X248574836Y-88860990D01*
X248574836Y-88860990D02*
X248479598Y-88813371D01*
X248479598Y-88813371D02*
X248289122Y-88813371D01*
X248289122Y-88813371D02*
X248193884Y-88860990D01*
X248193884Y-88860990D02*
X248146265Y-88908609D01*
X248146265Y-88908609D02*
X248098646Y-89003847D01*
X198042419Y-119666115D02*
X197042419Y-119666115D01*
X197042419Y-119666115D02*
X197042419Y-119428020D01*
X197042419Y-119428020D02*
X197090038Y-119285163D01*
X197090038Y-119285163D02*
X197185276Y-119189925D01*
X197185276Y-119189925D02*
X197280514Y-119142306D01*
X197280514Y-119142306D02*
X197470990Y-119094687D01*
X197470990Y-119094687D02*
X197613847Y-119094687D01*
X197613847Y-119094687D02*
X197804323Y-119142306D01*
X197804323Y-119142306D02*
X197899561Y-119189925D01*
X197899561Y-119189925D02*
X197994800Y-119285163D01*
X197994800Y-119285163D02*
X198042419Y-119428020D01*
X198042419Y-119428020D02*
X198042419Y-119666115D01*
X197756704Y-118713734D02*
X197756704Y-118237544D01*
X198042419Y-118808972D02*
X197042419Y-118475639D01*
X197042419Y-118475639D02*
X198042419Y-118142306D01*
X197947180Y-117237544D02*
X197994800Y-117285163D01*
X197994800Y-117285163D02*
X198042419Y-117428020D01*
X198042419Y-117428020D02*
X198042419Y-117523258D01*
X198042419Y-117523258D02*
X197994800Y-117666115D01*
X197994800Y-117666115D02*
X197899561Y-117761353D01*
X197899561Y-117761353D02*
X197804323Y-117808972D01*
X197804323Y-117808972D02*
X197613847Y-117856591D01*
X197613847Y-117856591D02*
X197470990Y-117856591D01*
X197470990Y-117856591D02*
X197280514Y-117808972D01*
X197280514Y-117808972D02*
X197185276Y-117761353D01*
X197185276Y-117761353D02*
X197090038Y-117666115D01*
X197090038Y-117666115D02*
X197042419Y-117523258D01*
X197042419Y-117523258D02*
X197042419Y-117428020D01*
X197042419Y-117428020D02*
X197090038Y-117285163D01*
X197090038Y-117285163D02*
X197137657Y-117237544D01*
X197042419Y-116618496D02*
X197042419Y-116523258D01*
X197042419Y-116523258D02*
X197090038Y-116428020D01*
X197090038Y-116428020D02*
X197137657Y-116380401D01*
X197137657Y-116380401D02*
X197232895Y-116332782D01*
X197232895Y-116332782D02*
X197423371Y-116285163D01*
X197423371Y-116285163D02*
X197661466Y-116285163D01*
X197661466Y-116285163D02*
X197851942Y-116332782D01*
X197851942Y-116332782D02*
X197947180Y-116380401D01*
X197947180Y-116380401D02*
X197994800Y-116428020D01*
X197994800Y-116428020D02*
X198042419Y-116523258D01*
X198042419Y-116523258D02*
X198042419Y-116618496D01*
X198042419Y-116618496D02*
X197994800Y-116713734D01*
X197994800Y-116713734D02*
X197947180Y-116761353D01*
X197947180Y-116761353D02*
X197851942Y-116808972D01*
X197851942Y-116808972D02*
X197661466Y-116856591D01*
X197661466Y-116856591D02*
X197423371Y-116856591D01*
X197423371Y-116856591D02*
X197232895Y-116808972D01*
X197232895Y-116808972D02*
X197137657Y-116761353D01*
X197137657Y-116761353D02*
X197090038Y-116713734D01*
X197090038Y-116713734D02*
X197042419Y-116618496D01*
X205347657Y-35043734D02*
X205300038Y-34996115D01*
X205300038Y-34996115D02*
X205252419Y-34900877D01*
X205252419Y-34900877D02*
X205252419Y-34662782D01*
X205252419Y-34662782D02*
X205300038Y-34567544D01*
X205300038Y-34567544D02*
X205347657Y-34519925D01*
X205347657Y-34519925D02*
X205442895Y-34472306D01*
X205442895Y-34472306D02*
X205538133Y-34472306D01*
X205538133Y-34472306D02*
X205680990Y-34519925D01*
X205680990Y-34519925D02*
X206252419Y-35091353D01*
X206252419Y-35091353D02*
X206252419Y-34472306D01*
X205252419Y-33853258D02*
X205252419Y-33758020D01*
X205252419Y-33758020D02*
X205300038Y-33662782D01*
X205300038Y-33662782D02*
X205347657Y-33615163D01*
X205347657Y-33615163D02*
X205442895Y-33567544D01*
X205442895Y-33567544D02*
X205633371Y-33519925D01*
X205633371Y-33519925D02*
X205871466Y-33519925D01*
X205871466Y-33519925D02*
X206061942Y-33567544D01*
X206061942Y-33567544D02*
X206157180Y-33615163D01*
X206157180Y-33615163D02*
X206204800Y-33662782D01*
X206204800Y-33662782D02*
X206252419Y-33758020D01*
X206252419Y-33758020D02*
X206252419Y-33853258D01*
X206252419Y-33853258D02*
X206204800Y-33948496D01*
X206204800Y-33948496D02*
X206157180Y-33996115D01*
X206157180Y-33996115D02*
X206061942Y-34043734D01*
X206061942Y-34043734D02*
X205871466Y-34091353D01*
X205871466Y-34091353D02*
X205633371Y-34091353D01*
X205633371Y-34091353D02*
X205442895Y-34043734D01*
X205442895Y-34043734D02*
X205347657Y-33996115D01*
X205347657Y-33996115D02*
X205300038Y-33948496D01*
X205300038Y-33948496D02*
X205252419Y-33853258D01*
X180282419Y-34761353D02*
X180282419Y-34142306D01*
X180282419Y-34142306D02*
X180663371Y-34475639D01*
X180663371Y-34475639D02*
X180663371Y-34332782D01*
X180663371Y-34332782D02*
X180710990Y-34237544D01*
X180710990Y-34237544D02*
X180758609Y-34189925D01*
X180758609Y-34189925D02*
X180853847Y-34142306D01*
X180853847Y-34142306D02*
X181091942Y-34142306D01*
X181091942Y-34142306D02*
X181187180Y-34189925D01*
X181187180Y-34189925D02*
X181234800Y-34237544D01*
X181234800Y-34237544D02*
X181282419Y-34332782D01*
X181282419Y-34332782D02*
X181282419Y-34618496D01*
X181282419Y-34618496D02*
X181234800Y-34713734D01*
X181234800Y-34713734D02*
X181187180Y-34761353D01*
X198832419Y-34202306D02*
X198832419Y-34773734D01*
X198832419Y-34488020D02*
X197832419Y-34488020D01*
X197832419Y-34488020D02*
X197975276Y-34583258D01*
X197975276Y-34583258D02*
X198070514Y-34678496D01*
X198070514Y-34678496D02*
X198118133Y-34773734D01*
X197832419Y-33868972D02*
X197832419Y-33202306D01*
X197832419Y-33202306D02*
X198832419Y-33630877D01*
X192416704Y-118883734D02*
X192416704Y-118407544D01*
X192702419Y-118978972D02*
X191702419Y-118645639D01*
X191702419Y-118645639D02*
X192702419Y-118312306D01*
X192702419Y-117455163D02*
X192702419Y-118026591D01*
X192702419Y-117740877D02*
X191702419Y-117740877D01*
X191702419Y-117740877D02*
X191845276Y-117836115D01*
X191845276Y-117836115D02*
X191940514Y-117931353D01*
X191940514Y-117931353D02*
X191988133Y-118026591D01*
X191702419Y-116836115D02*
X191702419Y-116740877D01*
X191702419Y-116740877D02*
X191750038Y-116645639D01*
X191750038Y-116645639D02*
X191797657Y-116598020D01*
X191797657Y-116598020D02*
X191892895Y-116550401D01*
X191892895Y-116550401D02*
X192083371Y-116502782D01*
X192083371Y-116502782D02*
X192321466Y-116502782D01*
X192321466Y-116502782D02*
X192511942Y-116550401D01*
X192511942Y-116550401D02*
X192607180Y-116598020D01*
X192607180Y-116598020D02*
X192654800Y-116645639D01*
X192654800Y-116645639D02*
X192702419Y-116740877D01*
X192702419Y-116740877D02*
X192702419Y-116836115D01*
X192702419Y-116836115D02*
X192654800Y-116931353D01*
X192654800Y-116931353D02*
X192607180Y-116978972D01*
X192607180Y-116978972D02*
X192511942Y-117026591D01*
X192511942Y-117026591D02*
X192321466Y-117074210D01*
X192321466Y-117074210D02*
X192083371Y-117074210D01*
X192083371Y-117074210D02*
X191892895Y-117026591D01*
X191892895Y-117026591D02*
X191797657Y-116978972D01*
X191797657Y-116978972D02*
X191750038Y-116931353D01*
X191750038Y-116931353D02*
X191702419Y-116836115D01*
X145254800Y-35223734D02*
X145302419Y-35080877D01*
X145302419Y-35080877D02*
X145302419Y-34842782D01*
X145302419Y-34842782D02*
X145254800Y-34747544D01*
X145254800Y-34747544D02*
X145207180Y-34699925D01*
X145207180Y-34699925D02*
X145111942Y-34652306D01*
X145111942Y-34652306D02*
X145016704Y-34652306D01*
X145016704Y-34652306D02*
X144921466Y-34699925D01*
X144921466Y-34699925D02*
X144873847Y-34747544D01*
X144873847Y-34747544D02*
X144826228Y-34842782D01*
X144826228Y-34842782D02*
X144778609Y-35033258D01*
X144778609Y-35033258D02*
X144730990Y-35128496D01*
X144730990Y-35128496D02*
X144683371Y-35176115D01*
X144683371Y-35176115D02*
X144588133Y-35223734D01*
X144588133Y-35223734D02*
X144492895Y-35223734D01*
X144492895Y-35223734D02*
X144397657Y-35176115D01*
X144397657Y-35176115D02*
X144350038Y-35128496D01*
X144350038Y-35128496D02*
X144302419Y-35033258D01*
X144302419Y-35033258D02*
X144302419Y-34795163D01*
X144302419Y-34795163D02*
X144350038Y-34652306D01*
X145207180Y-33652306D02*
X145254800Y-33699925D01*
X145254800Y-33699925D02*
X145302419Y-33842782D01*
X145302419Y-33842782D02*
X145302419Y-33938020D01*
X145302419Y-33938020D02*
X145254800Y-34080877D01*
X145254800Y-34080877D02*
X145159561Y-34176115D01*
X145159561Y-34176115D02*
X145064323Y-34223734D01*
X145064323Y-34223734D02*
X144873847Y-34271353D01*
X144873847Y-34271353D02*
X144730990Y-34271353D01*
X144730990Y-34271353D02*
X144540514Y-34223734D01*
X144540514Y-34223734D02*
X144445276Y-34176115D01*
X144445276Y-34176115D02*
X144350038Y-34080877D01*
X144350038Y-34080877D02*
X144302419Y-33938020D01*
X144302419Y-33938020D02*
X144302419Y-33842782D01*
X144302419Y-33842782D02*
X144350038Y-33699925D01*
X144350038Y-33699925D02*
X144397657Y-33652306D01*
X145302419Y-32747544D02*
X145302419Y-33223734D01*
X145302419Y-33223734D02*
X144302419Y-33223734D01*
X145302419Y-31890401D02*
X145302419Y-32461829D01*
X145302419Y-32176115D02*
X144302419Y-32176115D01*
X144302419Y-32176115D02*
X144445276Y-32271353D01*
X144445276Y-32271353D02*
X144540514Y-32366591D01*
X144540514Y-32366591D02*
X144588133Y-32461829D01*
X246597693Y-98770038D02*
X246502455Y-98722419D01*
X246502455Y-98722419D02*
X246359598Y-98722419D01*
X246359598Y-98722419D02*
X246216741Y-98770038D01*
X246216741Y-98770038D02*
X246121503Y-98865276D01*
X246121503Y-98865276D02*
X246073884Y-98960514D01*
X246073884Y-98960514D02*
X246026265Y-99150990D01*
X246026265Y-99150990D02*
X246026265Y-99293847D01*
X246026265Y-99293847D02*
X246073884Y-99484323D01*
X246073884Y-99484323D02*
X246121503Y-99579561D01*
X246121503Y-99579561D02*
X246216741Y-99674800D01*
X246216741Y-99674800D02*
X246359598Y-99722419D01*
X246359598Y-99722419D02*
X246454836Y-99722419D01*
X246454836Y-99722419D02*
X246597693Y-99674800D01*
X246597693Y-99674800D02*
X246645312Y-99627180D01*
X246645312Y-99627180D02*
X246645312Y-99293847D01*
X246645312Y-99293847D02*
X246454836Y-99293847D01*
X247073884Y-99722419D02*
X247073884Y-98722419D01*
X247073884Y-98722419D02*
X247645312Y-99722419D01*
X247645312Y-99722419D02*
X247645312Y-98722419D01*
X248121503Y-99722419D02*
X248121503Y-98722419D01*
X248121503Y-98722419D02*
X248359598Y-98722419D01*
X248359598Y-98722419D02*
X248502455Y-98770038D01*
X248502455Y-98770038D02*
X248597693Y-98865276D01*
X248597693Y-98865276D02*
X248645312Y-98960514D01*
X248645312Y-98960514D02*
X248692931Y-99150990D01*
X248692931Y-99150990D02*
X248692931Y-99293847D01*
X248692931Y-99293847D02*
X248645312Y-99484323D01*
X248645312Y-99484323D02*
X248597693Y-99579561D01*
X248597693Y-99579561D02*
X248502455Y-99674800D01*
X248502455Y-99674800D02*
X248359598Y-99722419D01*
X248359598Y-99722419D02*
X248121503Y-99722419D01*
D11*
X147189819Y-119473220D02*
X146189819Y-119473220D01*
X146189819Y-119473220D02*
X147189819Y-118901792D01*
X147189819Y-118901792D02*
X146189819Y-118901792D01*
X147094580Y-117854173D02*
X147142200Y-117901792D01*
X147142200Y-117901792D02*
X147189819Y-118044649D01*
X147189819Y-118044649D02*
X147189819Y-118139887D01*
X147189819Y-118139887D02*
X147142200Y-118282744D01*
X147142200Y-118282744D02*
X147046961Y-118377982D01*
X147046961Y-118377982D02*
X146951723Y-118425601D01*
X146951723Y-118425601D02*
X146761247Y-118473220D01*
X146761247Y-118473220D02*
X146618390Y-118473220D01*
X146618390Y-118473220D02*
X146427914Y-118425601D01*
X146427914Y-118425601D02*
X146332676Y-118377982D01*
X146332676Y-118377982D02*
X146237438Y-118282744D01*
X146237438Y-118282744D02*
X146189819Y-118139887D01*
X146189819Y-118139887D02*
X146189819Y-118044649D01*
X146189819Y-118044649D02*
X146237438Y-117901792D01*
X146237438Y-117901792D02*
X146285057Y-117854173D01*
D10*
X150006704Y-35193734D02*
X150006704Y-34717544D01*
X150292419Y-35288972D02*
X149292419Y-34955639D01*
X149292419Y-34955639D02*
X150292419Y-34622306D01*
X150292419Y-33717544D02*
X149816228Y-34050877D01*
X150292419Y-34288972D02*
X149292419Y-34288972D01*
X149292419Y-34288972D02*
X149292419Y-33908020D01*
X149292419Y-33908020D02*
X149340038Y-33812782D01*
X149340038Y-33812782D02*
X149387657Y-33765163D01*
X149387657Y-33765163D02*
X149482895Y-33717544D01*
X149482895Y-33717544D02*
X149625752Y-33717544D01*
X149625752Y-33717544D02*
X149720990Y-33765163D01*
X149720990Y-33765163D02*
X149768609Y-33812782D01*
X149768609Y-33812782D02*
X149816228Y-33908020D01*
X149816228Y-33908020D02*
X149816228Y-34288972D01*
X149768609Y-33288972D02*
X149768609Y-32955639D01*
X150292419Y-32812782D02*
X150292419Y-33288972D01*
X150292419Y-33288972D02*
X149292419Y-33288972D01*
X149292419Y-33288972D02*
X149292419Y-32812782D01*
X149768609Y-32050877D02*
X149768609Y-32384210D01*
X150292419Y-32384210D02*
X149292419Y-32384210D01*
X149292419Y-32384210D02*
X149292419Y-31908020D01*
X169596704Y-118463734D02*
X169596704Y-117987544D01*
X169882419Y-118558972D02*
X168882419Y-118225639D01*
X168882419Y-118225639D02*
X169882419Y-117892306D01*
X169882419Y-117035163D02*
X169882419Y-117606591D01*
X169882419Y-117320877D02*
X168882419Y-117320877D01*
X168882419Y-117320877D02*
X169025276Y-117416115D01*
X169025276Y-117416115D02*
X169120514Y-117511353D01*
X169120514Y-117511353D02*
X169168133Y-117606591D01*
X247690074Y-96052419D02*
X247213884Y-96052419D01*
X247213884Y-96052419D02*
X247166265Y-96528609D01*
X247166265Y-96528609D02*
X247213884Y-96480990D01*
X247213884Y-96480990D02*
X247309122Y-96433371D01*
X247309122Y-96433371D02*
X247547217Y-96433371D01*
X247547217Y-96433371D02*
X247642455Y-96480990D01*
X247642455Y-96480990D02*
X247690074Y-96528609D01*
X247690074Y-96528609D02*
X247737693Y-96623847D01*
X247737693Y-96623847D02*
X247737693Y-96861942D01*
X247737693Y-96861942D02*
X247690074Y-96957180D01*
X247690074Y-96957180D02*
X247642455Y-97004800D01*
X247642455Y-97004800D02*
X247547217Y-97052419D01*
X247547217Y-97052419D02*
X247309122Y-97052419D01*
X247309122Y-97052419D02*
X247213884Y-97004800D01*
X247213884Y-97004800D02*
X247166265Y-96957180D01*
X248118646Y-96147657D02*
X248166265Y-96100038D01*
X248166265Y-96100038D02*
X248261503Y-96052419D01*
X248261503Y-96052419D02*
X248499598Y-96052419D01*
X248499598Y-96052419D02*
X248594836Y-96100038D01*
X248594836Y-96100038D02*
X248642455Y-96147657D01*
X248642455Y-96147657D02*
X248690074Y-96242895D01*
X248690074Y-96242895D02*
X248690074Y-96338133D01*
X248690074Y-96338133D02*
X248642455Y-96480990D01*
X248642455Y-96480990D02*
X248071027Y-97052419D01*
X248071027Y-97052419D02*
X248690074Y-97052419D01*
X255488646Y-70752419D02*
X256107693Y-70752419D01*
X256107693Y-70752419D02*
X255774360Y-71133371D01*
X255774360Y-71133371D02*
X255917217Y-71133371D01*
X255917217Y-71133371D02*
X256012455Y-71180990D01*
X256012455Y-71180990D02*
X256060074Y-71228609D01*
X256060074Y-71228609D02*
X256107693Y-71323847D01*
X256107693Y-71323847D02*
X256107693Y-71561942D01*
X256107693Y-71561942D02*
X256060074Y-71657180D01*
X256060074Y-71657180D02*
X256012455Y-71704800D01*
X256012455Y-71704800D02*
X255917217Y-71752419D01*
X255917217Y-71752419D02*
X255631503Y-71752419D01*
X255631503Y-71752419D02*
X255536265Y-71704800D01*
X255536265Y-71704800D02*
X255488646Y-71657180D01*
X256441027Y-70752419D02*
X257060074Y-70752419D01*
X257060074Y-70752419D02*
X256726741Y-71133371D01*
X256726741Y-71133371D02*
X256869598Y-71133371D01*
X256869598Y-71133371D02*
X256964836Y-71180990D01*
X256964836Y-71180990D02*
X257012455Y-71228609D01*
X257012455Y-71228609D02*
X257060074Y-71323847D01*
X257060074Y-71323847D02*
X257060074Y-71561942D01*
X257060074Y-71561942D02*
X257012455Y-71657180D01*
X257012455Y-71657180D02*
X256964836Y-71704800D01*
X256964836Y-71704800D02*
X256869598Y-71752419D01*
X256869598Y-71752419D02*
X256583884Y-71752419D01*
X256583884Y-71752419D02*
X256488646Y-71704800D01*
X256488646Y-71704800D02*
X256441027Y-71657180D01*
X147774800Y-35213734D02*
X147822419Y-35070877D01*
X147822419Y-35070877D02*
X147822419Y-34832782D01*
X147822419Y-34832782D02*
X147774800Y-34737544D01*
X147774800Y-34737544D02*
X147727180Y-34689925D01*
X147727180Y-34689925D02*
X147631942Y-34642306D01*
X147631942Y-34642306D02*
X147536704Y-34642306D01*
X147536704Y-34642306D02*
X147441466Y-34689925D01*
X147441466Y-34689925D02*
X147393847Y-34737544D01*
X147393847Y-34737544D02*
X147346228Y-34832782D01*
X147346228Y-34832782D02*
X147298609Y-35023258D01*
X147298609Y-35023258D02*
X147250990Y-35118496D01*
X147250990Y-35118496D02*
X147203371Y-35166115D01*
X147203371Y-35166115D02*
X147108133Y-35213734D01*
X147108133Y-35213734D02*
X147012895Y-35213734D01*
X147012895Y-35213734D02*
X146917657Y-35166115D01*
X146917657Y-35166115D02*
X146870038Y-35118496D01*
X146870038Y-35118496D02*
X146822419Y-35023258D01*
X146822419Y-35023258D02*
X146822419Y-34785163D01*
X146822419Y-34785163D02*
X146870038Y-34642306D01*
X147822419Y-34213734D02*
X146822419Y-34213734D01*
X146822419Y-34213734D02*
X146822419Y-33975639D01*
X146822419Y-33975639D02*
X146870038Y-33832782D01*
X146870038Y-33832782D02*
X146965276Y-33737544D01*
X146965276Y-33737544D02*
X147060514Y-33689925D01*
X147060514Y-33689925D02*
X147250990Y-33642306D01*
X147250990Y-33642306D02*
X147393847Y-33642306D01*
X147393847Y-33642306D02*
X147584323Y-33689925D01*
X147584323Y-33689925D02*
X147679561Y-33737544D01*
X147679561Y-33737544D02*
X147774800Y-33832782D01*
X147774800Y-33832782D02*
X147822419Y-33975639D01*
X147822419Y-33975639D02*
X147822419Y-34213734D01*
X147536704Y-33261353D02*
X147536704Y-32785163D01*
X147822419Y-33356591D02*
X146822419Y-33023258D01*
X146822419Y-33023258D02*
X147822419Y-32689925D01*
X147822419Y-31832782D02*
X147822419Y-32404210D01*
X147822419Y-32118496D02*
X146822419Y-32118496D01*
X146822419Y-32118496D02*
X146965276Y-32213734D01*
X146965276Y-32213734D02*
X147060514Y-32308972D01*
X147060514Y-32308972D02*
X147108133Y-32404210D01*
X247186265Y-60617657D02*
X247233884Y-60570038D01*
X247233884Y-60570038D02*
X247329122Y-60522419D01*
X247329122Y-60522419D02*
X247567217Y-60522419D01*
X247567217Y-60522419D02*
X247662455Y-60570038D01*
X247662455Y-60570038D02*
X247710074Y-60617657D01*
X247710074Y-60617657D02*
X247757693Y-60712895D01*
X247757693Y-60712895D02*
X247757693Y-60808133D01*
X247757693Y-60808133D02*
X247710074Y-60950990D01*
X247710074Y-60950990D02*
X247138646Y-61522419D01*
X247138646Y-61522419D02*
X247757693Y-61522419D01*
X248614836Y-60855752D02*
X248614836Y-61522419D01*
X248376741Y-60474800D02*
X248138646Y-61189085D01*
X248138646Y-61189085D02*
X248757693Y-61189085D01*
X255992455Y-91305752D02*
X255992455Y-91972419D01*
X255754360Y-90924800D02*
X255516265Y-91639085D01*
X255516265Y-91639085D02*
X256135312Y-91639085D01*
X256563884Y-91972419D02*
X256754360Y-91972419D01*
X256754360Y-91972419D02*
X256849598Y-91924800D01*
X256849598Y-91924800D02*
X256897217Y-91877180D01*
X256897217Y-91877180D02*
X256992455Y-91734323D01*
X256992455Y-91734323D02*
X257040074Y-91543847D01*
X257040074Y-91543847D02*
X257040074Y-91162895D01*
X257040074Y-91162895D02*
X256992455Y-91067657D01*
X256992455Y-91067657D02*
X256944836Y-91020038D01*
X256944836Y-91020038D02*
X256849598Y-90972419D01*
X256849598Y-90972419D02*
X256659122Y-90972419D01*
X256659122Y-90972419D02*
X256563884Y-91020038D01*
X256563884Y-91020038D02*
X256516265Y-91067657D01*
X256516265Y-91067657D02*
X256468646Y-91162895D01*
X256468646Y-91162895D02*
X256468646Y-91400990D01*
X256468646Y-91400990D02*
X256516265Y-91496228D01*
X256516265Y-91496228D02*
X256563884Y-91543847D01*
X256563884Y-91543847D02*
X256659122Y-91591466D01*
X256659122Y-91591466D02*
X256849598Y-91591466D01*
X256849598Y-91591466D02*
X256944836Y-91543847D01*
X256944836Y-91543847D02*
X256992455Y-91496228D01*
X256992455Y-91496228D02*
X257040074Y-91400990D01*
X158142419Y-35022306D02*
X158142419Y-35593734D01*
X158142419Y-35308020D02*
X157142419Y-35308020D01*
X157142419Y-35308020D02*
X157285276Y-35403258D01*
X157285276Y-35403258D02*
X157380514Y-35498496D01*
X157380514Y-35498496D02*
X157428133Y-35593734D01*
X157237657Y-34641353D02*
X157190038Y-34593734D01*
X157190038Y-34593734D02*
X157142419Y-34498496D01*
X157142419Y-34498496D02*
X157142419Y-34260401D01*
X157142419Y-34260401D02*
X157190038Y-34165163D01*
X157190038Y-34165163D02*
X157237657Y-34117544D01*
X157237657Y-34117544D02*
X157332895Y-34069925D01*
X157332895Y-34069925D02*
X157428133Y-34069925D01*
X157428133Y-34069925D02*
X157570990Y-34117544D01*
X157570990Y-34117544D02*
X158142419Y-34688972D01*
X158142419Y-34688972D02*
X158142419Y-34069925D01*
X255942455Y-88705752D02*
X255942455Y-89372419D01*
X255704360Y-88324800D02*
X255466265Y-89039085D01*
X255466265Y-89039085D02*
X256085312Y-89039085D01*
X256371027Y-88372419D02*
X257037693Y-88372419D01*
X257037693Y-88372419D02*
X256609122Y-89372419D01*
X163362419Y-34902306D02*
X163362419Y-35473734D01*
X163362419Y-35188020D02*
X162362419Y-35188020D01*
X162362419Y-35188020D02*
X162505276Y-35283258D01*
X162505276Y-35283258D02*
X162600514Y-35378496D01*
X162600514Y-35378496D02*
X162648133Y-35473734D01*
X162362419Y-34283258D02*
X162362419Y-34188020D01*
X162362419Y-34188020D02*
X162410038Y-34092782D01*
X162410038Y-34092782D02*
X162457657Y-34045163D01*
X162457657Y-34045163D02*
X162552895Y-33997544D01*
X162552895Y-33997544D02*
X162743371Y-33949925D01*
X162743371Y-33949925D02*
X162981466Y-33949925D01*
X162981466Y-33949925D02*
X163171942Y-33997544D01*
X163171942Y-33997544D02*
X163267180Y-34045163D01*
X163267180Y-34045163D02*
X163314800Y-34092782D01*
X163314800Y-34092782D02*
X163362419Y-34188020D01*
X163362419Y-34188020D02*
X163362419Y-34283258D01*
X163362419Y-34283258D02*
X163314800Y-34378496D01*
X163314800Y-34378496D02*
X163267180Y-34426115D01*
X163267180Y-34426115D02*
X163171942Y-34473734D01*
X163171942Y-34473734D02*
X162981466Y-34521353D01*
X162981466Y-34521353D02*
X162743371Y-34521353D01*
X162743371Y-34521353D02*
X162552895Y-34473734D01*
X162552895Y-34473734D02*
X162457657Y-34426115D01*
X162457657Y-34426115D02*
X162410038Y-34378496D01*
X162410038Y-34378496D02*
X162362419Y-34283258D01*
X247266265Y-65717657D02*
X247313884Y-65670038D01*
X247313884Y-65670038D02*
X247409122Y-65622419D01*
X247409122Y-65622419D02*
X247647217Y-65622419D01*
X247647217Y-65622419D02*
X247742455Y-65670038D01*
X247742455Y-65670038D02*
X247790074Y-65717657D01*
X247790074Y-65717657D02*
X247837693Y-65812895D01*
X247837693Y-65812895D02*
X247837693Y-65908133D01*
X247837693Y-65908133D02*
X247790074Y-66050990D01*
X247790074Y-66050990D02*
X247218646Y-66622419D01*
X247218646Y-66622419D02*
X247837693Y-66622419D01*
X248409122Y-66050990D02*
X248313884Y-66003371D01*
X248313884Y-66003371D02*
X248266265Y-65955752D01*
X248266265Y-65955752D02*
X248218646Y-65860514D01*
X248218646Y-65860514D02*
X248218646Y-65812895D01*
X248218646Y-65812895D02*
X248266265Y-65717657D01*
X248266265Y-65717657D02*
X248313884Y-65670038D01*
X248313884Y-65670038D02*
X248409122Y-65622419D01*
X248409122Y-65622419D02*
X248599598Y-65622419D01*
X248599598Y-65622419D02*
X248694836Y-65670038D01*
X248694836Y-65670038D02*
X248742455Y-65717657D01*
X248742455Y-65717657D02*
X248790074Y-65812895D01*
X248790074Y-65812895D02*
X248790074Y-65860514D01*
X248790074Y-65860514D02*
X248742455Y-65955752D01*
X248742455Y-65955752D02*
X248694836Y-66003371D01*
X248694836Y-66003371D02*
X248599598Y-66050990D01*
X248599598Y-66050990D02*
X248409122Y-66050990D01*
X248409122Y-66050990D02*
X248313884Y-66098609D01*
X248313884Y-66098609D02*
X248266265Y-66146228D01*
X248266265Y-66146228D02*
X248218646Y-66241466D01*
X248218646Y-66241466D02*
X248218646Y-66431942D01*
X248218646Y-66431942D02*
X248266265Y-66527180D01*
X248266265Y-66527180D02*
X248313884Y-66574800D01*
X248313884Y-66574800D02*
X248409122Y-66622419D01*
X248409122Y-66622419D02*
X248599598Y-66622419D01*
X248599598Y-66622419D02*
X248694836Y-66574800D01*
X248694836Y-66574800D02*
X248742455Y-66527180D01*
X248742455Y-66527180D02*
X248790074Y-66431942D01*
X248790074Y-66431942D02*
X248790074Y-66241466D01*
X248790074Y-66241466D02*
X248742455Y-66146228D01*
X248742455Y-66146228D02*
X248694836Y-66098609D01*
X248694836Y-66098609D02*
X248599598Y-66050990D01*
X200392419Y-119576115D02*
X199392419Y-119576115D01*
X199392419Y-119576115D02*
X199392419Y-119338020D01*
X199392419Y-119338020D02*
X199440038Y-119195163D01*
X199440038Y-119195163D02*
X199535276Y-119099925D01*
X199535276Y-119099925D02*
X199630514Y-119052306D01*
X199630514Y-119052306D02*
X199820990Y-119004687D01*
X199820990Y-119004687D02*
X199963847Y-119004687D01*
X199963847Y-119004687D02*
X200154323Y-119052306D01*
X200154323Y-119052306D02*
X200249561Y-119099925D01*
X200249561Y-119099925D02*
X200344800Y-119195163D01*
X200344800Y-119195163D02*
X200392419Y-119338020D01*
X200392419Y-119338020D02*
X200392419Y-119576115D01*
X200106704Y-118623734D02*
X200106704Y-118147544D01*
X200392419Y-118718972D02*
X199392419Y-118385639D01*
X199392419Y-118385639D02*
X200392419Y-118052306D01*
X200297180Y-117147544D02*
X200344800Y-117195163D01*
X200344800Y-117195163D02*
X200392419Y-117338020D01*
X200392419Y-117338020D02*
X200392419Y-117433258D01*
X200392419Y-117433258D02*
X200344800Y-117576115D01*
X200344800Y-117576115D02*
X200249561Y-117671353D01*
X200249561Y-117671353D02*
X200154323Y-117718972D01*
X200154323Y-117718972D02*
X199963847Y-117766591D01*
X199963847Y-117766591D02*
X199820990Y-117766591D01*
X199820990Y-117766591D02*
X199630514Y-117718972D01*
X199630514Y-117718972D02*
X199535276Y-117671353D01*
X199535276Y-117671353D02*
X199440038Y-117576115D01*
X199440038Y-117576115D02*
X199392419Y-117433258D01*
X199392419Y-117433258D02*
X199392419Y-117338020D01*
X199392419Y-117338020D02*
X199440038Y-117195163D01*
X199440038Y-117195163D02*
X199487657Y-117147544D01*
X200392419Y-116195163D02*
X200392419Y-116766591D01*
X200392419Y-116480877D02*
X199392419Y-116480877D01*
X199392419Y-116480877D02*
X199535276Y-116576115D01*
X199535276Y-116576115D02*
X199630514Y-116671353D01*
X199630514Y-116671353D02*
X199678133Y-116766591D01*
X201322419Y-34272306D02*
X201322419Y-34843734D01*
X201322419Y-34558020D02*
X200322419Y-34558020D01*
X200322419Y-34558020D02*
X200465276Y-34653258D01*
X200465276Y-34653258D02*
X200560514Y-34748496D01*
X200560514Y-34748496D02*
X200608133Y-34843734D01*
X200750990Y-33700877D02*
X200703371Y-33796115D01*
X200703371Y-33796115D02*
X200655752Y-33843734D01*
X200655752Y-33843734D02*
X200560514Y-33891353D01*
X200560514Y-33891353D02*
X200512895Y-33891353D01*
X200512895Y-33891353D02*
X200417657Y-33843734D01*
X200417657Y-33843734D02*
X200370038Y-33796115D01*
X200370038Y-33796115D02*
X200322419Y-33700877D01*
X200322419Y-33700877D02*
X200322419Y-33510401D01*
X200322419Y-33510401D02*
X200370038Y-33415163D01*
X200370038Y-33415163D02*
X200417657Y-33367544D01*
X200417657Y-33367544D02*
X200512895Y-33319925D01*
X200512895Y-33319925D02*
X200560514Y-33319925D01*
X200560514Y-33319925D02*
X200655752Y-33367544D01*
X200655752Y-33367544D02*
X200703371Y-33415163D01*
X200703371Y-33415163D02*
X200750990Y-33510401D01*
X200750990Y-33510401D02*
X200750990Y-33700877D01*
X200750990Y-33700877D02*
X200798609Y-33796115D01*
X200798609Y-33796115D02*
X200846228Y-33843734D01*
X200846228Y-33843734D02*
X200941466Y-33891353D01*
X200941466Y-33891353D02*
X201131942Y-33891353D01*
X201131942Y-33891353D02*
X201227180Y-33843734D01*
X201227180Y-33843734D02*
X201274800Y-33796115D01*
X201274800Y-33796115D02*
X201322419Y-33700877D01*
X201322419Y-33700877D02*
X201322419Y-33510401D01*
X201322419Y-33510401D02*
X201274800Y-33415163D01*
X201274800Y-33415163D02*
X201227180Y-33367544D01*
X201227180Y-33367544D02*
X201131942Y-33319925D01*
X201131942Y-33319925D02*
X200941466Y-33319925D01*
X200941466Y-33319925D02*
X200846228Y-33367544D01*
X200846228Y-33367544D02*
X200798609Y-33415163D01*
X200798609Y-33415163D02*
X200750990Y-33510401D01*
X247158646Y-78242419D02*
X247777693Y-78242419D01*
X247777693Y-78242419D02*
X247444360Y-78623371D01*
X247444360Y-78623371D02*
X247587217Y-78623371D01*
X247587217Y-78623371D02*
X247682455Y-78670990D01*
X247682455Y-78670990D02*
X247730074Y-78718609D01*
X247730074Y-78718609D02*
X247777693Y-78813847D01*
X247777693Y-78813847D02*
X247777693Y-79051942D01*
X247777693Y-79051942D02*
X247730074Y-79147180D01*
X247730074Y-79147180D02*
X247682455Y-79194800D01*
X247682455Y-79194800D02*
X247587217Y-79242419D01*
X247587217Y-79242419D02*
X247301503Y-79242419D01*
X247301503Y-79242419D02*
X247206265Y-79194800D01*
X247206265Y-79194800D02*
X247158646Y-79147180D01*
X248349122Y-78670990D02*
X248253884Y-78623371D01*
X248253884Y-78623371D02*
X248206265Y-78575752D01*
X248206265Y-78575752D02*
X248158646Y-78480514D01*
X248158646Y-78480514D02*
X248158646Y-78432895D01*
X248158646Y-78432895D02*
X248206265Y-78337657D01*
X248206265Y-78337657D02*
X248253884Y-78290038D01*
X248253884Y-78290038D02*
X248349122Y-78242419D01*
X248349122Y-78242419D02*
X248539598Y-78242419D01*
X248539598Y-78242419D02*
X248634836Y-78290038D01*
X248634836Y-78290038D02*
X248682455Y-78337657D01*
X248682455Y-78337657D02*
X248730074Y-78432895D01*
X248730074Y-78432895D02*
X248730074Y-78480514D01*
X248730074Y-78480514D02*
X248682455Y-78575752D01*
X248682455Y-78575752D02*
X248634836Y-78623371D01*
X248634836Y-78623371D02*
X248539598Y-78670990D01*
X248539598Y-78670990D02*
X248349122Y-78670990D01*
X248349122Y-78670990D02*
X248253884Y-78718609D01*
X248253884Y-78718609D02*
X248206265Y-78766228D01*
X248206265Y-78766228D02*
X248158646Y-78861466D01*
X248158646Y-78861466D02*
X248158646Y-79051942D01*
X248158646Y-79051942D02*
X248206265Y-79147180D01*
X248206265Y-79147180D02*
X248253884Y-79194800D01*
X248253884Y-79194800D02*
X248349122Y-79242419D01*
X248349122Y-79242419D02*
X248539598Y-79242419D01*
X248539598Y-79242419D02*
X248634836Y-79194800D01*
X248634836Y-79194800D02*
X248682455Y-79147180D01*
X248682455Y-79147180D02*
X248730074Y-79051942D01*
X248730074Y-79051942D02*
X248730074Y-78861466D01*
X248730074Y-78861466D02*
X248682455Y-78766228D01*
X248682455Y-78766228D02*
X248634836Y-78718609D01*
X248634836Y-78718609D02*
X248539598Y-78670990D01*
X191092419Y-34082306D02*
X191092419Y-34653734D01*
X191092419Y-34368020D02*
X190092419Y-34368020D01*
X190092419Y-34368020D02*
X190235276Y-34463258D01*
X190235276Y-34463258D02*
X190330514Y-34558496D01*
X190330514Y-34558496D02*
X190378133Y-34653734D01*
X190425752Y-33225163D02*
X191092419Y-33225163D01*
X190044800Y-33463258D02*
X190759085Y-33701353D01*
X190759085Y-33701353D02*
X190759085Y-33082306D01*
X158750038Y-118472306D02*
X158702419Y-118567544D01*
X158702419Y-118567544D02*
X158702419Y-118710401D01*
X158702419Y-118710401D02*
X158750038Y-118853258D01*
X158750038Y-118853258D02*
X158845276Y-118948496D01*
X158845276Y-118948496D02*
X158940514Y-118996115D01*
X158940514Y-118996115D02*
X159130990Y-119043734D01*
X159130990Y-119043734D02*
X159273847Y-119043734D01*
X159273847Y-119043734D02*
X159464323Y-118996115D01*
X159464323Y-118996115D02*
X159559561Y-118948496D01*
X159559561Y-118948496D02*
X159654800Y-118853258D01*
X159654800Y-118853258D02*
X159702419Y-118710401D01*
X159702419Y-118710401D02*
X159702419Y-118615163D01*
X159702419Y-118615163D02*
X159654800Y-118472306D01*
X159654800Y-118472306D02*
X159607180Y-118424687D01*
X159607180Y-118424687D02*
X159273847Y-118424687D01*
X159273847Y-118424687D02*
X159273847Y-118615163D01*
X159702419Y-117996115D02*
X158702419Y-117996115D01*
X158702419Y-117996115D02*
X159702419Y-117424687D01*
X159702419Y-117424687D02*
X158702419Y-117424687D01*
X159702419Y-116948496D02*
X158702419Y-116948496D01*
X158702419Y-116948496D02*
X158702419Y-116710401D01*
X158702419Y-116710401D02*
X158750038Y-116567544D01*
X158750038Y-116567544D02*
X158845276Y-116472306D01*
X158845276Y-116472306D02*
X158940514Y-116424687D01*
X158940514Y-116424687D02*
X159130990Y-116377068D01*
X159130990Y-116377068D02*
X159273847Y-116377068D01*
X159273847Y-116377068D02*
X159464323Y-116424687D01*
X159464323Y-116424687D02*
X159559561Y-116472306D01*
X159559561Y-116472306D02*
X159654800Y-116567544D01*
X159654800Y-116567544D02*
X159702419Y-116710401D01*
X159702419Y-116710401D02*
X159702419Y-116948496D01*
X188304360Y-33652419D02*
X188399598Y-33652419D01*
X188399598Y-33652419D02*
X188494836Y-33700038D01*
X188494836Y-33700038D02*
X188542455Y-33747657D01*
X188542455Y-33747657D02*
X188590074Y-33842895D01*
X188590074Y-33842895D02*
X188637693Y-34033371D01*
X188637693Y-34033371D02*
X188637693Y-34271466D01*
X188637693Y-34271466D02*
X188590074Y-34461942D01*
X188590074Y-34461942D02*
X188542455Y-34557180D01*
X188542455Y-34557180D02*
X188494836Y-34604800D01*
X188494836Y-34604800D02*
X188399598Y-34652419D01*
X188399598Y-34652419D02*
X188304360Y-34652419D01*
X188304360Y-34652419D02*
X188209122Y-34604800D01*
X188209122Y-34604800D02*
X188161503Y-34557180D01*
X188161503Y-34557180D02*
X188113884Y-34461942D01*
X188113884Y-34461942D02*
X188066265Y-34271466D01*
X188066265Y-34271466D02*
X188066265Y-34033371D01*
X188066265Y-34033371D02*
X188113884Y-33842895D01*
X188113884Y-33842895D02*
X188161503Y-33747657D01*
X188161503Y-33747657D02*
X188209122Y-33700038D01*
X188209122Y-33700038D02*
X188304360Y-33652419D01*
X155412419Y-35082306D02*
X155412419Y-35653734D01*
X155412419Y-35368020D02*
X154412419Y-35368020D01*
X154412419Y-35368020D02*
X154555276Y-35463258D01*
X154555276Y-35463258D02*
X154650514Y-35558496D01*
X154650514Y-35558496D02*
X154698133Y-35653734D01*
X154412419Y-34748972D02*
X154412419Y-34129925D01*
X154412419Y-34129925D02*
X154793371Y-34463258D01*
X154793371Y-34463258D02*
X154793371Y-34320401D01*
X154793371Y-34320401D02*
X154840990Y-34225163D01*
X154840990Y-34225163D02*
X154888609Y-34177544D01*
X154888609Y-34177544D02*
X154983847Y-34129925D01*
X154983847Y-34129925D02*
X155221942Y-34129925D01*
X155221942Y-34129925D02*
X155317180Y-34177544D01*
X155317180Y-34177544D02*
X155364800Y-34225163D01*
X155364800Y-34225163D02*
X155412419Y-34320401D01*
X155412419Y-34320401D02*
X155412419Y-34606115D01*
X155412419Y-34606115D02*
X155364800Y-34701353D01*
X155364800Y-34701353D02*
X155317180Y-34748972D01*
X179566704Y-118723734D02*
X179566704Y-118247544D01*
X179852419Y-118818972D02*
X178852419Y-118485639D01*
X178852419Y-118485639D02*
X179852419Y-118152306D01*
X178852419Y-117342782D02*
X178852419Y-117818972D01*
X178852419Y-117818972D02*
X179328609Y-117866591D01*
X179328609Y-117866591D02*
X179280990Y-117818972D01*
X179280990Y-117818972D02*
X179233371Y-117723734D01*
X179233371Y-117723734D02*
X179233371Y-117485639D01*
X179233371Y-117485639D02*
X179280990Y-117390401D01*
X179280990Y-117390401D02*
X179328609Y-117342782D01*
X179328609Y-117342782D02*
X179423847Y-117295163D01*
X179423847Y-117295163D02*
X179661942Y-117295163D01*
X179661942Y-117295163D02*
X179757180Y-117342782D01*
X179757180Y-117342782D02*
X179804800Y-117390401D01*
X179804800Y-117390401D02*
X179852419Y-117485639D01*
X179852419Y-117485639D02*
X179852419Y-117723734D01*
X179852419Y-117723734D02*
X179804800Y-117818972D01*
X179804800Y-117818972D02*
X179757180Y-117866591D01*
X149612419Y-119996115D02*
X148612419Y-119996115D01*
X148612419Y-119329449D02*
X148612419Y-119138973D01*
X148612419Y-119138973D02*
X148660038Y-119043735D01*
X148660038Y-119043735D02*
X148755276Y-118948497D01*
X148755276Y-118948497D02*
X148945752Y-118900878D01*
X148945752Y-118900878D02*
X149279085Y-118900878D01*
X149279085Y-118900878D02*
X149469561Y-118948497D01*
X149469561Y-118948497D02*
X149564800Y-119043735D01*
X149564800Y-119043735D02*
X149612419Y-119138973D01*
X149612419Y-119138973D02*
X149612419Y-119329449D01*
X149612419Y-119329449D02*
X149564800Y-119424687D01*
X149564800Y-119424687D02*
X149469561Y-119519925D01*
X149469561Y-119519925D02*
X149279085Y-119567544D01*
X149279085Y-119567544D02*
X148945752Y-119567544D01*
X148945752Y-119567544D02*
X148755276Y-119519925D01*
X148755276Y-119519925D02*
X148660038Y-119424687D01*
X148660038Y-119424687D02*
X148612419Y-119329449D01*
X149612419Y-117900878D02*
X149136228Y-118234211D01*
X149612419Y-118472306D02*
X148612419Y-118472306D01*
X148612419Y-118472306D02*
X148612419Y-118091354D01*
X148612419Y-118091354D02*
X148660038Y-117996116D01*
X148660038Y-117996116D02*
X148707657Y-117948497D01*
X148707657Y-117948497D02*
X148802895Y-117900878D01*
X148802895Y-117900878D02*
X148945752Y-117900878D01*
X148945752Y-117900878D02*
X149040990Y-117948497D01*
X149040990Y-117948497D02*
X149088609Y-117996116D01*
X149088609Y-117996116D02*
X149136228Y-118091354D01*
X149136228Y-118091354D02*
X149136228Y-118472306D01*
X149088609Y-117472306D02*
X149088609Y-117138973D01*
X149612419Y-116996116D02*
X149612419Y-117472306D01*
X149612419Y-117472306D02*
X148612419Y-117472306D01*
X148612419Y-117472306D02*
X148612419Y-116996116D01*
X149088609Y-116234211D02*
X149088609Y-116567544D01*
X149612419Y-116567544D02*
X148612419Y-116567544D01*
X148612419Y-116567544D02*
X148612419Y-116091354D01*
X255566265Y-63207657D02*
X255613884Y-63160038D01*
X255613884Y-63160038D02*
X255709122Y-63112419D01*
X255709122Y-63112419D02*
X255947217Y-63112419D01*
X255947217Y-63112419D02*
X256042455Y-63160038D01*
X256042455Y-63160038D02*
X256090074Y-63207657D01*
X256090074Y-63207657D02*
X256137693Y-63302895D01*
X256137693Y-63302895D02*
X256137693Y-63398133D01*
X256137693Y-63398133D02*
X256090074Y-63540990D01*
X256090074Y-63540990D02*
X255518646Y-64112419D01*
X255518646Y-64112419D02*
X256137693Y-64112419D01*
X256471027Y-63112419D02*
X257137693Y-63112419D01*
X257137693Y-63112419D02*
X256709122Y-64112419D01*
X256090074Y-93462419D02*
X255613884Y-93462419D01*
X255613884Y-93462419D02*
X255566265Y-93938609D01*
X255566265Y-93938609D02*
X255613884Y-93890990D01*
X255613884Y-93890990D02*
X255709122Y-93843371D01*
X255709122Y-93843371D02*
X255947217Y-93843371D01*
X255947217Y-93843371D02*
X256042455Y-93890990D01*
X256042455Y-93890990D02*
X256090074Y-93938609D01*
X256090074Y-93938609D02*
X256137693Y-94033847D01*
X256137693Y-94033847D02*
X256137693Y-94271942D01*
X256137693Y-94271942D02*
X256090074Y-94367180D01*
X256090074Y-94367180D02*
X256042455Y-94414800D01*
X256042455Y-94414800D02*
X255947217Y-94462419D01*
X255947217Y-94462419D02*
X255709122Y-94462419D01*
X255709122Y-94462419D02*
X255613884Y-94414800D01*
X255613884Y-94414800D02*
X255566265Y-94367180D01*
X257090074Y-94462419D02*
X256518646Y-94462419D01*
X256804360Y-94462419D02*
X256804360Y-93462419D01*
X256804360Y-93462419D02*
X256709122Y-93605276D01*
X256709122Y-93605276D02*
X256613884Y-93700514D01*
X256613884Y-93700514D02*
X256518646Y-93748133D01*
X256032455Y-86365752D02*
X256032455Y-87032419D01*
X255794360Y-85984800D02*
X255556265Y-86699085D01*
X255556265Y-86699085D02*
X256175312Y-86699085D01*
X257032455Y-86032419D02*
X256556265Y-86032419D01*
X256556265Y-86032419D02*
X256508646Y-86508609D01*
X256508646Y-86508609D02*
X256556265Y-86460990D01*
X256556265Y-86460990D02*
X256651503Y-86413371D01*
X256651503Y-86413371D02*
X256889598Y-86413371D01*
X256889598Y-86413371D02*
X256984836Y-86460990D01*
X256984836Y-86460990D02*
X257032455Y-86508609D01*
X257032455Y-86508609D02*
X257080074Y-86603847D01*
X257080074Y-86603847D02*
X257080074Y-86841942D01*
X257080074Y-86841942D02*
X257032455Y-86937180D01*
X257032455Y-86937180D02*
X256984836Y-86984800D01*
X256984836Y-86984800D02*
X256889598Y-87032419D01*
X256889598Y-87032419D02*
X256651503Y-87032419D01*
X256651503Y-87032419D02*
X256556265Y-86984800D01*
X256556265Y-86984800D02*
X256508646Y-86937180D01*
X202850704Y-119346591D02*
X202888800Y-119384687D01*
X202888800Y-119384687D02*
X202926895Y-119498972D01*
X202926895Y-119498972D02*
X202926895Y-119575163D01*
X202926895Y-119575163D02*
X202888800Y-119689449D01*
X202888800Y-119689449D02*
X202812609Y-119765639D01*
X202812609Y-119765639D02*
X202736419Y-119803734D01*
X202736419Y-119803734D02*
X202584038Y-119841830D01*
X202584038Y-119841830D02*
X202469752Y-119841830D01*
X202469752Y-119841830D02*
X202317371Y-119803734D01*
X202317371Y-119803734D02*
X202241180Y-119765639D01*
X202241180Y-119765639D02*
X202164990Y-119689449D01*
X202164990Y-119689449D02*
X202126895Y-119575163D01*
X202126895Y-119575163D02*
X202126895Y-119498972D01*
X202126895Y-119498972D02*
X202164990Y-119384687D01*
X202164990Y-119384687D02*
X202203085Y-119346591D01*
X202698323Y-119041830D02*
X202698323Y-118660877D01*
X202926895Y-119118020D02*
X202126895Y-118851353D01*
X202126895Y-118851353D02*
X202926895Y-118584687D01*
X202926895Y-118318020D02*
X202126895Y-118318020D01*
X202126895Y-118318020D02*
X202926895Y-117860877D01*
X202926895Y-117860877D02*
X202126895Y-117860877D01*
X202926895Y-117022782D02*
X202545942Y-117289449D01*
X202926895Y-117479925D02*
X202126895Y-117479925D01*
X202126895Y-117479925D02*
X202126895Y-117175163D01*
X202126895Y-117175163D02*
X202164990Y-117098973D01*
X202164990Y-117098973D02*
X202203085Y-117060878D01*
X202203085Y-117060878D02*
X202279276Y-117022782D01*
X202279276Y-117022782D02*
X202393561Y-117022782D01*
X202393561Y-117022782D02*
X202469752Y-117060878D01*
X202469752Y-117060878D02*
X202507847Y-117098973D01*
X202507847Y-117098973D02*
X202545942Y-117175163D01*
X202545942Y-117175163D02*
X202545942Y-117479925D01*
X202126895Y-116756116D02*
X202926895Y-116222782D01*
X202126895Y-116222782D02*
X202926895Y-116756116D01*
X182607657Y-34663734D02*
X182560038Y-34616115D01*
X182560038Y-34616115D02*
X182512419Y-34520877D01*
X182512419Y-34520877D02*
X182512419Y-34282782D01*
X182512419Y-34282782D02*
X182560038Y-34187544D01*
X182560038Y-34187544D02*
X182607657Y-34139925D01*
X182607657Y-34139925D02*
X182702895Y-34092306D01*
X182702895Y-34092306D02*
X182798133Y-34092306D01*
X182798133Y-34092306D02*
X182940990Y-34139925D01*
X182940990Y-34139925D02*
X183512419Y-34711353D01*
X183512419Y-34711353D02*
X183512419Y-34092306D01*
X196072419Y-34202306D02*
X196072419Y-34773734D01*
X196072419Y-34488020D02*
X195072419Y-34488020D01*
X195072419Y-34488020D02*
X195215276Y-34583258D01*
X195215276Y-34583258D02*
X195310514Y-34678496D01*
X195310514Y-34678496D02*
X195358133Y-34773734D01*
X195072419Y-33345163D02*
X195072419Y-33535639D01*
X195072419Y-33535639D02*
X195120038Y-33630877D01*
X195120038Y-33630877D02*
X195167657Y-33678496D01*
X195167657Y-33678496D02*
X195310514Y-33773734D01*
X195310514Y-33773734D02*
X195500990Y-33821353D01*
X195500990Y-33821353D02*
X195881942Y-33821353D01*
X195881942Y-33821353D02*
X195977180Y-33773734D01*
X195977180Y-33773734D02*
X196024800Y-33726115D01*
X196024800Y-33726115D02*
X196072419Y-33630877D01*
X196072419Y-33630877D02*
X196072419Y-33440401D01*
X196072419Y-33440401D02*
X196024800Y-33345163D01*
X196024800Y-33345163D02*
X195977180Y-33297544D01*
X195977180Y-33297544D02*
X195881942Y-33249925D01*
X195881942Y-33249925D02*
X195643847Y-33249925D01*
X195643847Y-33249925D02*
X195548609Y-33297544D01*
X195548609Y-33297544D02*
X195500990Y-33345163D01*
X195500990Y-33345163D02*
X195453371Y-33440401D01*
X195453371Y-33440401D02*
X195453371Y-33630877D01*
X195453371Y-33630877D02*
X195500990Y-33726115D01*
X195500990Y-33726115D02*
X195548609Y-33773734D01*
X195548609Y-33773734D02*
X195643847Y-33821353D01*
X256032455Y-83995752D02*
X256032455Y-84662419D01*
X255794360Y-83614800D02*
X255556265Y-84329085D01*
X255556265Y-84329085D02*
X256175312Y-84329085D01*
X256461027Y-83662419D02*
X257080074Y-83662419D01*
X257080074Y-83662419D02*
X256746741Y-84043371D01*
X256746741Y-84043371D02*
X256889598Y-84043371D01*
X256889598Y-84043371D02*
X256984836Y-84090990D01*
X256984836Y-84090990D02*
X257032455Y-84138609D01*
X257032455Y-84138609D02*
X257080074Y-84233847D01*
X257080074Y-84233847D02*
X257080074Y-84471942D01*
X257080074Y-84471942D02*
X257032455Y-84567180D01*
X257032455Y-84567180D02*
X256984836Y-84614800D01*
X256984836Y-84614800D02*
X256889598Y-84662419D01*
X256889598Y-84662419D02*
X256603884Y-84662419D01*
X256603884Y-84662419D02*
X256508646Y-84614800D01*
X256508646Y-84614800D02*
X256461027Y-84567180D01*
X255942455Y-81095752D02*
X255942455Y-81762419D01*
X255704360Y-80714800D02*
X255466265Y-81429085D01*
X255466265Y-81429085D02*
X256085312Y-81429085D01*
X256990074Y-81762419D02*
X256418646Y-81762419D01*
X256704360Y-81762419D02*
X256704360Y-80762419D01*
X256704360Y-80762419D02*
X256609122Y-80905276D01*
X256609122Y-80905276D02*
X256513884Y-81000514D01*
X256513884Y-81000514D02*
X256418646Y-81048133D01*
X255666265Y-60637657D02*
X255713884Y-60590038D01*
X255713884Y-60590038D02*
X255809122Y-60542419D01*
X255809122Y-60542419D02*
X256047217Y-60542419D01*
X256047217Y-60542419D02*
X256142455Y-60590038D01*
X256142455Y-60590038D02*
X256190074Y-60637657D01*
X256190074Y-60637657D02*
X256237693Y-60732895D01*
X256237693Y-60732895D02*
X256237693Y-60828133D01*
X256237693Y-60828133D02*
X256190074Y-60970990D01*
X256190074Y-60970990D02*
X255618646Y-61542419D01*
X255618646Y-61542419D02*
X256237693Y-61542419D01*
X257142455Y-60542419D02*
X256666265Y-60542419D01*
X256666265Y-60542419D02*
X256618646Y-61018609D01*
X256618646Y-61018609D02*
X256666265Y-60970990D01*
X256666265Y-60970990D02*
X256761503Y-60923371D01*
X256761503Y-60923371D02*
X256999598Y-60923371D01*
X256999598Y-60923371D02*
X257094836Y-60970990D01*
X257094836Y-60970990D02*
X257142455Y-61018609D01*
X257142455Y-61018609D02*
X257190074Y-61113847D01*
X257190074Y-61113847D02*
X257190074Y-61351942D01*
X257190074Y-61351942D02*
X257142455Y-61447180D01*
X257142455Y-61447180D02*
X257094836Y-61494800D01*
X257094836Y-61494800D02*
X256999598Y-61542419D01*
X256999598Y-61542419D02*
X256761503Y-61542419D01*
X256761503Y-61542419D02*
X256666265Y-61494800D01*
X256666265Y-61494800D02*
X256618646Y-61447180D01*
X247236265Y-62977657D02*
X247283884Y-62930038D01*
X247283884Y-62930038D02*
X247379122Y-62882419D01*
X247379122Y-62882419D02*
X247617217Y-62882419D01*
X247617217Y-62882419D02*
X247712455Y-62930038D01*
X247712455Y-62930038D02*
X247760074Y-62977657D01*
X247760074Y-62977657D02*
X247807693Y-63072895D01*
X247807693Y-63072895D02*
X247807693Y-63168133D01*
X247807693Y-63168133D02*
X247760074Y-63310990D01*
X247760074Y-63310990D02*
X247188646Y-63882419D01*
X247188646Y-63882419D02*
X247807693Y-63882419D01*
X248664836Y-62882419D02*
X248474360Y-62882419D01*
X248474360Y-62882419D02*
X248379122Y-62930038D01*
X248379122Y-62930038D02*
X248331503Y-62977657D01*
X248331503Y-62977657D02*
X248236265Y-63120514D01*
X248236265Y-63120514D02*
X248188646Y-63310990D01*
X248188646Y-63310990D02*
X248188646Y-63691942D01*
X248188646Y-63691942D02*
X248236265Y-63787180D01*
X248236265Y-63787180D02*
X248283884Y-63834800D01*
X248283884Y-63834800D02*
X248379122Y-63882419D01*
X248379122Y-63882419D02*
X248569598Y-63882419D01*
X248569598Y-63882419D02*
X248664836Y-63834800D01*
X248664836Y-63834800D02*
X248712455Y-63787180D01*
X248712455Y-63787180D02*
X248760074Y-63691942D01*
X248760074Y-63691942D02*
X248760074Y-63453847D01*
X248760074Y-63453847D02*
X248712455Y-63358609D01*
X248712455Y-63358609D02*
X248664836Y-63310990D01*
X248664836Y-63310990D02*
X248569598Y-63263371D01*
X248569598Y-63263371D02*
X248379122Y-63263371D01*
X248379122Y-63263371D02*
X248283884Y-63310990D01*
X248283884Y-63310990D02*
X248236265Y-63358609D01*
X248236265Y-63358609D02*
X248188646Y-63453847D01*
X167076704Y-118573734D02*
X167076704Y-118097544D01*
X167362419Y-118668972D02*
X166362419Y-118335639D01*
X166362419Y-118335639D02*
X167362419Y-118002306D01*
X166362419Y-117478496D02*
X166362419Y-117383258D01*
X166362419Y-117383258D02*
X166410038Y-117288020D01*
X166410038Y-117288020D02*
X166457657Y-117240401D01*
X166457657Y-117240401D02*
X166552895Y-117192782D01*
X166552895Y-117192782D02*
X166743371Y-117145163D01*
X166743371Y-117145163D02*
X166981466Y-117145163D01*
X166981466Y-117145163D02*
X167171942Y-117192782D01*
X167171942Y-117192782D02*
X167267180Y-117240401D01*
X167267180Y-117240401D02*
X167314800Y-117288020D01*
X167314800Y-117288020D02*
X167362419Y-117383258D01*
X167362419Y-117383258D02*
X167362419Y-117478496D01*
X167362419Y-117478496D02*
X167314800Y-117573734D01*
X167314800Y-117573734D02*
X167267180Y-117621353D01*
X167267180Y-117621353D02*
X167171942Y-117668972D01*
X167171942Y-117668972D02*
X166981466Y-117716591D01*
X166981466Y-117716591D02*
X166743371Y-117716591D01*
X166743371Y-117716591D02*
X166552895Y-117668972D01*
X166552895Y-117668972D02*
X166457657Y-117621353D01*
X166457657Y-117621353D02*
X166410038Y-117573734D01*
X166410038Y-117573734D02*
X166362419Y-117478496D01*
X177965752Y-34417544D02*
X178632419Y-34417544D01*
X177584800Y-34655639D02*
X178299085Y-34893734D01*
X178299085Y-34893734D02*
X178299085Y-34274687D01*
X177186704Y-118693734D02*
X177186704Y-118217544D01*
X177472419Y-118788972D02*
X176472419Y-118455639D01*
X176472419Y-118455639D02*
X177472419Y-118122306D01*
X176805752Y-117360401D02*
X177472419Y-117360401D01*
X176424800Y-117598496D02*
X177139085Y-117836591D01*
X177139085Y-117836591D02*
X177139085Y-117217544D01*
X182136704Y-118723734D02*
X182136704Y-118247544D01*
X182422419Y-118818972D02*
X181422419Y-118485639D01*
X181422419Y-118485639D02*
X182422419Y-118152306D01*
X181422419Y-117390401D02*
X181422419Y-117580877D01*
X181422419Y-117580877D02*
X181470038Y-117676115D01*
X181470038Y-117676115D02*
X181517657Y-117723734D01*
X181517657Y-117723734D02*
X181660514Y-117818972D01*
X181660514Y-117818972D02*
X181850990Y-117866591D01*
X181850990Y-117866591D02*
X182231942Y-117866591D01*
X182231942Y-117866591D02*
X182327180Y-117818972D01*
X182327180Y-117818972D02*
X182374800Y-117771353D01*
X182374800Y-117771353D02*
X182422419Y-117676115D01*
X182422419Y-117676115D02*
X182422419Y-117485639D01*
X182422419Y-117485639D02*
X182374800Y-117390401D01*
X182374800Y-117390401D02*
X182327180Y-117342782D01*
X182327180Y-117342782D02*
X182231942Y-117295163D01*
X182231942Y-117295163D02*
X181993847Y-117295163D01*
X181993847Y-117295163D02*
X181898609Y-117342782D01*
X181898609Y-117342782D02*
X181850990Y-117390401D01*
X181850990Y-117390401D02*
X181803371Y-117485639D01*
X181803371Y-117485639D02*
X181803371Y-117676115D01*
X181803371Y-117676115D02*
X181850990Y-117771353D01*
X181850990Y-117771353D02*
X181898609Y-117818972D01*
X181898609Y-117818972D02*
X181993847Y-117866591D01*
X151990038Y-35082306D02*
X151942419Y-35177544D01*
X151942419Y-35177544D02*
X151942419Y-35320401D01*
X151942419Y-35320401D02*
X151990038Y-35463258D01*
X151990038Y-35463258D02*
X152085276Y-35558496D01*
X152085276Y-35558496D02*
X152180514Y-35606115D01*
X152180514Y-35606115D02*
X152370990Y-35653734D01*
X152370990Y-35653734D02*
X152513847Y-35653734D01*
X152513847Y-35653734D02*
X152704323Y-35606115D01*
X152704323Y-35606115D02*
X152799561Y-35558496D01*
X152799561Y-35558496D02*
X152894800Y-35463258D01*
X152894800Y-35463258D02*
X152942419Y-35320401D01*
X152942419Y-35320401D02*
X152942419Y-35225163D01*
X152942419Y-35225163D02*
X152894800Y-35082306D01*
X152894800Y-35082306D02*
X152847180Y-35034687D01*
X152847180Y-35034687D02*
X152513847Y-35034687D01*
X152513847Y-35034687D02*
X152513847Y-35225163D01*
X152942419Y-34606115D02*
X151942419Y-34606115D01*
X151942419Y-34606115D02*
X152942419Y-34034687D01*
X152942419Y-34034687D02*
X151942419Y-34034687D01*
X152942419Y-33558496D02*
X151942419Y-33558496D01*
X151942419Y-33558496D02*
X151942419Y-33320401D01*
X151942419Y-33320401D02*
X151990038Y-33177544D01*
X151990038Y-33177544D02*
X152085276Y-33082306D01*
X152085276Y-33082306D02*
X152180514Y-33034687D01*
X152180514Y-33034687D02*
X152370990Y-32987068D01*
X152370990Y-32987068D02*
X152513847Y-32987068D01*
X152513847Y-32987068D02*
X152704323Y-33034687D01*
X152704323Y-33034687D02*
X152799561Y-33082306D01*
X152799561Y-33082306D02*
X152894800Y-33177544D01*
X152894800Y-33177544D02*
X152942419Y-33320401D01*
X152942419Y-33320401D02*
X152942419Y-33558496D01*
X190066704Y-118603734D02*
X190066704Y-118127544D01*
X190352419Y-118698972D02*
X189352419Y-118365639D01*
X189352419Y-118365639D02*
X190352419Y-118032306D01*
X190352419Y-117651353D02*
X190352419Y-117460877D01*
X190352419Y-117460877D02*
X190304800Y-117365639D01*
X190304800Y-117365639D02*
X190257180Y-117318020D01*
X190257180Y-117318020D02*
X190114323Y-117222782D01*
X190114323Y-117222782D02*
X189923847Y-117175163D01*
X189923847Y-117175163D02*
X189542895Y-117175163D01*
X189542895Y-117175163D02*
X189447657Y-117222782D01*
X189447657Y-117222782D02*
X189400038Y-117270401D01*
X189400038Y-117270401D02*
X189352419Y-117365639D01*
X189352419Y-117365639D02*
X189352419Y-117556115D01*
X189352419Y-117556115D02*
X189400038Y-117651353D01*
X189400038Y-117651353D02*
X189447657Y-117698972D01*
X189447657Y-117698972D02*
X189542895Y-117746591D01*
X189542895Y-117746591D02*
X189780990Y-117746591D01*
X189780990Y-117746591D02*
X189876228Y-117698972D01*
X189876228Y-117698972D02*
X189923847Y-117651353D01*
X189923847Y-117651353D02*
X189971466Y-117556115D01*
X189971466Y-117556115D02*
X189971466Y-117365639D01*
X189971466Y-117365639D02*
X189923847Y-117270401D01*
X189923847Y-117270401D02*
X189876228Y-117222782D01*
X189876228Y-117222782D02*
X189780990Y-117175163D01*
X255850074Y-96052419D02*
X255373884Y-96052419D01*
X255373884Y-96052419D02*
X255326265Y-96528609D01*
X255326265Y-96528609D02*
X255373884Y-96480990D01*
X255373884Y-96480990D02*
X255469122Y-96433371D01*
X255469122Y-96433371D02*
X255707217Y-96433371D01*
X255707217Y-96433371D02*
X255802455Y-96480990D01*
X255802455Y-96480990D02*
X255850074Y-96528609D01*
X255850074Y-96528609D02*
X255897693Y-96623847D01*
X255897693Y-96623847D02*
X255897693Y-96861942D01*
X255897693Y-96861942D02*
X255850074Y-96957180D01*
X255850074Y-96957180D02*
X255802455Y-97004800D01*
X255802455Y-97004800D02*
X255707217Y-97052419D01*
X255707217Y-97052419D02*
X255469122Y-97052419D01*
X255469122Y-97052419D02*
X255373884Y-97004800D01*
X255373884Y-97004800D02*
X255326265Y-96957180D01*
X256231027Y-96052419D02*
X256850074Y-96052419D01*
X256850074Y-96052419D02*
X256516741Y-96433371D01*
X256516741Y-96433371D02*
X256659598Y-96433371D01*
X256659598Y-96433371D02*
X256754836Y-96480990D01*
X256754836Y-96480990D02*
X256802455Y-96528609D01*
X256802455Y-96528609D02*
X256850074Y-96623847D01*
X256850074Y-96623847D02*
X256850074Y-96861942D01*
X256850074Y-96861942D02*
X256802455Y-96957180D01*
X256802455Y-96957180D02*
X256754836Y-97004800D01*
X256754836Y-97004800D02*
X256659598Y-97052419D01*
X256659598Y-97052419D02*
X256373884Y-97052419D01*
X256373884Y-97052419D02*
X256278646Y-97004800D01*
X256278646Y-97004800D02*
X256231027Y-96957180D01*
X255476265Y-58257657D02*
X255523884Y-58210038D01*
X255523884Y-58210038D02*
X255619122Y-58162419D01*
X255619122Y-58162419D02*
X255857217Y-58162419D01*
X255857217Y-58162419D02*
X255952455Y-58210038D01*
X255952455Y-58210038D02*
X256000074Y-58257657D01*
X256000074Y-58257657D02*
X256047693Y-58352895D01*
X256047693Y-58352895D02*
X256047693Y-58448133D01*
X256047693Y-58448133D02*
X256000074Y-58590990D01*
X256000074Y-58590990D02*
X255428646Y-59162419D01*
X255428646Y-59162419D02*
X256047693Y-59162419D01*
X256381027Y-58162419D02*
X257000074Y-58162419D01*
X257000074Y-58162419D02*
X256666741Y-58543371D01*
X256666741Y-58543371D02*
X256809598Y-58543371D01*
X256809598Y-58543371D02*
X256904836Y-58590990D01*
X256904836Y-58590990D02*
X256952455Y-58638609D01*
X256952455Y-58638609D02*
X257000074Y-58733847D01*
X257000074Y-58733847D02*
X257000074Y-58971942D01*
X257000074Y-58971942D02*
X256952455Y-59067180D01*
X256952455Y-59067180D02*
X256904836Y-59114800D01*
X256904836Y-59114800D02*
X256809598Y-59162419D01*
X256809598Y-59162419D02*
X256523884Y-59162419D01*
X256523884Y-59162419D02*
X256428646Y-59114800D01*
X256428646Y-59114800D02*
X256381027Y-59067180D01*
X247672455Y-84135752D02*
X247672455Y-84802419D01*
X247434360Y-83754800D02*
X247196265Y-84469085D01*
X247196265Y-84469085D02*
X247815312Y-84469085D01*
X248148646Y-83897657D02*
X248196265Y-83850038D01*
X248196265Y-83850038D02*
X248291503Y-83802419D01*
X248291503Y-83802419D02*
X248529598Y-83802419D01*
X248529598Y-83802419D02*
X248624836Y-83850038D01*
X248624836Y-83850038D02*
X248672455Y-83897657D01*
X248672455Y-83897657D02*
X248720074Y-83992895D01*
X248720074Y-83992895D02*
X248720074Y-84088133D01*
X248720074Y-84088133D02*
X248672455Y-84230990D01*
X248672455Y-84230990D02*
X248101027Y-84802419D01*
X248101027Y-84802419D02*
X248720074Y-84802419D01*
X169962419Y-35011353D02*
X169962419Y-34344687D01*
X169962419Y-34344687D02*
X170962419Y-34773258D01*
X247430074Y-55532419D02*
X246953884Y-55532419D01*
X246953884Y-55532419D02*
X246906265Y-56008609D01*
X246906265Y-56008609D02*
X246953884Y-55960990D01*
X246953884Y-55960990D02*
X247049122Y-55913371D01*
X247049122Y-55913371D02*
X247287217Y-55913371D01*
X247287217Y-55913371D02*
X247382455Y-55960990D01*
X247382455Y-55960990D02*
X247430074Y-56008609D01*
X247430074Y-56008609D02*
X247477693Y-56103847D01*
X247477693Y-56103847D02*
X247477693Y-56341942D01*
X247477693Y-56341942D02*
X247430074Y-56437180D01*
X247430074Y-56437180D02*
X247382455Y-56484800D01*
X247382455Y-56484800D02*
X247287217Y-56532419D01*
X247287217Y-56532419D02*
X247049122Y-56532419D01*
X247049122Y-56532419D02*
X246953884Y-56484800D01*
X246953884Y-56484800D02*
X246906265Y-56437180D01*
X247763408Y-55532419D02*
X248096741Y-56532419D01*
X248096741Y-56532419D02*
X248430074Y-55532419D01*
X247900074Y-93532419D02*
X247423884Y-93532419D01*
X247423884Y-93532419D02*
X247376265Y-94008609D01*
X247376265Y-94008609D02*
X247423884Y-93960990D01*
X247423884Y-93960990D02*
X247519122Y-93913371D01*
X247519122Y-93913371D02*
X247757217Y-93913371D01*
X247757217Y-93913371D02*
X247852455Y-93960990D01*
X247852455Y-93960990D02*
X247900074Y-94008609D01*
X247900074Y-94008609D02*
X247947693Y-94103847D01*
X247947693Y-94103847D02*
X247947693Y-94341942D01*
X247947693Y-94341942D02*
X247900074Y-94437180D01*
X247900074Y-94437180D02*
X247852455Y-94484800D01*
X247852455Y-94484800D02*
X247757217Y-94532419D01*
X247757217Y-94532419D02*
X247519122Y-94532419D01*
X247519122Y-94532419D02*
X247423884Y-94484800D01*
X247423884Y-94484800D02*
X247376265Y-94437180D01*
X248566741Y-93532419D02*
X248661979Y-93532419D01*
X248661979Y-93532419D02*
X248757217Y-93580038D01*
X248757217Y-93580038D02*
X248804836Y-93627657D01*
X248804836Y-93627657D02*
X248852455Y-93722895D01*
X248852455Y-93722895D02*
X248900074Y-93913371D01*
X248900074Y-93913371D02*
X248900074Y-94151466D01*
X248900074Y-94151466D02*
X248852455Y-94341942D01*
X248852455Y-94341942D02*
X248804836Y-94437180D01*
X248804836Y-94437180D02*
X248757217Y-94484800D01*
X248757217Y-94484800D02*
X248661979Y-94532419D01*
X248661979Y-94532419D02*
X248566741Y-94532419D01*
X248566741Y-94532419D02*
X248471503Y-94484800D01*
X248471503Y-94484800D02*
X248423884Y-94437180D01*
X248423884Y-94437180D02*
X248376265Y-94341942D01*
X248376265Y-94341942D02*
X248328646Y-94151466D01*
X248328646Y-94151466D02*
X248328646Y-93913371D01*
X248328646Y-93913371D02*
X248376265Y-93722895D01*
X248376265Y-93722895D02*
X248423884Y-93627657D01*
X248423884Y-93627657D02*
X248471503Y-93580038D01*
X248471503Y-93580038D02*
X248566741Y-93532419D01*
X247038646Y-73282419D02*
X247657693Y-73282419D01*
X247657693Y-73282419D02*
X247324360Y-73663371D01*
X247324360Y-73663371D02*
X247467217Y-73663371D01*
X247467217Y-73663371D02*
X247562455Y-73710990D01*
X247562455Y-73710990D02*
X247610074Y-73758609D01*
X247610074Y-73758609D02*
X247657693Y-73853847D01*
X247657693Y-73853847D02*
X247657693Y-74091942D01*
X247657693Y-74091942D02*
X247610074Y-74187180D01*
X247610074Y-74187180D02*
X247562455Y-74234800D01*
X247562455Y-74234800D02*
X247467217Y-74282419D01*
X247467217Y-74282419D02*
X247181503Y-74282419D01*
X247181503Y-74282419D02*
X247086265Y-74234800D01*
X247086265Y-74234800D02*
X247038646Y-74187180D01*
X248514836Y-73615752D02*
X248514836Y-74282419D01*
X248276741Y-73234800D02*
X248038646Y-73949085D01*
X248038646Y-73949085D02*
X248657693Y-73949085D01*
X255518646Y-73122419D02*
X256137693Y-73122419D01*
X256137693Y-73122419D02*
X255804360Y-73503371D01*
X255804360Y-73503371D02*
X255947217Y-73503371D01*
X255947217Y-73503371D02*
X256042455Y-73550990D01*
X256042455Y-73550990D02*
X256090074Y-73598609D01*
X256090074Y-73598609D02*
X256137693Y-73693847D01*
X256137693Y-73693847D02*
X256137693Y-73931942D01*
X256137693Y-73931942D02*
X256090074Y-74027180D01*
X256090074Y-74027180D02*
X256042455Y-74074800D01*
X256042455Y-74074800D02*
X255947217Y-74122419D01*
X255947217Y-74122419D02*
X255661503Y-74122419D01*
X255661503Y-74122419D02*
X255566265Y-74074800D01*
X255566265Y-74074800D02*
X255518646Y-74027180D01*
X257042455Y-73122419D02*
X256566265Y-73122419D01*
X256566265Y-73122419D02*
X256518646Y-73598609D01*
X256518646Y-73598609D02*
X256566265Y-73550990D01*
X256566265Y-73550990D02*
X256661503Y-73503371D01*
X256661503Y-73503371D02*
X256899598Y-73503371D01*
X256899598Y-73503371D02*
X256994836Y-73550990D01*
X256994836Y-73550990D02*
X257042455Y-73598609D01*
X257042455Y-73598609D02*
X257090074Y-73693847D01*
X257090074Y-73693847D02*
X257090074Y-73931942D01*
X257090074Y-73931942D02*
X257042455Y-74027180D01*
X257042455Y-74027180D02*
X256994836Y-74074800D01*
X256994836Y-74074800D02*
X256899598Y-74122419D01*
X256899598Y-74122419D02*
X256661503Y-74122419D01*
X256661503Y-74122419D02*
X256566265Y-74074800D01*
X256566265Y-74074800D02*
X256518646Y-74027180D01*
X175142419Y-34389925D02*
X175142419Y-34866115D01*
X175142419Y-34866115D02*
X175618609Y-34913734D01*
X175618609Y-34913734D02*
X175570990Y-34866115D01*
X175570990Y-34866115D02*
X175523371Y-34770877D01*
X175523371Y-34770877D02*
X175523371Y-34532782D01*
X175523371Y-34532782D02*
X175570990Y-34437544D01*
X175570990Y-34437544D02*
X175618609Y-34389925D01*
X175618609Y-34389925D02*
X175713847Y-34342306D01*
X175713847Y-34342306D02*
X175951942Y-34342306D01*
X175951942Y-34342306D02*
X176047180Y-34389925D01*
X176047180Y-34389925D02*
X176094800Y-34437544D01*
X176094800Y-34437544D02*
X176142419Y-34532782D01*
X176142419Y-34532782D02*
X176142419Y-34770877D01*
X176142419Y-34770877D02*
X176094800Y-34866115D01*
X176094800Y-34866115D02*
X176047180Y-34913734D01*
X174626704Y-118643734D02*
X174626704Y-118167544D01*
X174912419Y-118738972D02*
X173912419Y-118405639D01*
X173912419Y-118405639D02*
X174912419Y-118072306D01*
X173912419Y-117834210D02*
X173912419Y-117215163D01*
X173912419Y-117215163D02*
X174293371Y-117548496D01*
X174293371Y-117548496D02*
X174293371Y-117405639D01*
X174293371Y-117405639D02*
X174340990Y-117310401D01*
X174340990Y-117310401D02*
X174388609Y-117262782D01*
X174388609Y-117262782D02*
X174483847Y-117215163D01*
X174483847Y-117215163D02*
X174721942Y-117215163D01*
X174721942Y-117215163D02*
X174817180Y-117262782D01*
X174817180Y-117262782D02*
X174864800Y-117310401D01*
X174864800Y-117310401D02*
X174912419Y-117405639D01*
X174912419Y-117405639D02*
X174912419Y-117691353D01*
X174912419Y-117691353D02*
X174864800Y-117786591D01*
X174864800Y-117786591D02*
X174817180Y-117834210D01*
G36*
X115660000Y-89427927D02*
G01*
X113651346Y-89427927D01*
X113651346Y-89181974D01*
X114373817Y-89181974D01*
X114285931Y-89089062D01*
X114224672Y-88987176D01*
X114187707Y-88874324D01*
X114175003Y-88747466D01*
X114182535Y-88641558D01*
X114204068Y-88548920D01*
X114238628Y-88467442D01*
X114287371Y-88394535D01*
X114345650Y-88338492D01*
X114414361Y-88297327D01*
X114491183Y-88271053D01*
X114597052Y-88252918D01*
X114739692Y-88246036D01*
X115660000Y-88246036D01*
X115660000Y-88491988D01*
X114739082Y-88491988D01*
X114618266Y-88502515D01*
X114531478Y-88530326D01*
X114470170Y-88571978D01*
X114424710Y-88630284D01*
X114396270Y-88704099D01*
X114386029Y-88798025D01*
X114400145Y-88903795D01*
X114442815Y-89003677D01*
X114485796Y-89062465D01*
X114536831Y-89107799D01*
X114596810Y-89141064D01*
X114703839Y-89170387D01*
X114864989Y-89181974D01*
X115660000Y-89181974D01*
X115660000Y-89427927D01*
G37*
G36*
X115435296Y-87335621D02*
G01*
X115660000Y-87300083D01*
X115675631Y-87485952D01*
X115663761Y-87610956D01*
X115633377Y-87693558D01*
X115583503Y-87757200D01*
X115522124Y-87797362D01*
X115434196Y-87817701D01*
X115231964Y-87827404D01*
X114397752Y-87827404D01*
X114397752Y-88007777D01*
X114206266Y-88007777D01*
X114206266Y-87827404D01*
X113846130Y-87827404D01*
X113698241Y-87582916D01*
X114206266Y-87582916D01*
X114206266Y-87335621D01*
X114397752Y-87335621D01*
X114397752Y-87582916D01*
X115249305Y-87582916D01*
X115345618Y-87578662D01*
X115385104Y-87569972D01*
X115412056Y-87552957D01*
X115433098Y-87527595D01*
X115445909Y-87494418D01*
X115450928Y-87443576D01*
X115435296Y-87335621D01*
G37*
G36*
X115435296Y-86557951D02*
G01*
X115660000Y-86522414D01*
X115675631Y-86708283D01*
X115663761Y-86833287D01*
X115633377Y-86915889D01*
X115583503Y-86979531D01*
X115522124Y-87019692D01*
X115434196Y-87040031D01*
X115231964Y-87049734D01*
X114397752Y-87049734D01*
X114397752Y-87230108D01*
X114206266Y-87230108D01*
X114206266Y-87049734D01*
X113846130Y-87049734D01*
X113698241Y-86805247D01*
X114206266Y-86805247D01*
X114206266Y-86557951D01*
X114397752Y-86557951D01*
X114397752Y-86805247D01*
X115249305Y-86805247D01*
X115345618Y-86800993D01*
X115385104Y-86792302D01*
X115412056Y-86775288D01*
X115433098Y-86749926D01*
X115445909Y-86716748D01*
X115450928Y-86665907D01*
X115435296Y-86557951D01*
G37*
G36*
X115068959Y-85066871D02*
G01*
X115201950Y-85093827D01*
X115323189Y-85137557D01*
X115434444Y-85200050D01*
X115524667Y-85277202D01*
X115596374Y-85369832D01*
X115649664Y-85474540D01*
X115680888Y-85580750D01*
X115691263Y-85690157D01*
X115677771Y-85808107D01*
X115638628Y-85910708D01*
X115578283Y-86000533D01*
X115505516Y-86071297D01*
X116214919Y-86071297D01*
X116214919Y-86317250D01*
X114206266Y-86317250D01*
X114206266Y-86093157D01*
X114395188Y-86093157D01*
X114297095Y-86006842D01*
X114230080Y-85914249D01*
X114200343Y-85845668D01*
X114181619Y-85765768D01*
X114176646Y-85695530D01*
X114366489Y-85695530D01*
X114375203Y-85769995D01*
X114401330Y-85840119D01*
X114446263Y-85907628D01*
X114513157Y-85973600D01*
X114588667Y-86023376D01*
X114682197Y-86061121D01*
X114797528Y-86085626D01*
X114939239Y-86094501D01*
X115082065Y-86085916D01*
X115195022Y-86062538D01*
X115283637Y-86027117D01*
X115352498Y-85981172D01*
X115428003Y-85898356D01*
X115471476Y-85807953D01*
X115486099Y-85706521D01*
X115477577Y-85628025D01*
X115452402Y-85556155D01*
X115409890Y-85489113D01*
X115347735Y-85425764D01*
X115276465Y-85378430D01*
X115184591Y-85341897D01*
X115067311Y-85317762D01*
X114918845Y-85308893D01*
X114777777Y-85317439D01*
X114664887Y-85340840D01*
X114575110Y-85376519D01*
X114504242Y-85423077D01*
X114425971Y-85506508D01*
X114381371Y-85596200D01*
X114366489Y-85695530D01*
X114176646Y-85695530D01*
X114175003Y-85672327D01*
X114185986Y-85551444D01*
X114217941Y-85443018D01*
X114270624Y-85344553D01*
X114342054Y-85258555D01*
X114431137Y-85187234D01*
X114540390Y-85129986D01*
X114658445Y-85090217D01*
X114785258Y-85065893D01*
X114922264Y-85057568D01*
X115068959Y-85066871D01*
G37*
G36*
X115221584Y-84860219D02*
G01*
X115183237Y-84617076D01*
X115276574Y-84594119D01*
X115350247Y-84555950D01*
X115408063Y-84503014D01*
X115449622Y-84436317D01*
X115476349Y-84350809D01*
X115486099Y-84241308D01*
X115477129Y-84130089D01*
X115453322Y-84048689D01*
X115417711Y-83989982D01*
X115367785Y-83943183D01*
X115314942Y-83916696D01*
X115257243Y-83907916D01*
X115206068Y-83915979D01*
X115163512Y-83939527D01*
X115127306Y-83980334D01*
X115096581Y-84050282D01*
X115044752Y-84231782D01*
X114974680Y-84480543D01*
X114926538Y-84606817D01*
X114866049Y-84699840D01*
X114788419Y-84765331D01*
X114695904Y-84805715D01*
X114593513Y-84819309D01*
X114499658Y-84808103D01*
X114413750Y-84774856D01*
X114337977Y-84722408D01*
X114276242Y-84653956D01*
X114238866Y-84589949D01*
X114204434Y-84497519D01*
X114182530Y-84396092D01*
X114175003Y-84285027D01*
X114188133Y-84120720D01*
X114224829Y-83985219D01*
X114264064Y-83903046D01*
X114309165Y-83840619D01*
X114359895Y-83794588D01*
X114454705Y-83744395D01*
X114587651Y-83709836D01*
X114620502Y-83950293D01*
X114548849Y-83968838D01*
X114490791Y-84000470D01*
X114443792Y-84045303D01*
X114410067Y-84101117D01*
X114388194Y-84173580D01*
X114380167Y-84267320D01*
X114387853Y-84379794D01*
X114407610Y-84457348D01*
X114435854Y-84509120D01*
X114476908Y-84550744D01*
X114519832Y-84573930D01*
X114566280Y-84581538D01*
X114611406Y-84574059D01*
X114651887Y-84551496D01*
X114686494Y-84514932D01*
X114717100Y-84457219D01*
X114779626Y-84239965D01*
X114848912Y-83999528D01*
X114893565Y-83875921D01*
X114948664Y-83782973D01*
X115022526Y-83713988D01*
X115081532Y-83682142D01*
X115150803Y-83662264D01*
X115232697Y-83655247D01*
X115312509Y-83663111D01*
X115389200Y-83686708D01*
X115464117Y-83726933D01*
X115529832Y-83780660D01*
X115585656Y-83848941D01*
X115631912Y-83933928D01*
X115664293Y-84025884D01*
X115684327Y-84127384D01*
X115691263Y-84239965D01*
X115682531Y-84383625D01*
X115658450Y-84500399D01*
X115621443Y-84594922D01*
X115572805Y-84671053D01*
X115508921Y-84736402D01*
X115430729Y-84789768D01*
X115335972Y-84831323D01*
X115221584Y-84860219D01*
G37*
G36*
X114487634Y-83294501D02*
G01*
X114206266Y-83294501D01*
X114206266Y-83014476D01*
X114487634Y-83014476D01*
X114487634Y-83294501D01*
G37*
G36*
X115660000Y-83294501D02*
G01*
X115378632Y-83294501D01*
X115378632Y-83014476D01*
X115660000Y-83014476D01*
X115660000Y-83294501D01*
G37*
G36*
X115691263Y-82769623D02*
G01*
X113620083Y-82188935D01*
X113620083Y-81992198D01*
X115691263Y-82571542D01*
X115691263Y-82769623D01*
G37*
G36*
X115691263Y-81991953D02*
G01*
X113620083Y-81411266D01*
X113620083Y-81214528D01*
X115691263Y-81793872D01*
X115691263Y-81991953D01*
G37*
G36*
X115435296Y-80492913D02*
G01*
X115660000Y-80457376D01*
X115675631Y-80643244D01*
X115663761Y-80768248D01*
X115633377Y-80850851D01*
X115583503Y-80914492D01*
X115522124Y-80954654D01*
X115434196Y-80974993D01*
X115231964Y-80984696D01*
X114397752Y-80984696D01*
X114397752Y-81165069D01*
X114206266Y-81165069D01*
X114206266Y-80984696D01*
X113846130Y-80984696D01*
X113698241Y-80740209D01*
X114206266Y-80740209D01*
X114206266Y-80492913D01*
X114397752Y-80492913D01*
X114397752Y-80740209D01*
X115249305Y-80740209D01*
X115345618Y-80735955D01*
X115385104Y-80727264D01*
X115412056Y-80710249D01*
X115433098Y-80684888D01*
X115445909Y-80651710D01*
X115450928Y-80600868D01*
X115435296Y-80492913D01*
G37*
G36*
X113932714Y-80250746D02*
G01*
X113651346Y-80250746D01*
X113651346Y-80004916D01*
X113932714Y-80004916D01*
X113932714Y-80250746D01*
G37*
G36*
X115660000Y-80250746D02*
G01*
X114206266Y-80250746D01*
X114206266Y-80004916D01*
X115660000Y-80004916D01*
X115660000Y-80250746D01*
G37*
G36*
X115660000Y-79630858D02*
G01*
X114206266Y-79630858D01*
X114206266Y-79409452D01*
X114411919Y-79409452D01*
X114326017Y-79339219D01*
X114260735Y-79259515D01*
X114213965Y-79169200D01*
X114185083Y-79066208D01*
X114175003Y-78947711D01*
X114187086Y-78820507D01*
X114222264Y-78706643D01*
X114278671Y-78607953D01*
X114345973Y-78542023D01*
X114428221Y-78496159D01*
X114527812Y-78465453D01*
X114608989Y-78455987D01*
X114767048Y-78451775D01*
X115660000Y-78451775D01*
X115660000Y-78697728D01*
X114775108Y-78697728D01*
X114634152Y-78706151D01*
X114549794Y-78726427D01*
X114483134Y-78765715D01*
X114430603Y-78828154D01*
X114397559Y-78906120D01*
X114386029Y-78999612D01*
X114397383Y-79100628D01*
X114430535Y-79190117D01*
X114486046Y-79270844D01*
X114539305Y-79315872D01*
X114615405Y-79351436D01*
X114721239Y-79375705D01*
X114865478Y-79384905D01*
X115660000Y-79384905D01*
X115660000Y-79630858D01*
G37*
G36*
X116216995Y-78086388D02*
G01*
X115991803Y-78113743D01*
X116008664Y-78035216D01*
X116013663Y-77973060D01*
X116006004Y-77896045D01*
X115985819Y-77841901D01*
X115952608Y-77797371D01*
X115907784Y-77761301D01*
X115855993Y-77736403D01*
X115721304Y-77686074D01*
X115660000Y-77664214D01*
X114206266Y-78214860D01*
X114206266Y-77949734D01*
X115046584Y-77647850D01*
X115209084Y-77592647D01*
X115382662Y-77542704D01*
X115214961Y-77496135D01*
X115051957Y-77441587D01*
X114206266Y-77131399D01*
X114206266Y-76885446D01*
X115681859Y-77437435D01*
X115901413Y-77523792D01*
X116011221Y-77575432D01*
X116119986Y-77648757D01*
X116189396Y-77725764D01*
X116220423Y-77784526D01*
X116239527Y-77851288D01*
X116246182Y-77927875D01*
X116239370Y-78000370D01*
X116216995Y-78086388D01*
G37*
G36*
X115128527Y-75729689D02*
G01*
X115159912Y-75487889D01*
X115282012Y-75516745D01*
X115386118Y-75560435D01*
X115474908Y-75618303D01*
X115550334Y-75690732D01*
X115611433Y-75776062D01*
X115655154Y-75870126D01*
X115681984Y-75974597D01*
X115691263Y-76091657D01*
X115678287Y-76237677D01*
X115641145Y-76363864D01*
X115580935Y-76473960D01*
X115496601Y-76570617D01*
X115394859Y-76646237D01*
X115271152Y-76702566D01*
X115120973Y-76738644D01*
X114938628Y-76751601D01*
X114783492Y-76742341D01*
X114647320Y-76715922D01*
X114527445Y-76673810D01*
X114418439Y-76611895D01*
X114331217Y-76533320D01*
X114263175Y-76436772D01*
X114214280Y-76327758D01*
X114184935Y-76212832D01*
X114175003Y-76090314D01*
X114183259Y-75972578D01*
X114206767Y-75870489D01*
X114244318Y-75781561D01*
X114295659Y-75703799D01*
X114360678Y-75636775D01*
X114438173Y-75582432D01*
X114529906Y-75540364D01*
X114638332Y-75511092D01*
X114675212Y-75750205D01*
X114581235Y-75780573D01*
X114508932Y-75821114D01*
X114454295Y-75871106D01*
X114413380Y-75932407D01*
X114388691Y-76001553D01*
X114380167Y-76080788D01*
X114388813Y-76171141D01*
X114413752Y-76250175D01*
X114454640Y-76320173D01*
X114512669Y-76382672D01*
X114581026Y-76429577D01*
X114670153Y-76465870D01*
X114785055Y-76489935D01*
X114931789Y-76498810D01*
X115081171Y-76490155D01*
X115197312Y-76466783D01*
X115286593Y-76431751D01*
X115354330Y-76386824D01*
X115412160Y-76326320D01*
X115452790Y-76258551D01*
X115477528Y-76182022D01*
X115486099Y-76094466D01*
X115475913Y-76001299D01*
X115446642Y-75921692D01*
X115398415Y-75852665D01*
X115333777Y-75798553D01*
X115245897Y-75757014D01*
X115128527Y-75729689D01*
G37*
G36*
X115098580Y-74020475D02*
G01*
X115242736Y-74049772D01*
X115353230Y-74093628D01*
X115452330Y-74158218D01*
X115534934Y-74239215D01*
X115602480Y-74338237D01*
X115651669Y-74448099D01*
X115681239Y-74564313D01*
X115691263Y-74688604D01*
X115678240Y-74838179D01*
X115640943Y-74967831D01*
X115580506Y-75081257D01*
X115495990Y-75181120D01*
X115393482Y-75259735D01*
X115268770Y-75318154D01*
X115117272Y-75355524D01*
X114933133Y-75368942D01*
X114768776Y-75358485D01*
X114630741Y-75329187D01*
X114514809Y-75283323D01*
X114417492Y-75221952D01*
X114336203Y-75144849D01*
X114266191Y-75047054D01*
X114216192Y-74939742D01*
X114185572Y-74821063D01*
X114175003Y-74688604D01*
X114380167Y-74688604D01*
X114388966Y-74777918D01*
X114414558Y-74857414D01*
X114456914Y-74929189D01*
X114517554Y-74994640D01*
X114588755Y-75044484D01*
X114678692Y-75082439D01*
X114791537Y-75107234D01*
X114932400Y-75116273D01*
X115073303Y-75107244D01*
X115186332Y-75082463D01*
X115276552Y-75044507D01*
X115348101Y-74994640D01*
X115409039Y-74929151D01*
X115451577Y-74857364D01*
X115477268Y-74777883D01*
X115486099Y-74688604D01*
X115477255Y-74600080D01*
X115451487Y-74521057D01*
X115408737Y-74449457D01*
X115347369Y-74383911D01*
X115275592Y-74334252D01*
X115184273Y-74296279D01*
X115068988Y-74271380D01*
X114924340Y-74262278D01*
X114788815Y-74271235D01*
X114678861Y-74295962D01*
X114589918Y-74334117D01*
X114518286Y-74384644D01*
X114457124Y-74450459D01*
X114414562Y-74522052D01*
X114388946Y-74600760D01*
X114380167Y-74688604D01*
X114175003Y-74688604D01*
X114187946Y-74542051D01*
X114225180Y-74413818D01*
X114285818Y-74300459D01*
X114371008Y-74199508D01*
X114474124Y-74119035D01*
X114596104Y-74060054D01*
X114740655Y-74022829D01*
X114912616Y-74009609D01*
X115098580Y-74020475D01*
G37*
G36*
X115660000Y-73722135D02*
G01*
X114206266Y-73722135D01*
X114206266Y-73502072D01*
X114409232Y-73502072D01*
X114314312Y-73422931D01*
X114239361Y-73320478D01*
X114204033Y-73242583D01*
X114182439Y-73157026D01*
X114175003Y-73062191D01*
X114183140Y-72956478D01*
X114205831Y-72869545D01*
X114241437Y-72797920D01*
X114291454Y-72735948D01*
X114352737Y-72687741D01*
X114426939Y-72652351D01*
X114332966Y-72576163D01*
X114263160Y-72494366D01*
X114214405Y-72406225D01*
X114185043Y-72310221D01*
X114175003Y-72204166D01*
X114183420Y-72096723D01*
X114206984Y-72007696D01*
X114244134Y-71933718D01*
X114294682Y-71872240D01*
X114357296Y-71824496D01*
X114436838Y-71788316D01*
X114537167Y-71764714D01*
X114663122Y-71756102D01*
X115660000Y-71756102D01*
X115660000Y-72000589D01*
X114743600Y-72000589D01*
X114606056Y-72007811D01*
X114530621Y-72024525D01*
X114472342Y-72057819D01*
X114425840Y-72111353D01*
X114396311Y-72178410D01*
X114386029Y-72258876D01*
X114397753Y-72356624D01*
X114431630Y-72440225D01*
X114488122Y-72513011D01*
X114562802Y-72565817D01*
X114668240Y-72600886D01*
X114814797Y-72614127D01*
X115660000Y-72614127D01*
X115660000Y-72859958D01*
X114714780Y-72859958D01*
X114606316Y-72867884D01*
X114526317Y-72888914D01*
X114468217Y-72920163D01*
X114424193Y-72966215D01*
X114396318Y-73029784D01*
X114386029Y-73116901D01*
X114399736Y-73216793D01*
X114440861Y-73308876D01*
X114482497Y-73361716D01*
X114535325Y-73404110D01*
X114601085Y-73436615D01*
X114718595Y-73464752D01*
X114905167Y-73476182D01*
X115660000Y-73476182D01*
X115660000Y-73722135D01*
G37*
G36*
X115068959Y-70140702D02*
G01*
X115201950Y-70167658D01*
X115323189Y-70211388D01*
X115434444Y-70273882D01*
X115524667Y-70351033D01*
X115596374Y-70443663D01*
X115649664Y-70548371D01*
X115680888Y-70654581D01*
X115691263Y-70763988D01*
X115677771Y-70881938D01*
X115638628Y-70984539D01*
X115578283Y-71074364D01*
X115505516Y-71145129D01*
X116214919Y-71145129D01*
X116214919Y-71391081D01*
X114206266Y-71391081D01*
X114206266Y-71166988D01*
X114395188Y-71166988D01*
X114297095Y-71080673D01*
X114230080Y-70988080D01*
X114200343Y-70919499D01*
X114181619Y-70839599D01*
X114176646Y-70769361D01*
X114366489Y-70769361D01*
X114375203Y-70843826D01*
X114401330Y-70913950D01*
X114446263Y-70981459D01*
X114513157Y-71047431D01*
X114588667Y-71097207D01*
X114682197Y-71134953D01*
X114797528Y-71159457D01*
X114939239Y-71168332D01*
X115082065Y-71159747D01*
X115195022Y-71136369D01*
X115283637Y-71100948D01*
X115352498Y-71055003D01*
X115428003Y-70972188D01*
X115471476Y-70881785D01*
X115486099Y-70780352D01*
X115477577Y-70701856D01*
X115452402Y-70629986D01*
X115409890Y-70562944D01*
X115347735Y-70499595D01*
X115276465Y-70452261D01*
X115184591Y-70415728D01*
X115067311Y-70391593D01*
X114918845Y-70382725D01*
X114777777Y-70391270D01*
X114664887Y-70414671D01*
X114575110Y-70450350D01*
X114504242Y-70496908D01*
X114425971Y-70580340D01*
X114381371Y-70670031D01*
X114366489Y-70769361D01*
X114176646Y-70769361D01*
X114175003Y-70746158D01*
X114185986Y-70625275D01*
X114217941Y-70516849D01*
X114270624Y-70418384D01*
X114342054Y-70332386D01*
X114431137Y-70261065D01*
X114540390Y-70203817D01*
X114658445Y-70164048D01*
X114785258Y-70139724D01*
X114922264Y-70131399D01*
X115068959Y-70140702D01*
G37*
G36*
X115660000Y-68884783D02*
G01*
X115446165Y-68884783D01*
X115536293Y-68959280D01*
X115604040Y-69041258D01*
X115651964Y-69131625D01*
X115681177Y-69232122D01*
X115691263Y-69345181D01*
X115678798Y-69470162D01*
X115642048Y-69585027D01*
X115584277Y-69685012D01*
X115518339Y-69750380D01*
X115437441Y-69795379D01*
X115335767Y-69826095D01*
X115252642Y-69836624D01*
X115106057Y-69841116D01*
X114206266Y-69841116D01*
X114206266Y-69595286D01*
X115012267Y-69595286D01*
X115189603Y-69590526D01*
X115272264Y-69580265D01*
X115333241Y-69558530D01*
X115383521Y-69525887D01*
X115424794Y-69481835D01*
X115454977Y-69429259D01*
X115473670Y-69368035D01*
X115480237Y-69296088D01*
X115466090Y-69188958D01*
X115423450Y-69088360D01*
X115380376Y-69029287D01*
X115329149Y-68984013D01*
X115268845Y-68951095D01*
X115159469Y-68922437D01*
X114984912Y-68910795D01*
X114206266Y-68910795D01*
X114206266Y-68664842D01*
X115660000Y-68664842D01*
X115660000Y-68884783D01*
G37*
G36*
X115435296Y-67743436D02*
G01*
X115660000Y-67707899D01*
X115675631Y-67893768D01*
X115663761Y-68018772D01*
X115633377Y-68101374D01*
X115583503Y-68165016D01*
X115522124Y-68205177D01*
X115434196Y-68225516D01*
X115231964Y-68235219D01*
X114397752Y-68235219D01*
X114397752Y-68415593D01*
X114206266Y-68415593D01*
X114206266Y-68235219D01*
X113846130Y-68235219D01*
X113698241Y-67990732D01*
X114206266Y-67990732D01*
X114206266Y-67743436D01*
X114397752Y-67743436D01*
X114397752Y-67990732D01*
X115249305Y-67990732D01*
X115345618Y-67986478D01*
X115385104Y-67977787D01*
X115412056Y-67960773D01*
X115433098Y-67935411D01*
X115445909Y-67902233D01*
X115450928Y-67851392D01*
X115435296Y-67743436D01*
G37*
G36*
X114995659Y-66248548D02*
G01*
X114995659Y-67330544D01*
X115114665Y-67315558D01*
X115212821Y-67287162D01*
X115293616Y-67246921D01*
X115359825Y-67195355D01*
X115429970Y-67107602D01*
X115471724Y-67007789D01*
X115486099Y-66892006D01*
X115477876Y-66804118D01*
X115454262Y-66727907D01*
X115415757Y-66661074D01*
X115362886Y-66604617D01*
X115289522Y-66553912D01*
X115191053Y-66509399D01*
X115222438Y-66255265D01*
X115363075Y-66308353D01*
X115476967Y-66382479D01*
X115568286Y-66478014D01*
X115620491Y-66561745D01*
X115658801Y-66657416D01*
X115682824Y-66767104D01*
X115691263Y-66893349D01*
X115677960Y-67050282D01*
X115640157Y-67184096D01*
X115579447Y-67299038D01*
X115495258Y-67398199D01*
X115392431Y-67476759D01*
X115269403Y-67534730D01*
X115122143Y-67571543D01*
X114945467Y-67584678D01*
X114762313Y-67571340D01*
X114609960Y-67534010D01*
X114483012Y-67475362D01*
X114377236Y-67396123D01*
X114289178Y-67295444D01*
X114226665Y-67182222D01*
X114188329Y-67053944D01*
X114175003Y-66907027D01*
X114175249Y-66904340D01*
X114380167Y-66904340D01*
X114392947Y-67012733D01*
X114430007Y-67106510D01*
X114491908Y-67189127D01*
X114572750Y-67253452D01*
X114670831Y-67296199D01*
X114790495Y-67316866D01*
X114790495Y-66506713D01*
X114672548Y-66526258D01*
X114584583Y-66557996D01*
X114520118Y-66599647D01*
X114458505Y-66663241D01*
X114415378Y-66734075D01*
X114389211Y-66813664D01*
X114380167Y-66904340D01*
X114175249Y-66904340D01*
X114188003Y-66764919D01*
X114225464Y-66640420D01*
X114286678Y-66530112D01*
X114373084Y-66431608D01*
X114476673Y-66354086D01*
X114601069Y-66296689D01*
X114750436Y-66260144D01*
X114930080Y-66247083D01*
X114995659Y-66248548D01*
G37*
G36*
X115660000Y-65950083D02*
G01*
X114206266Y-65950083D01*
X114206266Y-65728799D01*
X114425718Y-65728799D01*
X114289497Y-65640049D01*
X114223852Y-65572362D01*
X114187184Y-65496913D01*
X114175003Y-65414581D01*
X114183251Y-65333634D01*
X114208800Y-65249877D01*
X114253771Y-65161789D01*
X114480429Y-65246420D01*
X114439903Y-65338344D01*
X114427062Y-65426793D01*
X114439215Y-65503307D01*
X114475666Y-65571629D01*
X114532712Y-65625968D01*
X114610610Y-65663220D01*
X114746063Y-65693582D01*
X114898328Y-65704131D01*
X115660000Y-65704131D01*
X115660000Y-65950083D01*
G37*
G36*
X115221584Y-65113674D02*
G01*
X115183237Y-64870530D01*
X115276574Y-64847573D01*
X115350247Y-64809404D01*
X115408063Y-64756468D01*
X115449622Y-64689772D01*
X115476349Y-64604263D01*
X115486099Y-64494762D01*
X115477129Y-64383544D01*
X115453322Y-64302143D01*
X115417711Y-64243436D01*
X115367785Y-64196637D01*
X115314942Y-64170150D01*
X115257243Y-64161371D01*
X115206068Y-64169433D01*
X115163512Y-64192981D01*
X115127306Y-64233789D01*
X115096581Y-64303736D01*
X115044752Y-64485237D01*
X114974680Y-64733998D01*
X114926538Y-64860272D01*
X114866049Y-64953294D01*
X114788419Y-65018785D01*
X114695904Y-65059169D01*
X114593513Y-65072763D01*
X114499658Y-65061558D01*
X114413750Y-65028311D01*
X114337977Y-64975862D01*
X114276242Y-64907411D01*
X114238866Y-64843404D01*
X114204434Y-64750973D01*
X114182530Y-64649546D01*
X114175003Y-64538482D01*
X114188133Y-64374174D01*
X114224829Y-64238674D01*
X114264064Y-64156500D01*
X114309165Y-64094073D01*
X114359895Y-64048042D01*
X114454705Y-63997849D01*
X114587651Y-63963290D01*
X114620502Y-64203747D01*
X114548849Y-64222293D01*
X114490791Y-64253924D01*
X114443792Y-64298757D01*
X114410067Y-64354572D01*
X114388194Y-64427034D01*
X114380167Y-64520774D01*
X114387853Y-64633248D01*
X114407610Y-64710802D01*
X114435854Y-64762575D01*
X114476908Y-64804198D01*
X114519832Y-64827384D01*
X114566280Y-64834993D01*
X114611406Y-64827513D01*
X114651887Y-64804951D01*
X114686494Y-64768386D01*
X114717100Y-64710673D01*
X114779626Y-64493419D01*
X114848912Y-64252983D01*
X114893565Y-64129375D01*
X114948664Y-64036427D01*
X115022526Y-63967442D01*
X115081532Y-63935597D01*
X115150803Y-63915719D01*
X115232697Y-63908702D01*
X115312509Y-63916565D01*
X115389200Y-63940162D01*
X115464117Y-63980387D01*
X115529832Y-64034115D01*
X115585656Y-64102395D01*
X115631912Y-64187383D01*
X115664293Y-64279338D01*
X115684327Y-64380838D01*
X115691263Y-64493419D01*
X115682531Y-64637079D01*
X115658450Y-64753853D01*
X115621443Y-64848376D01*
X115572805Y-64924508D01*
X115508921Y-64989856D01*
X115430729Y-65043222D01*
X115335972Y-65084777D01*
X115221584Y-65113674D01*
G37*
G36*
X115660000Y-63546612D02*
G01*
X115378632Y-63546612D01*
X115378632Y-63266587D01*
X115660000Y-63266587D01*
X115660000Y-63546612D01*
G37*
G36*
X113932714Y-62837208D02*
G01*
X113651346Y-62837208D01*
X113651346Y-62591378D01*
X113932714Y-62591378D01*
X113932714Y-62837208D01*
G37*
G36*
X115660000Y-62837208D02*
G01*
X114206266Y-62837208D01*
X114206266Y-62591378D01*
X115660000Y-62591378D01*
X115660000Y-62837208D01*
G37*
G36*
X115098580Y-60960322D02*
G01*
X115242736Y-60989618D01*
X115353230Y-61033475D01*
X115452330Y-61098064D01*
X115534934Y-61179061D01*
X115602480Y-61278084D01*
X115651669Y-61387946D01*
X115681239Y-61504160D01*
X115691263Y-61628450D01*
X115678240Y-61778026D01*
X115640943Y-61907677D01*
X115580506Y-62021104D01*
X115495990Y-62120966D01*
X115393482Y-62199582D01*
X115268770Y-62258001D01*
X115117272Y-62295371D01*
X114933133Y-62308789D01*
X114768776Y-62298331D01*
X114630741Y-62269034D01*
X114514809Y-62223170D01*
X114417492Y-62161799D01*
X114336203Y-62084696D01*
X114266191Y-61986901D01*
X114216192Y-61879588D01*
X114185572Y-61760910D01*
X114175003Y-61628450D01*
X114380167Y-61628450D01*
X114388966Y-61717765D01*
X114414558Y-61797260D01*
X114456914Y-61869035D01*
X114517554Y-61934487D01*
X114588755Y-61984331D01*
X114678692Y-62022286D01*
X114791537Y-62047081D01*
X114932400Y-62056120D01*
X115073303Y-62047091D01*
X115186332Y-62022309D01*
X115276552Y-61984353D01*
X115348101Y-61934487D01*
X115409039Y-61868998D01*
X115451577Y-61797210D01*
X115477268Y-61717729D01*
X115486099Y-61628450D01*
X115477255Y-61539927D01*
X115451487Y-61460903D01*
X115408737Y-61389303D01*
X115347369Y-61323757D01*
X115275592Y-61274099D01*
X115184273Y-61236125D01*
X115068988Y-61211226D01*
X114924340Y-61202124D01*
X114788815Y-61211081D01*
X114678861Y-61235809D01*
X114589918Y-61273964D01*
X114518286Y-61324490D01*
X114457124Y-61390305D01*
X114414562Y-61461898D01*
X114388946Y-61540606D01*
X114380167Y-61628450D01*
X114175003Y-61628450D01*
X114187946Y-61481897D01*
X114225180Y-61353664D01*
X114285818Y-61240305D01*
X114371008Y-61139354D01*
X114474124Y-61058882D01*
X114596104Y-60999901D01*
X114740655Y-60962675D01*
X114912616Y-60949455D01*
X115098580Y-60960322D01*
G37*
X152152419Y-119806115D02*
X151152419Y-119806115D01*
X151152419Y-119806115D02*
X152152419Y-119234687D01*
X152152419Y-119234687D02*
X151152419Y-119234687D01*
X152152419Y-118187068D02*
X151676228Y-118520401D01*
X152152419Y-118758496D02*
X151152419Y-118758496D01*
X151152419Y-118758496D02*
X151152419Y-118377544D01*
X151152419Y-118377544D02*
X151200038Y-118282306D01*
X151200038Y-118282306D02*
X151247657Y-118234687D01*
X151247657Y-118234687D02*
X151342895Y-118187068D01*
X151342895Y-118187068D02*
X151485752Y-118187068D01*
X151485752Y-118187068D02*
X151580990Y-118234687D01*
X151580990Y-118234687D02*
X151628609Y-118282306D01*
X151628609Y-118282306D02*
X151676228Y-118377544D01*
X151676228Y-118377544D02*
X151676228Y-118758496D01*
X152104800Y-117806115D02*
X152152419Y-117663258D01*
X152152419Y-117663258D02*
X152152419Y-117425163D01*
X152152419Y-117425163D02*
X152104800Y-117329925D01*
X152104800Y-117329925D02*
X152057180Y-117282306D01*
X152057180Y-117282306D02*
X151961942Y-117234687D01*
X151961942Y-117234687D02*
X151866704Y-117234687D01*
X151866704Y-117234687D02*
X151771466Y-117282306D01*
X151771466Y-117282306D02*
X151723847Y-117329925D01*
X151723847Y-117329925D02*
X151676228Y-117425163D01*
X151676228Y-117425163D02*
X151628609Y-117615639D01*
X151628609Y-117615639D02*
X151580990Y-117710877D01*
X151580990Y-117710877D02*
X151533371Y-117758496D01*
X151533371Y-117758496D02*
X151438133Y-117806115D01*
X151438133Y-117806115D02*
X151342895Y-117806115D01*
X151342895Y-117806115D02*
X151247657Y-117758496D01*
X151247657Y-117758496D02*
X151200038Y-117710877D01*
X151200038Y-117710877D02*
X151152419Y-117615639D01*
X151152419Y-117615639D02*
X151152419Y-117377544D01*
X151152419Y-117377544D02*
X151200038Y-117234687D01*
X151152419Y-116948972D02*
X151152419Y-116377544D01*
X152152419Y-116663258D02*
X151152419Y-116663258D01*
X194896704Y-118863734D02*
X194896704Y-118387544D01*
X195182419Y-118958972D02*
X194182419Y-118625639D01*
X194182419Y-118625639D02*
X195182419Y-118292306D01*
X195182419Y-117435163D02*
X195182419Y-118006591D01*
X195182419Y-117720877D02*
X194182419Y-117720877D01*
X194182419Y-117720877D02*
X194325276Y-117816115D01*
X194325276Y-117816115D02*
X194420514Y-117911353D01*
X194420514Y-117911353D02*
X194468133Y-118006591D01*
X195182419Y-116482782D02*
X195182419Y-117054210D01*
X195182419Y-116768496D02*
X194182419Y-116768496D01*
X194182419Y-116768496D02*
X194325276Y-116863734D01*
X194325276Y-116863734D02*
X194420514Y-116958972D01*
X194420514Y-116958972D02*
X194468133Y-117054210D01*
X161380038Y-118462306D02*
X161332419Y-118557544D01*
X161332419Y-118557544D02*
X161332419Y-118700401D01*
X161332419Y-118700401D02*
X161380038Y-118843258D01*
X161380038Y-118843258D02*
X161475276Y-118938496D01*
X161475276Y-118938496D02*
X161570514Y-118986115D01*
X161570514Y-118986115D02*
X161760990Y-119033734D01*
X161760990Y-119033734D02*
X161903847Y-119033734D01*
X161903847Y-119033734D02*
X162094323Y-118986115D01*
X162094323Y-118986115D02*
X162189561Y-118938496D01*
X162189561Y-118938496D02*
X162284800Y-118843258D01*
X162284800Y-118843258D02*
X162332419Y-118700401D01*
X162332419Y-118700401D02*
X162332419Y-118605163D01*
X162332419Y-118605163D02*
X162284800Y-118462306D01*
X162284800Y-118462306D02*
X162237180Y-118414687D01*
X162237180Y-118414687D02*
X161903847Y-118414687D01*
X161903847Y-118414687D02*
X161903847Y-118605163D01*
X162332419Y-117986115D02*
X161332419Y-117986115D01*
X161332419Y-117986115D02*
X162332419Y-117414687D01*
X162332419Y-117414687D02*
X161332419Y-117414687D01*
X162332419Y-116938496D02*
X161332419Y-116938496D01*
X161332419Y-116938496D02*
X161332419Y-116700401D01*
X161332419Y-116700401D02*
X161380038Y-116557544D01*
X161380038Y-116557544D02*
X161475276Y-116462306D01*
X161475276Y-116462306D02*
X161570514Y-116414687D01*
X161570514Y-116414687D02*
X161760990Y-116367068D01*
X161760990Y-116367068D02*
X161903847Y-116367068D01*
X161903847Y-116367068D02*
X162094323Y-116414687D01*
X162094323Y-116414687D02*
X162189561Y-116462306D01*
X162189561Y-116462306D02*
X162284800Y-116557544D01*
X162284800Y-116557544D02*
X162332419Y-116700401D01*
X162332419Y-116700401D02*
X162332419Y-116938496D01*
X255558646Y-78122419D02*
X256177693Y-78122419D01*
X256177693Y-78122419D02*
X255844360Y-78503371D01*
X255844360Y-78503371D02*
X255987217Y-78503371D01*
X255987217Y-78503371D02*
X256082455Y-78550990D01*
X256082455Y-78550990D02*
X256130074Y-78598609D01*
X256130074Y-78598609D02*
X256177693Y-78693847D01*
X256177693Y-78693847D02*
X256177693Y-78931942D01*
X256177693Y-78931942D02*
X256130074Y-79027180D01*
X256130074Y-79027180D02*
X256082455Y-79074800D01*
X256082455Y-79074800D02*
X255987217Y-79122419D01*
X255987217Y-79122419D02*
X255701503Y-79122419D01*
X255701503Y-79122419D02*
X255606265Y-79074800D01*
X255606265Y-79074800D02*
X255558646Y-79027180D01*
X256653884Y-79122419D02*
X256844360Y-79122419D01*
X256844360Y-79122419D02*
X256939598Y-79074800D01*
X256939598Y-79074800D02*
X256987217Y-79027180D01*
X256987217Y-79027180D02*
X257082455Y-78884323D01*
X257082455Y-78884323D02*
X257130074Y-78693847D01*
X257130074Y-78693847D02*
X257130074Y-78312895D01*
X257130074Y-78312895D02*
X257082455Y-78217657D01*
X257082455Y-78217657D02*
X257034836Y-78170038D01*
X257034836Y-78170038D02*
X256939598Y-78122419D01*
X256939598Y-78122419D02*
X256749122Y-78122419D01*
X256749122Y-78122419D02*
X256653884Y-78170038D01*
X256653884Y-78170038D02*
X256606265Y-78217657D01*
X256606265Y-78217657D02*
X256558646Y-78312895D01*
X256558646Y-78312895D02*
X256558646Y-78550990D01*
X256558646Y-78550990D02*
X256606265Y-78646228D01*
X256606265Y-78646228D02*
X256653884Y-78693847D01*
X256653884Y-78693847D02*
X256749122Y-78741466D01*
X256749122Y-78741466D02*
X256939598Y-78741466D01*
X256939598Y-78741466D02*
X257034836Y-78693847D01*
X257034836Y-78693847D02*
X257082455Y-78646228D01*
X257082455Y-78646228D02*
X257130074Y-78550990D01*
X153812419Y-119341353D02*
X153812419Y-118722306D01*
X153812419Y-118722306D02*
X154193371Y-119055639D01*
X154193371Y-119055639D02*
X154193371Y-118912782D01*
X154193371Y-118912782D02*
X154240990Y-118817544D01*
X154240990Y-118817544D02*
X154288609Y-118769925D01*
X154288609Y-118769925D02*
X154383847Y-118722306D01*
X154383847Y-118722306D02*
X154621942Y-118722306D01*
X154621942Y-118722306D02*
X154717180Y-118769925D01*
X154717180Y-118769925D02*
X154764800Y-118817544D01*
X154764800Y-118817544D02*
X154812419Y-118912782D01*
X154812419Y-118912782D02*
X154812419Y-119198496D01*
X154812419Y-119198496D02*
X154764800Y-119293734D01*
X154764800Y-119293734D02*
X154717180Y-119341353D01*
X153812419Y-118436591D02*
X154812419Y-118103258D01*
X154812419Y-118103258D02*
X153812419Y-117769925D01*
X153812419Y-117531829D02*
X153812419Y-116912782D01*
X153812419Y-116912782D02*
X154193371Y-117246115D01*
X154193371Y-117246115D02*
X154193371Y-117103258D01*
X154193371Y-117103258D02*
X154240990Y-117008020D01*
X154240990Y-117008020D02*
X154288609Y-116960401D01*
X154288609Y-116960401D02*
X154383847Y-116912782D01*
X154383847Y-116912782D02*
X154621942Y-116912782D01*
X154621942Y-116912782D02*
X154717180Y-116960401D01*
X154717180Y-116960401D02*
X154764800Y-117008020D01*
X154764800Y-117008020D02*
X154812419Y-117103258D01*
X154812419Y-117103258D02*
X154812419Y-117388972D01*
X154812419Y-117388972D02*
X154764800Y-117484210D01*
X154764800Y-117484210D02*
X154717180Y-117531829D01*
X184766704Y-118653734D02*
X184766704Y-118177544D01*
X185052419Y-118748972D02*
X184052419Y-118415639D01*
X184052419Y-118415639D02*
X185052419Y-118082306D01*
X184052419Y-117844210D02*
X184052419Y-117177544D01*
X184052419Y-117177544D02*
X185052419Y-117606115D01*
X187236704Y-118633734D02*
X187236704Y-118157544D01*
X187522419Y-118728972D02*
X186522419Y-118395639D01*
X186522419Y-118395639D02*
X187522419Y-118062306D01*
X186950990Y-117586115D02*
X186903371Y-117681353D01*
X186903371Y-117681353D02*
X186855752Y-117728972D01*
X186855752Y-117728972D02*
X186760514Y-117776591D01*
X186760514Y-117776591D02*
X186712895Y-117776591D01*
X186712895Y-117776591D02*
X186617657Y-117728972D01*
X186617657Y-117728972D02*
X186570038Y-117681353D01*
X186570038Y-117681353D02*
X186522419Y-117586115D01*
X186522419Y-117586115D02*
X186522419Y-117395639D01*
X186522419Y-117395639D02*
X186570038Y-117300401D01*
X186570038Y-117300401D02*
X186617657Y-117252782D01*
X186617657Y-117252782D02*
X186712895Y-117205163D01*
X186712895Y-117205163D02*
X186760514Y-117205163D01*
X186760514Y-117205163D02*
X186855752Y-117252782D01*
X186855752Y-117252782D02*
X186903371Y-117300401D01*
X186903371Y-117300401D02*
X186950990Y-117395639D01*
X186950990Y-117395639D02*
X186950990Y-117586115D01*
X186950990Y-117586115D02*
X186998609Y-117681353D01*
X186998609Y-117681353D02*
X187046228Y-117728972D01*
X187046228Y-117728972D02*
X187141466Y-117776591D01*
X187141466Y-117776591D02*
X187331942Y-117776591D01*
X187331942Y-117776591D02*
X187427180Y-117728972D01*
X187427180Y-117728972D02*
X187474800Y-117681353D01*
X187474800Y-117681353D02*
X187522419Y-117586115D01*
X187522419Y-117586115D02*
X187522419Y-117395639D01*
X187522419Y-117395639D02*
X187474800Y-117300401D01*
X187474800Y-117300401D02*
X187427180Y-117252782D01*
X187427180Y-117252782D02*
X187331942Y-117205163D01*
X187331942Y-117205163D02*
X187141466Y-117205163D01*
X187141466Y-117205163D02*
X187046228Y-117252782D01*
X187046228Y-117252782D02*
X186998609Y-117300401D01*
X186998609Y-117300401D02*
X186950990Y-117395639D01*
X172452419Y-34597544D02*
X172452419Y-34788020D01*
X172452419Y-34788020D02*
X172500038Y-34883258D01*
X172500038Y-34883258D02*
X172547657Y-34930877D01*
X172547657Y-34930877D02*
X172690514Y-35026115D01*
X172690514Y-35026115D02*
X172880990Y-35073734D01*
X172880990Y-35073734D02*
X173261942Y-35073734D01*
X173261942Y-35073734D02*
X173357180Y-35026115D01*
X173357180Y-35026115D02*
X173404800Y-34978496D01*
X173404800Y-34978496D02*
X173452419Y-34883258D01*
X173452419Y-34883258D02*
X173452419Y-34692782D01*
X173452419Y-34692782D02*
X173404800Y-34597544D01*
X173404800Y-34597544D02*
X173357180Y-34549925D01*
X173357180Y-34549925D02*
X173261942Y-34502306D01*
X173261942Y-34502306D02*
X173023847Y-34502306D01*
X173023847Y-34502306D02*
X172928609Y-34549925D01*
X172928609Y-34549925D02*
X172880990Y-34597544D01*
X172880990Y-34597544D02*
X172833371Y-34692782D01*
X172833371Y-34692782D02*
X172833371Y-34883258D01*
X172833371Y-34883258D02*
X172880990Y-34978496D01*
X172880990Y-34978496D02*
X172928609Y-35026115D01*
X172928609Y-35026115D02*
X173023847Y-35073734D01*
X193622419Y-34082306D02*
X193622419Y-34653734D01*
X193622419Y-34368020D02*
X192622419Y-34368020D01*
X192622419Y-34368020D02*
X192765276Y-34463258D01*
X192765276Y-34463258D02*
X192860514Y-34558496D01*
X192860514Y-34558496D02*
X192908133Y-34653734D01*
X192622419Y-33177544D02*
X192622419Y-33653734D01*
X192622419Y-33653734D02*
X193098609Y-33701353D01*
X193098609Y-33701353D02*
X193050990Y-33653734D01*
X193050990Y-33653734D02*
X193003371Y-33558496D01*
X193003371Y-33558496D02*
X193003371Y-33320401D01*
X193003371Y-33320401D02*
X193050990Y-33225163D01*
X193050990Y-33225163D02*
X193098609Y-33177544D01*
X193098609Y-33177544D02*
X193193847Y-33129925D01*
X193193847Y-33129925D02*
X193431942Y-33129925D01*
X193431942Y-33129925D02*
X193527180Y-33177544D01*
X193527180Y-33177544D02*
X193574800Y-33225163D01*
X193574800Y-33225163D02*
X193622419Y-33320401D01*
X193622419Y-33320401D02*
X193622419Y-33558496D01*
X193622419Y-33558496D02*
X193574800Y-33653734D01*
X193574800Y-33653734D02*
X193527180Y-33701353D01*
X247562455Y-86485752D02*
X247562455Y-87152419D01*
X247324360Y-86104800D02*
X247086265Y-86819085D01*
X247086265Y-86819085D02*
X247705312Y-86819085D01*
X248514836Y-86485752D02*
X248514836Y-87152419D01*
X248276741Y-86104800D02*
X248038646Y-86819085D01*
X248038646Y-86819085D02*
X248657693Y-86819085D01*
X156332419Y-118049925D02*
X156332419Y-118526115D01*
X156332419Y-118526115D02*
X156808609Y-118573734D01*
X156808609Y-118573734D02*
X156760990Y-118526115D01*
X156760990Y-118526115D02*
X156713371Y-118430877D01*
X156713371Y-118430877D02*
X156713371Y-118192782D01*
X156713371Y-118192782D02*
X156760990Y-118097544D01*
X156760990Y-118097544D02*
X156808609Y-118049925D01*
X156808609Y-118049925D02*
X156903847Y-118002306D01*
X156903847Y-118002306D02*
X157141942Y-118002306D01*
X157141942Y-118002306D02*
X157237180Y-118049925D01*
X157237180Y-118049925D02*
X157284800Y-118097544D01*
X157284800Y-118097544D02*
X157332419Y-118192782D01*
X157332419Y-118192782D02*
X157332419Y-118430877D01*
X157332419Y-118430877D02*
X157284800Y-118526115D01*
X157284800Y-118526115D02*
X157237180Y-118573734D01*
X156332419Y-117716591D02*
X157332419Y-117383258D01*
X157332419Y-117383258D02*
X156332419Y-117049925D01*
X247572455Y-91045752D02*
X247572455Y-91712419D01*
X247334360Y-90664800D02*
X247096265Y-91379085D01*
X247096265Y-91379085D02*
X247715312Y-91379085D01*
X248239122Y-91140990D02*
X248143884Y-91093371D01*
X248143884Y-91093371D02*
X248096265Y-91045752D01*
X248096265Y-91045752D02*
X248048646Y-90950514D01*
X248048646Y-90950514D02*
X248048646Y-90902895D01*
X248048646Y-90902895D02*
X248096265Y-90807657D01*
X248096265Y-90807657D02*
X248143884Y-90760038D01*
X248143884Y-90760038D02*
X248239122Y-90712419D01*
X248239122Y-90712419D02*
X248429598Y-90712419D01*
X248429598Y-90712419D02*
X248524836Y-90760038D01*
X248524836Y-90760038D02*
X248572455Y-90807657D01*
X248572455Y-90807657D02*
X248620074Y-90902895D01*
X248620074Y-90902895D02*
X248620074Y-90950514D01*
X248620074Y-90950514D02*
X248572455Y-91045752D01*
X248572455Y-91045752D02*
X248524836Y-91093371D01*
X248524836Y-91093371D02*
X248429598Y-91140990D01*
X248429598Y-91140990D02*
X248239122Y-91140990D01*
X248239122Y-91140990D02*
X248143884Y-91188609D01*
X248143884Y-91188609D02*
X248096265Y-91236228D01*
X248096265Y-91236228D02*
X248048646Y-91331466D01*
X248048646Y-91331466D02*
X248048646Y-91521942D01*
X248048646Y-91521942D02*
X248096265Y-91617180D01*
X248096265Y-91617180D02*
X248143884Y-91664800D01*
X248143884Y-91664800D02*
X248239122Y-91712419D01*
X248239122Y-91712419D02*
X248429598Y-91712419D01*
X248429598Y-91712419D02*
X248524836Y-91664800D01*
X248524836Y-91664800D02*
X248572455Y-91617180D01*
X248572455Y-91617180D02*
X248620074Y-91521942D01*
X248620074Y-91521942D02*
X248620074Y-91331466D01*
X248620074Y-91331466D02*
X248572455Y-91236228D01*
X248572455Y-91236228D02*
X248524836Y-91188609D01*
X248524836Y-91188609D02*
X248429598Y-91140990D01*
X186072419Y-33952306D02*
X186072419Y-34523734D01*
X186072419Y-34238020D02*
X185072419Y-34238020D01*
X185072419Y-34238020D02*
X185215276Y-34333258D01*
X185215276Y-34333258D02*
X185310514Y-34428496D01*
X185310514Y-34428496D02*
X185358133Y-34523734D01*
X255588646Y-75712419D02*
X256207693Y-75712419D01*
X256207693Y-75712419D02*
X255874360Y-76093371D01*
X255874360Y-76093371D02*
X256017217Y-76093371D01*
X256017217Y-76093371D02*
X256112455Y-76140990D01*
X256112455Y-76140990D02*
X256160074Y-76188609D01*
X256160074Y-76188609D02*
X256207693Y-76283847D01*
X256207693Y-76283847D02*
X256207693Y-76521942D01*
X256207693Y-76521942D02*
X256160074Y-76617180D01*
X256160074Y-76617180D02*
X256112455Y-76664800D01*
X256112455Y-76664800D02*
X256017217Y-76712419D01*
X256017217Y-76712419D02*
X255731503Y-76712419D01*
X255731503Y-76712419D02*
X255636265Y-76664800D01*
X255636265Y-76664800D02*
X255588646Y-76617180D01*
X256541027Y-75712419D02*
X257207693Y-75712419D01*
X257207693Y-75712419D02*
X256779122Y-76712419D01*
X256100074Y-55172419D02*
X255623884Y-55172419D01*
X255623884Y-55172419D02*
X255576265Y-55648609D01*
X255576265Y-55648609D02*
X255623884Y-55600990D01*
X255623884Y-55600990D02*
X255719122Y-55553371D01*
X255719122Y-55553371D02*
X255957217Y-55553371D01*
X255957217Y-55553371D02*
X256052455Y-55600990D01*
X256052455Y-55600990D02*
X256100074Y-55648609D01*
X256100074Y-55648609D02*
X256147693Y-55743847D01*
X256147693Y-55743847D02*
X256147693Y-55981942D01*
X256147693Y-55981942D02*
X256100074Y-56077180D01*
X256100074Y-56077180D02*
X256052455Y-56124800D01*
X256052455Y-56124800D02*
X255957217Y-56172419D01*
X255957217Y-56172419D02*
X255719122Y-56172419D01*
X255719122Y-56172419D02*
X255623884Y-56124800D01*
X255623884Y-56124800D02*
X255576265Y-56077180D01*
X256433408Y-55172419D02*
X256766741Y-56172419D01*
X256766741Y-56172419D02*
X257100074Y-55172419D01*
X160552419Y-34952306D02*
X160552419Y-35523734D01*
X160552419Y-35238020D02*
X159552419Y-35238020D01*
X159552419Y-35238020D02*
X159695276Y-35333258D01*
X159695276Y-35333258D02*
X159790514Y-35428496D01*
X159790514Y-35428496D02*
X159838133Y-35523734D01*
X160552419Y-33999925D02*
X160552419Y-34571353D01*
X160552419Y-34285639D02*
X159552419Y-34285639D01*
X159552419Y-34285639D02*
X159695276Y-34380877D01*
X159695276Y-34380877D02*
X159790514Y-34476115D01*
X159790514Y-34476115D02*
X159838133Y-34571353D01*
X172106704Y-118593734D02*
X172106704Y-118117544D01*
X172392419Y-118688972D02*
X171392419Y-118355639D01*
X171392419Y-118355639D02*
X172392419Y-118022306D01*
X171487657Y-117736591D02*
X171440038Y-117688972D01*
X171440038Y-117688972D02*
X171392419Y-117593734D01*
X171392419Y-117593734D02*
X171392419Y-117355639D01*
X171392419Y-117355639D02*
X171440038Y-117260401D01*
X171440038Y-117260401D02*
X171487657Y-117212782D01*
X171487657Y-117212782D02*
X171582895Y-117165163D01*
X171582895Y-117165163D02*
X171678133Y-117165163D01*
X171678133Y-117165163D02*
X171820990Y-117212782D01*
X171820990Y-117212782D02*
X172392419Y-117784210D01*
X172392419Y-117784210D02*
X172392419Y-117165163D01*
X255586265Y-65537657D02*
X255633884Y-65490038D01*
X255633884Y-65490038D02*
X255729122Y-65442419D01*
X255729122Y-65442419D02*
X255967217Y-65442419D01*
X255967217Y-65442419D02*
X256062455Y-65490038D01*
X256062455Y-65490038D02*
X256110074Y-65537657D01*
X256110074Y-65537657D02*
X256157693Y-65632895D01*
X256157693Y-65632895D02*
X256157693Y-65728133D01*
X256157693Y-65728133D02*
X256110074Y-65870990D01*
X256110074Y-65870990D02*
X255538646Y-66442419D01*
X255538646Y-66442419D02*
X256157693Y-66442419D01*
X256633884Y-66442419D02*
X256824360Y-66442419D01*
X256824360Y-66442419D02*
X256919598Y-66394800D01*
X256919598Y-66394800D02*
X256967217Y-66347180D01*
X256967217Y-66347180D02*
X257062455Y-66204323D01*
X257062455Y-66204323D02*
X257110074Y-66013847D01*
X257110074Y-66013847D02*
X257110074Y-65632895D01*
X257110074Y-65632895D02*
X257062455Y-65537657D01*
X257062455Y-65537657D02*
X257014836Y-65490038D01*
X257014836Y-65490038D02*
X256919598Y-65442419D01*
X256919598Y-65442419D02*
X256729122Y-65442419D01*
X256729122Y-65442419D02*
X256633884Y-65490038D01*
X256633884Y-65490038D02*
X256586265Y-65537657D01*
X256586265Y-65537657D02*
X256538646Y-65632895D01*
X256538646Y-65632895D02*
X256538646Y-65870990D01*
X256538646Y-65870990D02*
X256586265Y-65966228D01*
X256586265Y-65966228D02*
X256633884Y-66013847D01*
X256633884Y-66013847D02*
X256729122Y-66061466D01*
X256729122Y-66061466D02*
X256919598Y-66061466D01*
X256919598Y-66061466D02*
X257014836Y-66013847D01*
X257014836Y-66013847D02*
X257062455Y-65966228D01*
X257062455Y-65966228D02*
X257110074Y-65870990D01*
X208077657Y-35083734D02*
X208030038Y-35036115D01*
X208030038Y-35036115D02*
X207982419Y-34940877D01*
X207982419Y-34940877D02*
X207982419Y-34702782D01*
X207982419Y-34702782D02*
X208030038Y-34607544D01*
X208030038Y-34607544D02*
X208077657Y-34559925D01*
X208077657Y-34559925D02*
X208172895Y-34512306D01*
X208172895Y-34512306D02*
X208268133Y-34512306D01*
X208268133Y-34512306D02*
X208410990Y-34559925D01*
X208410990Y-34559925D02*
X208982419Y-35131353D01*
X208982419Y-35131353D02*
X208982419Y-34512306D01*
X208982419Y-33559925D02*
X208982419Y-34131353D01*
X208982419Y-33845639D02*
X207982419Y-33845639D01*
X207982419Y-33845639D02*
X208125276Y-33940877D01*
X208125276Y-33940877D02*
X208220514Y-34036115D01*
X208220514Y-34036115D02*
X208268133Y-34131353D01*
X247016265Y-58067657D02*
X247063884Y-58020038D01*
X247063884Y-58020038D02*
X247159122Y-57972419D01*
X247159122Y-57972419D02*
X247397217Y-57972419D01*
X247397217Y-57972419D02*
X247492455Y-58020038D01*
X247492455Y-58020038D02*
X247540074Y-58067657D01*
X247540074Y-58067657D02*
X247587693Y-58162895D01*
X247587693Y-58162895D02*
X247587693Y-58258133D01*
X247587693Y-58258133D02*
X247540074Y-58400990D01*
X247540074Y-58400990D02*
X246968646Y-58972419D01*
X246968646Y-58972419D02*
X247587693Y-58972419D01*
X247968646Y-58067657D02*
X248016265Y-58020038D01*
X248016265Y-58020038D02*
X248111503Y-57972419D01*
X248111503Y-57972419D02*
X248349598Y-57972419D01*
X248349598Y-57972419D02*
X248444836Y-58020038D01*
X248444836Y-58020038D02*
X248492455Y-58067657D01*
X248492455Y-58067657D02*
X248540074Y-58162895D01*
X248540074Y-58162895D02*
X248540074Y-58258133D01*
X248540074Y-58258133D02*
X248492455Y-58400990D01*
X248492455Y-58400990D02*
X247921027Y-58972419D01*
X247921027Y-58972419D02*
X248540074Y-58972419D01*
X247138646Y-68452419D02*
X247757693Y-68452419D01*
X247757693Y-68452419D02*
X247424360Y-68833371D01*
X247424360Y-68833371D02*
X247567217Y-68833371D01*
X247567217Y-68833371D02*
X247662455Y-68880990D01*
X247662455Y-68880990D02*
X247710074Y-68928609D01*
X247710074Y-68928609D02*
X247757693Y-69023847D01*
X247757693Y-69023847D02*
X247757693Y-69261942D01*
X247757693Y-69261942D02*
X247710074Y-69357180D01*
X247710074Y-69357180D02*
X247662455Y-69404800D01*
X247662455Y-69404800D02*
X247567217Y-69452419D01*
X247567217Y-69452419D02*
X247281503Y-69452419D01*
X247281503Y-69452419D02*
X247186265Y-69404800D01*
X247186265Y-69404800D02*
X247138646Y-69357180D01*
X248376741Y-68452419D02*
X248471979Y-68452419D01*
X248471979Y-68452419D02*
X248567217Y-68500038D01*
X248567217Y-68500038D02*
X248614836Y-68547657D01*
X248614836Y-68547657D02*
X248662455Y-68642895D01*
X248662455Y-68642895D02*
X248710074Y-68833371D01*
X248710074Y-68833371D02*
X248710074Y-69071466D01*
X248710074Y-69071466D02*
X248662455Y-69261942D01*
X248662455Y-69261942D02*
X248614836Y-69357180D01*
X248614836Y-69357180D02*
X248567217Y-69404800D01*
X248567217Y-69404800D02*
X248471979Y-69452419D01*
X248471979Y-69452419D02*
X248376741Y-69452419D01*
X248376741Y-69452419D02*
X248281503Y-69404800D01*
X248281503Y-69404800D02*
X248233884Y-69357180D01*
X248233884Y-69357180D02*
X248186265Y-69261942D01*
X248186265Y-69261942D02*
X248138646Y-69071466D01*
X248138646Y-69071466D02*
X248138646Y-68833371D01*
X248138646Y-68833371D02*
X248186265Y-68642895D01*
X248186265Y-68642895D02*
X248233884Y-68547657D01*
X248233884Y-68547657D02*
X248281503Y-68500038D01*
X248281503Y-68500038D02*
X248376741Y-68452419D01*
X165872419Y-35018496D02*
X165872419Y-34828020D01*
X165872419Y-34828020D02*
X165824800Y-34732782D01*
X165824800Y-34732782D02*
X165777180Y-34685163D01*
X165777180Y-34685163D02*
X165634323Y-34589925D01*
X165634323Y-34589925D02*
X165443847Y-34542306D01*
X165443847Y-34542306D02*
X165062895Y-34542306D01*
X165062895Y-34542306D02*
X164967657Y-34589925D01*
X164967657Y-34589925D02*
X164920038Y-34637544D01*
X164920038Y-34637544D02*
X164872419Y-34732782D01*
X164872419Y-34732782D02*
X164872419Y-34923258D01*
X164872419Y-34923258D02*
X164920038Y-35018496D01*
X164920038Y-35018496D02*
X164967657Y-35066115D01*
X164967657Y-35066115D02*
X165062895Y-35113734D01*
X165062895Y-35113734D02*
X165300990Y-35113734D01*
X165300990Y-35113734D02*
X165396228Y-35066115D01*
X165396228Y-35066115D02*
X165443847Y-35018496D01*
X165443847Y-35018496D02*
X165491466Y-34923258D01*
X165491466Y-34923258D02*
X165491466Y-34732782D01*
X165491466Y-34732782D02*
X165443847Y-34637544D01*
X165443847Y-34637544D02*
X165396228Y-34589925D01*
X165396228Y-34589925D02*
X165300990Y-34542306D01*
X163852419Y-118978972D02*
X164852419Y-118645639D01*
X164852419Y-118645639D02*
X163852419Y-118312306D01*
X164852419Y-117978972D02*
X163852419Y-117978972D01*
X164852419Y-117502782D02*
X163852419Y-117502782D01*
X163852419Y-117502782D02*
X164852419Y-116931354D01*
X164852419Y-116931354D02*
X163852419Y-116931354D01*
X247098646Y-71082419D02*
X247717693Y-71082419D01*
X247717693Y-71082419D02*
X247384360Y-71463371D01*
X247384360Y-71463371D02*
X247527217Y-71463371D01*
X247527217Y-71463371D02*
X247622455Y-71510990D01*
X247622455Y-71510990D02*
X247670074Y-71558609D01*
X247670074Y-71558609D02*
X247717693Y-71653847D01*
X247717693Y-71653847D02*
X247717693Y-71891942D01*
X247717693Y-71891942D02*
X247670074Y-71987180D01*
X247670074Y-71987180D02*
X247622455Y-72034800D01*
X247622455Y-72034800D02*
X247527217Y-72082419D01*
X247527217Y-72082419D02*
X247241503Y-72082419D01*
X247241503Y-72082419D02*
X247146265Y-72034800D01*
X247146265Y-72034800D02*
X247098646Y-71987180D01*
X248098646Y-71177657D02*
X248146265Y-71130038D01*
X248146265Y-71130038D02*
X248241503Y-71082419D01*
X248241503Y-71082419D02*
X248479598Y-71082419D01*
X248479598Y-71082419D02*
X248574836Y-71130038D01*
X248574836Y-71130038D02*
X248622455Y-71177657D01*
X248622455Y-71177657D02*
X248670074Y-71272895D01*
X248670074Y-71272895D02*
X248670074Y-71368133D01*
X248670074Y-71368133D02*
X248622455Y-71510990D01*
X248622455Y-71510990D02*
X248051027Y-72082419D01*
X248051027Y-72082419D02*
X248670074Y-72082419D01*
X247612455Y-81415752D02*
X247612455Y-82082419D01*
X247374360Y-81034800D02*
X247136265Y-81749085D01*
X247136265Y-81749085D02*
X247755312Y-81749085D01*
X248326741Y-81082419D02*
X248421979Y-81082419D01*
X248421979Y-81082419D02*
X248517217Y-81130038D01*
X248517217Y-81130038D02*
X248564836Y-81177657D01*
X248564836Y-81177657D02*
X248612455Y-81272895D01*
X248612455Y-81272895D02*
X248660074Y-81463371D01*
X248660074Y-81463371D02*
X248660074Y-81701466D01*
X248660074Y-81701466D02*
X248612455Y-81891942D01*
X248612455Y-81891942D02*
X248564836Y-81987180D01*
X248564836Y-81987180D02*
X248517217Y-82034800D01*
X248517217Y-82034800D02*
X248421979Y-82082419D01*
X248421979Y-82082419D02*
X248326741Y-82082419D01*
X248326741Y-82082419D02*
X248231503Y-82034800D01*
X248231503Y-82034800D02*
X248183884Y-81987180D01*
X248183884Y-81987180D02*
X248136265Y-81891942D01*
X248136265Y-81891942D02*
X248088646Y-81701466D01*
X248088646Y-81701466D02*
X248088646Y-81463371D01*
X248088646Y-81463371D02*
X248136265Y-81272895D01*
X248136265Y-81272895D02*
X248183884Y-81177657D01*
X248183884Y-81177657D02*
X248231503Y-81130038D01*
X248231503Y-81130038D02*
X248326741Y-81082419D01*
X256157693Y-98600038D02*
X256062455Y-98552419D01*
X256062455Y-98552419D02*
X255919598Y-98552419D01*
X255919598Y-98552419D02*
X255776741Y-98600038D01*
X255776741Y-98600038D02*
X255681503Y-98695276D01*
X255681503Y-98695276D02*
X255633884Y-98790514D01*
X255633884Y-98790514D02*
X255586265Y-98980990D01*
X255586265Y-98980990D02*
X255586265Y-99123847D01*
X255586265Y-99123847D02*
X255633884Y-99314323D01*
X255633884Y-99314323D02*
X255681503Y-99409561D01*
X255681503Y-99409561D02*
X255776741Y-99504800D01*
X255776741Y-99504800D02*
X255919598Y-99552419D01*
X255919598Y-99552419D02*
X256014836Y-99552419D01*
X256014836Y-99552419D02*
X256157693Y-99504800D01*
X256157693Y-99504800D02*
X256205312Y-99457180D01*
X256205312Y-99457180D02*
X256205312Y-99123847D01*
X256205312Y-99123847D02*
X256014836Y-99123847D01*
X256633884Y-99552419D02*
X256633884Y-98552419D01*
X256633884Y-98552419D02*
X257205312Y-99552419D01*
X257205312Y-99552419D02*
X257205312Y-98552419D01*
X257681503Y-99552419D02*
X257681503Y-98552419D01*
X257681503Y-98552419D02*
X257919598Y-98552419D01*
X257919598Y-98552419D02*
X258062455Y-98600038D01*
X258062455Y-98600038D02*
X258157693Y-98695276D01*
X258157693Y-98695276D02*
X258205312Y-98790514D01*
X258205312Y-98790514D02*
X258252931Y-98980990D01*
X258252931Y-98980990D02*
X258252931Y-99123847D01*
X258252931Y-99123847D02*
X258205312Y-99314323D01*
X258205312Y-99314323D02*
X258157693Y-99409561D01*
X258157693Y-99409561D02*
X258062455Y-99504800D01*
X258062455Y-99504800D02*
X257919598Y-99552419D01*
X257919598Y-99552419D02*
X257681503Y-99552419D01*
X205410704Y-119326591D02*
X205448800Y-119364687D01*
X205448800Y-119364687D02*
X205486895Y-119478972D01*
X205486895Y-119478972D02*
X205486895Y-119555163D01*
X205486895Y-119555163D02*
X205448800Y-119669449D01*
X205448800Y-119669449D02*
X205372609Y-119745639D01*
X205372609Y-119745639D02*
X205296419Y-119783734D01*
X205296419Y-119783734D02*
X205144038Y-119821830D01*
X205144038Y-119821830D02*
X205029752Y-119821830D01*
X205029752Y-119821830D02*
X204877371Y-119783734D01*
X204877371Y-119783734D02*
X204801180Y-119745639D01*
X204801180Y-119745639D02*
X204724990Y-119669449D01*
X204724990Y-119669449D02*
X204686895Y-119555163D01*
X204686895Y-119555163D02*
X204686895Y-119478972D01*
X204686895Y-119478972D02*
X204724990Y-119364687D01*
X204724990Y-119364687D02*
X204763085Y-119326591D01*
X205258323Y-119021830D02*
X205258323Y-118640877D01*
X205486895Y-119098020D02*
X204686895Y-118831353D01*
X204686895Y-118831353D02*
X205486895Y-118564687D01*
X205486895Y-118298020D02*
X204686895Y-118298020D01*
X204686895Y-118298020D02*
X205486895Y-117840877D01*
X205486895Y-117840877D02*
X204686895Y-117840877D01*
X204686895Y-117574211D02*
X204686895Y-117117068D01*
X205486895Y-117345640D02*
X204686895Y-117345640D01*
X204686895Y-116926592D02*
X205486895Y-116393258D01*
X204686895Y-116393258D02*
X205486895Y-116926592D01*
D12*
X110927809Y-93550100D02*
X110927809Y-92597719D01*
X111499238Y-93740576D02*
X109499238Y-93073910D01*
X109499238Y-93073910D02*
X111499238Y-92407243D01*
X111499238Y-90597719D02*
X110546857Y-91264386D01*
X111499238Y-91740576D02*
X109499238Y-91740576D01*
X109499238Y-91740576D02*
X109499238Y-90978671D01*
X109499238Y-90978671D02*
X109594476Y-90788195D01*
X109594476Y-90788195D02*
X109689714Y-90692957D01*
X109689714Y-90692957D02*
X109880190Y-90597719D01*
X109880190Y-90597719D02*
X110165904Y-90597719D01*
X110165904Y-90597719D02*
X110356380Y-90692957D01*
X110356380Y-90692957D02*
X110451619Y-90788195D01*
X110451619Y-90788195D02*
X110546857Y-90978671D01*
X110546857Y-90978671D02*
X110546857Y-91740576D01*
X111499238Y-89740576D02*
X109499238Y-89740576D01*
X109499238Y-89740576D02*
X109499238Y-89264386D01*
X109499238Y-89264386D02*
X109594476Y-88978671D01*
X109594476Y-88978671D02*
X109784952Y-88788195D01*
X109784952Y-88788195D02*
X109975428Y-88692957D01*
X109975428Y-88692957D02*
X110356380Y-88597719D01*
X110356380Y-88597719D02*
X110642095Y-88597719D01*
X110642095Y-88597719D02*
X111023047Y-88692957D01*
X111023047Y-88692957D02*
X111213523Y-88788195D01*
X111213523Y-88788195D02*
X111404000Y-88978671D01*
X111404000Y-88978671D02*
X111499238Y-89264386D01*
X111499238Y-89264386D02*
X111499238Y-89740576D01*
X109499238Y-87740576D02*
X111118285Y-87740576D01*
X111118285Y-87740576D02*
X111308761Y-87645338D01*
X111308761Y-87645338D02*
X111404000Y-87550100D01*
X111404000Y-87550100D02*
X111499238Y-87359624D01*
X111499238Y-87359624D02*
X111499238Y-86978671D01*
X111499238Y-86978671D02*
X111404000Y-86788195D01*
X111404000Y-86788195D02*
X111308761Y-86692957D01*
X111308761Y-86692957D02*
X111118285Y-86597719D01*
X111118285Y-86597719D02*
X109499238Y-86597719D01*
X111499238Y-85645338D02*
X109499238Y-85645338D01*
X111499238Y-84692957D02*
X109499238Y-84692957D01*
X109499238Y-84692957D02*
X111499238Y-83550100D01*
X111499238Y-83550100D02*
X109499238Y-83550100D01*
X109499238Y-82216767D02*
X109499238Y-81835814D01*
X109499238Y-81835814D02*
X109594476Y-81645338D01*
X109594476Y-81645338D02*
X109784952Y-81454862D01*
X109784952Y-81454862D02*
X110165904Y-81359624D01*
X110165904Y-81359624D02*
X110832571Y-81359624D01*
X110832571Y-81359624D02*
X111213523Y-81454862D01*
X111213523Y-81454862D02*
X111404000Y-81645338D01*
X111404000Y-81645338D02*
X111499238Y-81835814D01*
X111499238Y-81835814D02*
X111499238Y-82216767D01*
X111499238Y-82216767D02*
X111404000Y-82407243D01*
X111404000Y-82407243D02*
X111213523Y-82597719D01*
X111213523Y-82597719D02*
X110832571Y-82692957D01*
X110832571Y-82692957D02*
X110165904Y-82692957D01*
X110165904Y-82692957D02*
X109784952Y-82597719D01*
X109784952Y-82597719D02*
X109594476Y-82407243D01*
X109594476Y-82407243D02*
X109499238Y-82216767D01*
X109594476Y-77931052D02*
X109499238Y-78121528D01*
X109499238Y-78121528D02*
X109499238Y-78407242D01*
X109499238Y-78407242D02*
X109594476Y-78692957D01*
X109594476Y-78692957D02*
X109784952Y-78883433D01*
X109784952Y-78883433D02*
X109975428Y-78978671D01*
X109975428Y-78978671D02*
X110356380Y-79073909D01*
X110356380Y-79073909D02*
X110642095Y-79073909D01*
X110642095Y-79073909D02*
X111023047Y-78978671D01*
X111023047Y-78978671D02*
X111213523Y-78883433D01*
X111213523Y-78883433D02*
X111404000Y-78692957D01*
X111404000Y-78692957D02*
X111499238Y-78407242D01*
X111499238Y-78407242D02*
X111499238Y-78216766D01*
X111499238Y-78216766D02*
X111404000Y-77931052D01*
X111404000Y-77931052D02*
X111308761Y-77835814D01*
X111308761Y-77835814D02*
X110642095Y-77835814D01*
X110642095Y-77835814D02*
X110642095Y-78216766D01*
X111499238Y-76978671D02*
X109499238Y-76978671D01*
X109594476Y-74978671D02*
X109499238Y-75169147D01*
X109499238Y-75169147D02*
X109499238Y-75454861D01*
X109499238Y-75454861D02*
X109594476Y-75740576D01*
X109594476Y-75740576D02*
X109784952Y-75931052D01*
X109784952Y-75931052D02*
X109975428Y-76026290D01*
X109975428Y-76026290D02*
X110356380Y-76121528D01*
X110356380Y-76121528D02*
X110642095Y-76121528D01*
X110642095Y-76121528D02*
X111023047Y-76026290D01*
X111023047Y-76026290D02*
X111213523Y-75931052D01*
X111213523Y-75931052D02*
X111404000Y-75740576D01*
X111404000Y-75740576D02*
X111499238Y-75454861D01*
X111499238Y-75454861D02*
X111499238Y-75264385D01*
X111499238Y-75264385D02*
X111404000Y-74978671D01*
X111404000Y-74978671D02*
X111308761Y-74883433D01*
X111308761Y-74883433D02*
X110642095Y-74883433D01*
X110642095Y-74883433D02*
X110642095Y-75264385D01*
X110927809Y-74121528D02*
X110927809Y-73169147D01*
X111499238Y-74312004D02*
X109499238Y-73645338D01*
X109499238Y-73645338D02*
X111499238Y-72978671D01*
X111499238Y-69645337D02*
X110546857Y-70312004D01*
X111499238Y-70788194D02*
X109499238Y-70788194D01*
X109499238Y-70788194D02*
X109499238Y-70026289D01*
X109499238Y-70026289D02*
X109594476Y-69835813D01*
X109594476Y-69835813D02*
X109689714Y-69740575D01*
X109689714Y-69740575D02*
X109880190Y-69645337D01*
X109880190Y-69645337D02*
X110165904Y-69645337D01*
X110165904Y-69645337D02*
X110356380Y-69740575D01*
X110356380Y-69740575D02*
X110451619Y-69835813D01*
X110451619Y-69835813D02*
X110546857Y-70026289D01*
X110546857Y-70026289D02*
X110546857Y-70788194D01*
X111499238Y-67740575D02*
X111499238Y-68883432D01*
X111499238Y-68312004D02*
X109499238Y-68312004D01*
X109499238Y-68312004D02*
X109784952Y-68502480D01*
X109784952Y-68502480D02*
X109975428Y-68692956D01*
X109975428Y-68692956D02*
X110070666Y-68883432D01*
X111404000Y-65454860D02*
X111499238Y-65169146D01*
X111499238Y-65169146D02*
X111499238Y-64692955D01*
X111499238Y-64692955D02*
X111404000Y-64502479D01*
X111404000Y-64502479D02*
X111308761Y-64407241D01*
X111308761Y-64407241D02*
X111118285Y-64312003D01*
X111118285Y-64312003D02*
X110927809Y-64312003D01*
X110927809Y-64312003D02*
X110737333Y-64407241D01*
X110737333Y-64407241D02*
X110642095Y-64502479D01*
X110642095Y-64502479D02*
X110546857Y-64692955D01*
X110546857Y-64692955D02*
X110451619Y-65073908D01*
X110451619Y-65073908D02*
X110356380Y-65264384D01*
X110356380Y-65264384D02*
X110261142Y-65359622D01*
X110261142Y-65359622D02*
X110070666Y-65454860D01*
X110070666Y-65454860D02*
X109880190Y-65454860D01*
X109880190Y-65454860D02*
X109689714Y-65359622D01*
X109689714Y-65359622D02*
X109594476Y-65264384D01*
X109594476Y-65264384D02*
X109499238Y-65073908D01*
X109499238Y-65073908D02*
X109499238Y-64597717D01*
X109499238Y-64597717D02*
X109594476Y-64312003D01*
X111499238Y-63454860D02*
X109499238Y-63454860D01*
X110451619Y-63454860D02*
X110451619Y-62312003D01*
X111499238Y-62312003D02*
X109499238Y-62312003D01*
X111499238Y-61359622D02*
X109499238Y-61359622D01*
X110451619Y-60407241D02*
X110451619Y-59740574D01*
X111499238Y-59454860D02*
X111499238Y-60407241D01*
X111499238Y-60407241D02*
X109499238Y-60407241D01*
X109499238Y-60407241D02*
X109499238Y-59454860D01*
X111499238Y-57645336D02*
X111499238Y-58597717D01*
X111499238Y-58597717D02*
X109499238Y-58597717D01*
X111499238Y-56978669D02*
X109499238Y-56978669D01*
X109499238Y-56978669D02*
X109499238Y-56502479D01*
X109499238Y-56502479D02*
X109594476Y-56216764D01*
X109594476Y-56216764D02*
X109784952Y-56026288D01*
X109784952Y-56026288D02*
X109975428Y-55931050D01*
X109975428Y-55931050D02*
X110356380Y-55835812D01*
X110356380Y-55835812D02*
X110642095Y-55835812D01*
X110642095Y-55835812D02*
X111023047Y-55931050D01*
X111023047Y-55931050D02*
X111213523Y-56026288D01*
X111213523Y-56026288D02*
X111404000Y-56216764D01*
X111404000Y-56216764D02*
X111499238Y-56502479D01*
X111499238Y-56502479D02*
X111499238Y-56978669D01*
X109499238Y-53740573D02*
X111499238Y-53073907D01*
X111499238Y-53073907D02*
X109499238Y-52407240D01*
X109499238Y-51359621D02*
X109499238Y-51169144D01*
X109499238Y-51169144D02*
X109594476Y-50978668D01*
X109594476Y-50978668D02*
X109689714Y-50883430D01*
X109689714Y-50883430D02*
X109880190Y-50788192D01*
X109880190Y-50788192D02*
X110261142Y-50692954D01*
X110261142Y-50692954D02*
X110737333Y-50692954D01*
X110737333Y-50692954D02*
X111118285Y-50788192D01*
X111118285Y-50788192D02*
X111308761Y-50883430D01*
X111308761Y-50883430D02*
X111404000Y-50978668D01*
X111404000Y-50978668D02*
X111499238Y-51169144D01*
X111499238Y-51169144D02*
X111499238Y-51359621D01*
X111499238Y-51359621D02*
X111404000Y-51550097D01*
X111404000Y-51550097D02*
X111308761Y-51645335D01*
X111308761Y-51645335D02*
X111118285Y-51740573D01*
X111118285Y-51740573D02*
X110737333Y-51835811D01*
X110737333Y-51835811D02*
X110261142Y-51835811D01*
X110261142Y-51835811D02*
X109880190Y-51740573D01*
X109880190Y-51740573D02*
X109689714Y-51645335D01*
X109689714Y-51645335D02*
X109594476Y-51550097D01*
X109594476Y-51550097D02*
X109499238Y-51359621D01*
X111308761Y-49835811D02*
X111404000Y-49740573D01*
X111404000Y-49740573D02*
X111499238Y-49835811D01*
X111499238Y-49835811D02*
X111404000Y-49931049D01*
X111404000Y-49931049D02*
X111308761Y-49835811D01*
X111308761Y-49835811D02*
X111499238Y-49835811D01*
X111499238Y-47835811D02*
X111499238Y-48978668D01*
X111499238Y-48407240D02*
X109499238Y-48407240D01*
X109499238Y-48407240D02*
X109784952Y-48597716D01*
X109784952Y-48597716D02*
X109975428Y-48788192D01*
X109975428Y-48788192D02*
X110070666Y-48978668D01*
D13*
%TO.C,U3*%
X171205000Y-46710000D02*
X171205000Y-44510000D01*
X171205000Y-46710000D02*
X171205000Y-48910000D01*
X177975000Y-46710000D02*
X177975000Y-44510000D01*
X177975000Y-46710000D02*
X177975000Y-48910000D01*
X171905000Y-50900000D02*
X171425000Y-50900000D01*
X171665000Y-50570000D01*
X171905000Y-50900000D01*
G36*
X171905000Y-50900000D02*
G01*
X171425000Y-50900000D01*
X171665000Y-50570000D01*
X171905000Y-50900000D01*
G37*
%TO.C,R5*%
X190322742Y-46497500D02*
X190797258Y-46497500D01*
X190322742Y-47542500D02*
X190797258Y-47542500D01*
%TO.C,C14*%
X190645580Y-43340000D02*
X190364420Y-43340000D01*
X190645580Y-44360000D02*
X190364420Y-44360000D01*
%TO.C,C12*%
X194885580Y-89930000D02*
X194604420Y-89930000D01*
X194885580Y-90950000D02*
X194604420Y-90950000D01*
%TO.C,C19*%
X230014420Y-69120000D02*
X230295580Y-69120000D01*
X230014420Y-70140000D02*
X230295580Y-70140000D01*
%TO.C,J4*%
X165545000Y-52040000D02*
X165545000Y-54700000D01*
X183385000Y-52040000D02*
X165545000Y-52040000D01*
X183385000Y-52040000D02*
X183385000Y-54700000D01*
X183385000Y-54700000D02*
X165545000Y-54700000D01*
X184655000Y-52040000D02*
X185985000Y-52040000D01*
X185985000Y-52040000D02*
X185985000Y-53370000D01*
%TO.C,U7*%
X233157500Y-95700000D02*
X230957500Y-95700000D01*
X233157500Y-95700000D02*
X235357500Y-95700000D01*
X233157500Y-102470000D02*
X230957500Y-102470000D01*
X233157500Y-102470000D02*
X235357500Y-102470000D01*
X229297500Y-96160000D02*
X228967500Y-96400000D01*
X228967500Y-95920000D01*
X229297500Y-96160000D01*
G36*
X229297500Y-96160000D02*
G01*
X228967500Y-96400000D01*
X228967500Y-95920000D01*
X229297500Y-96160000D01*
G37*
%TO.C,R3*%
X169172742Y-46847500D02*
X169647258Y-46847500D01*
X169172742Y-47892500D02*
X169647258Y-47892500D01*
%TO.C,U2*%
X184815000Y-85575000D02*
X182615000Y-85575000D01*
X184815000Y-85575000D02*
X187015000Y-85575000D01*
X184815000Y-92345000D02*
X182615000Y-92345000D01*
X184815000Y-92345000D02*
X187015000Y-92345000D01*
X180955000Y-86035000D02*
X180625000Y-86275000D01*
X180625000Y-85795000D01*
X180955000Y-86035000D01*
G36*
X180955000Y-86035000D02*
G01*
X180625000Y-86275000D01*
X180625000Y-85795000D01*
X180955000Y-86035000D01*
G37*
%TO.C,U8*%
X232502500Y-70600000D02*
X230302500Y-70600000D01*
X232502500Y-70600000D02*
X234702500Y-70600000D01*
X232502500Y-77370000D02*
X230302500Y-77370000D01*
X232502500Y-77370000D02*
X234702500Y-77370000D01*
X228642500Y-71060000D02*
X228312500Y-71300000D01*
X228312500Y-70820000D01*
X228642500Y-71060000D01*
G36*
X228642500Y-71060000D02*
G01*
X228312500Y-71300000D01*
X228312500Y-70820000D01*
X228642500Y-71060000D01*
G37*
%TO.C,C17*%
X234849420Y-57370000D02*
X235130580Y-57370000D01*
X234849420Y-58390000D02*
X235130580Y-58390000D01*
%TO.C,J6*%
X193300000Y-102840000D02*
X193300000Y-101510000D01*
X194630000Y-102840000D02*
X193300000Y-102840000D01*
X195900000Y-100180000D02*
X213740000Y-100180000D01*
X195900000Y-102840000D02*
X195900000Y-100180000D01*
X195900000Y-102840000D02*
X213740000Y-102840000D01*
X213740000Y-102840000D02*
X213740000Y-100180000D01*
%TO.C,C24*%
X230275580Y-80800000D02*
X229994420Y-80800000D01*
X230275580Y-81820000D02*
X229994420Y-81820000D01*
%TO.C,U9*%
X232740000Y-82265000D02*
X230540000Y-82265000D01*
X232740000Y-82265000D02*
X234940000Y-82265000D01*
X232740000Y-89035000D02*
X230540000Y-89035000D01*
X232740000Y-89035000D02*
X234940000Y-89035000D01*
X228880000Y-82725000D02*
X228550000Y-82965000D01*
X228550000Y-82485000D01*
X228880000Y-82725000D01*
G36*
X228880000Y-82725000D02*
G01*
X228550000Y-82965000D01*
X228550000Y-82485000D01*
X228880000Y-82725000D01*
G37*
%TO.C,C8*%
X194750580Y-86430000D02*
X194469420Y-86430000D01*
X194750580Y-87450000D02*
X194469420Y-87450000D01*
%TO.C,U5*%
X192395000Y-45690000D02*
X192395000Y-43490000D01*
X192395000Y-45690000D02*
X192395000Y-47890000D01*
X199165000Y-45690000D02*
X199165000Y-43490000D01*
X199165000Y-45690000D02*
X199165000Y-47890000D01*
X193095000Y-49880000D02*
X192615000Y-49880000D01*
X192855000Y-49550000D01*
X193095000Y-49880000D01*
G36*
X193095000Y-49880000D02*
G01*
X192615000Y-49880000D01*
X192855000Y-49550000D01*
X193095000Y-49880000D01*
G37*
%TO.C,C16*%
X230460580Y-57380000D02*
X230179420Y-57380000D01*
X230460580Y-58400000D02*
X230179420Y-58400000D01*
%TO.C,U6*%
X232587500Y-58825000D02*
X230387500Y-58825000D01*
X232587500Y-58825000D02*
X234787500Y-58825000D01*
X232587500Y-65595000D02*
X230387500Y-65595000D01*
X232587500Y-65595000D02*
X234787500Y-65595000D01*
X228727500Y-59285000D02*
X228397500Y-59525000D01*
X228397500Y-59045000D01*
X228727500Y-59285000D01*
G36*
X228727500Y-59285000D02*
G01*
X228397500Y-59525000D01*
X228397500Y-59045000D01*
X228727500Y-59285000D01*
G37*
%TO.C,C22*%
X235805580Y-94180000D02*
X235524420Y-94180000D01*
X235805580Y-95200000D02*
X235524420Y-95200000D01*
%TO.C,J7*%
X187800000Y-54750000D02*
X187800000Y-53420000D01*
X189130000Y-54750000D02*
X187800000Y-54750000D01*
X190400000Y-52090000D02*
X208240000Y-52090000D01*
X190400000Y-54750000D02*
X190400000Y-52090000D01*
X190400000Y-54750000D02*
X208240000Y-54750000D01*
X208240000Y-54750000D02*
X208240000Y-52090000D01*
%TO.C,C3*%
X147110580Y-43480000D02*
X146829420Y-43480000D01*
X147110580Y-44500000D02*
X146829420Y-44500000D01*
%TO.C,C21*%
X234684420Y-69120000D02*
X234965580Y-69120000D01*
X234684420Y-70140000D02*
X234965580Y-70140000D01*
%TO.C,R6*%
X230452258Y-66017500D02*
X229977742Y-66017500D01*
X230452258Y-67062500D02*
X229977742Y-67062500D01*
%TO.C,U4*%
X200360000Y-85755000D02*
X198160000Y-85755000D01*
X200360000Y-85755000D02*
X202560000Y-85755000D01*
X200360000Y-92525000D02*
X198160000Y-92525000D01*
X200360000Y-92525000D02*
X202560000Y-92525000D01*
X196500000Y-86215000D02*
X196170000Y-86455000D01*
X196170000Y-85975000D01*
X196500000Y-86215000D01*
G36*
X196500000Y-86215000D02*
G01*
X196170000Y-86455000D01*
X196170000Y-85975000D01*
X196500000Y-86215000D01*
G37*
%TO.C,R8*%
X231042258Y-102877500D02*
X230567742Y-102877500D01*
X231042258Y-103922500D02*
X230567742Y-103922500D01*
%TO.C,R4*%
X194517742Y-91477500D02*
X194992258Y-91477500D01*
X194517742Y-92522500D02*
X194992258Y-92522500D01*
%TO.C,R2*%
X179112742Y-91177500D02*
X179587258Y-91177500D01*
X179112742Y-92222500D02*
X179587258Y-92222500D01*
%TO.C,C27*%
X230505580Y-91210000D02*
X230224420Y-91210000D01*
X230505580Y-92230000D02*
X230224420Y-92230000D01*
%TO.C,R1*%
X146747742Y-46607500D02*
X147222258Y-46607500D01*
X146747742Y-47652500D02*
X147222258Y-47652500D01*
%TO.C,C26*%
X235315580Y-80750000D02*
X235034420Y-80750000D01*
X235315580Y-81770000D02*
X235034420Y-81770000D01*
%TO.C,C18*%
X230335580Y-67590000D02*
X230054420Y-67590000D01*
X230335580Y-68610000D02*
X230054420Y-68610000D01*
%TO.C,C20*%
X230224420Y-92800000D02*
X230505580Y-92800000D01*
X230224420Y-93820000D02*
X230505580Y-93820000D01*
%TO.C,C23*%
X230664420Y-104460000D02*
X230945580Y-104460000D01*
X230664420Y-105480000D02*
X230945580Y-105480000D01*
%TO.C,J9*%
X213560000Y-51850000D02*
X214890000Y-51850000D01*
X213560000Y-53180000D02*
X213560000Y-51850000D01*
X213560000Y-54450000D02*
X213560000Y-97690000D01*
X213560000Y-54450000D02*
X216160000Y-54450000D01*
X213560000Y-97690000D02*
X218760000Y-97690000D01*
X216160000Y-51850000D02*
X218760000Y-51850000D01*
X216160000Y-54450000D02*
X216160000Y-51850000D01*
X218760000Y-51850000D02*
X218760000Y-97690000D01*
%TO.C,J1*%
X147780000Y-102840000D02*
X147780000Y-101510000D01*
X149110000Y-102840000D02*
X147780000Y-102840000D01*
X150380000Y-100180000D02*
X168220000Y-100180000D01*
X150380000Y-102840000D02*
X150380000Y-100180000D01*
X150380000Y-102840000D02*
X168220000Y-102840000D01*
X168220000Y-102840000D02*
X168220000Y-100180000D01*
%TO.C,J5*%
X145310000Y-116000000D02*
X145310000Y-114670000D01*
X146640000Y-116000000D02*
X145310000Y-116000000D01*
X147910000Y-113340000D02*
X211470000Y-113340000D01*
X147910000Y-116000000D02*
X147910000Y-113340000D01*
X147910000Y-116000000D02*
X211470000Y-116000000D01*
X211470000Y-116000000D02*
X211470000Y-113340000D01*
%TO.C,C2*%
X179265580Y-86220000D02*
X178984420Y-86220000D01*
X179265580Y-87240000D02*
X178984420Y-87240000D01*
%TO.C,J3*%
X170520000Y-102840000D02*
X170520000Y-101510000D01*
X171850000Y-102840000D02*
X170520000Y-102840000D01*
X173120000Y-100180000D02*
X190960000Y-100180000D01*
X173120000Y-102840000D02*
X173120000Y-100180000D01*
X173120000Y-102840000D02*
X190960000Y-102840000D01*
X190960000Y-102840000D02*
X190960000Y-100180000D01*
%TO.C,R7*%
X230362258Y-77747500D02*
X229887742Y-77747500D01*
X230362258Y-78792500D02*
X229887742Y-78792500D01*
%TO.C,R9*%
X230592258Y-89577500D02*
X230117742Y-89577500D01*
X230592258Y-90622500D02*
X230117742Y-90622500D01*
%TO.C,C1*%
X146824420Y-48230000D02*
X147105580Y-48230000D01*
X146824420Y-49250000D02*
X147105580Y-49250000D01*
%TO.C,C6*%
X179445580Y-89430000D02*
X179164420Y-89430000D01*
X179445580Y-90450000D02*
X179164420Y-90450000D01*
%TO.C,C10*%
X205964420Y-86340000D02*
X206245580Y-86340000D01*
X205964420Y-87360000D02*
X206245580Y-87360000D01*
%TO.C,J8*%
X143690000Y-38660000D02*
X143690000Y-37330000D01*
X145020000Y-38660000D02*
X143690000Y-38660000D01*
X146290000Y-36000000D02*
X209850000Y-36000000D01*
X146290000Y-38660000D02*
X146290000Y-36000000D01*
X146290000Y-38660000D02*
X209850000Y-38660000D01*
X209850000Y-38660000D02*
X209850000Y-36000000D01*
%TO.C,J2*%
X138315000Y-54670000D02*
X138315000Y-53340000D01*
X139645000Y-54670000D02*
X138315000Y-54670000D01*
X140915000Y-52010000D02*
X163835000Y-52010000D01*
X140915000Y-54670000D02*
X140915000Y-52010000D01*
X140915000Y-54670000D02*
X163835000Y-54670000D01*
X163835000Y-54670000D02*
X163835000Y-52010000D01*
%TO.C,J10*%
X249400000Y-54670000D02*
X250730000Y-54670000D01*
X249400000Y-56000000D02*
X249400000Y-54670000D01*
X249400000Y-57270000D02*
X249400000Y-100510000D01*
X249400000Y-57270000D02*
X252000000Y-57270000D01*
X249400000Y-100510000D02*
X254600000Y-100510000D01*
X252000000Y-54670000D02*
X254600000Y-54670000D01*
X252000000Y-57270000D02*
X252000000Y-54670000D01*
X254600000Y-54670000D02*
X254600000Y-100510000D01*
%TO.C,C4*%
X187310580Y-84060000D02*
X187029420Y-84060000D01*
X187310580Y-85080000D02*
X187029420Y-85080000D01*
%TO.C,U1*%
X148900000Y-45777500D02*
X148900000Y-43577500D01*
X148900000Y-45777500D02*
X148900000Y-47977500D01*
X155670000Y-45777500D02*
X155670000Y-43577500D01*
X155670000Y-45777500D02*
X155670000Y-47977500D01*
X149600000Y-49967500D02*
X149120000Y-49967500D01*
X149360000Y-49637500D01*
X149600000Y-49967500D01*
G36*
X149600000Y-49967500D02*
G01*
X149120000Y-49967500D01*
X149360000Y-49637500D01*
X149600000Y-49967500D01*
G37*
%TO.C,C11*%
X169304420Y-45180000D02*
X169585580Y-45180000D01*
X169304420Y-46200000D02*
X169585580Y-46200000D01*
%TO.C,C25*%
X229994420Y-79280000D02*
X230275580Y-79280000D01*
X229994420Y-80300000D02*
X230275580Y-80300000D01*
%TO.C,C9*%
X169605580Y-43520000D02*
X169324420Y-43520000D01*
X169605580Y-44540000D02*
X169324420Y-44540000D01*
%TO.C,C13*%
X190675580Y-48120000D02*
X190394420Y-48120000D01*
X190675580Y-49140000D02*
X190394420Y-49140000D01*
%TO.C,C15*%
X190655580Y-44920000D02*
X190374420Y-44920000D01*
X190655580Y-45940000D02*
X190374420Y-45940000D01*
%TO.C,C7*%
X169224420Y-48530000D02*
X169505580Y-48530000D01*
X169224420Y-49550000D02*
X169505580Y-49550000D01*
%TO.C,C5*%
X146824420Y-45070000D02*
X147105580Y-45070000D01*
X146824420Y-46090000D02*
X147105580Y-46090000D01*
%TD*%
M02*
