%TF.GenerationSoftware,KiCad,Pcbnew,9.0.0*%
%TF.CreationDate,2026-01-22T12:53:31+03:00*%
%TF.ProjectId,AlexJ_bz_ArduinoGigaShield,416c6578-4a5f-4627-9a5f-41726475696e,rev?*%
%TF.SameCoordinates,Original*%
%TF.FileFunction,Paste,Top*%
%TF.FilePolarity,Positive*%
%FSLAX46Y46*%
G04 Gerber Fmt 4.6, Leading zero omitted, Abs format (unit mm)*
G04 Created by KiCad (PCBNEW 9.0.0) date 2026-01-22 12:53:31*
%MOMM*%
%LPD*%
G01*
G04 APERTURE LIST*
G04 Aperture macros list*
%AMRoundRect*
0 Rectangle with rounded corners*
0 $1 Rounding radius*
0 $2 $3 $4 $5 $6 $7 $8 $9 X,Y pos of 4 corners*
0 Add a 4 corners polygon primitive as box body*
4,1,4,$2,$3,$4,$5,$6,$7,$8,$9,$2,$3,0*
0 Add four circle primitives for the rounded corners*
1,1,$1+$1,$2,$3*
1,1,$1+$1,$4,$5*
1,1,$1+$1,$6,$7*
1,1,$1+$1,$8,$9*
0 Add four rect primitives between the rounded corners*
20,1,$1+$1,$2,$3,$4,$5,0*
20,1,$1+$1,$4,$5,$6,$7,0*
20,1,$1+$1,$6,$7,$8,$9,0*
20,1,$1+$1,$8,$9,$2,$3,0*%
G04 Aperture macros list end*
%ADD10RoundRect,0.100000X0.100000X-0.637500X0.100000X0.637500X-0.100000X0.637500X-0.100000X-0.637500X0*%
%ADD11RoundRect,0.200000X-0.200000X-0.275000X0.200000X-0.275000X0.200000X0.275000X-0.200000X0.275000X0*%
%ADD12RoundRect,0.225000X0.225000X0.250000X-0.225000X0.250000X-0.225000X-0.250000X0.225000X-0.250000X0*%
%ADD13RoundRect,0.225000X-0.225000X-0.250000X0.225000X-0.250000X0.225000X0.250000X-0.225000X0.250000X0*%
%ADD14RoundRect,0.100000X-0.637500X-0.100000X0.637500X-0.100000X0.637500X0.100000X-0.637500X0.100000X0*%
%ADD15RoundRect,0.200000X0.200000X0.275000X-0.200000X0.275000X-0.200000X-0.275000X0.200000X-0.275000X0*%
G04 APERTURE END LIST*
D10*
%TO.C,U3*%
X171665000Y-49572500D03*
X172315000Y-49572500D03*
X172965000Y-49572500D03*
X173615000Y-49572500D03*
X174265000Y-49572500D03*
X174915000Y-49572500D03*
X175565000Y-49572500D03*
X176215000Y-49572500D03*
X176865000Y-49572500D03*
X177515000Y-49572500D03*
X177515000Y-43847500D03*
X176865000Y-43847500D03*
X176215000Y-43847500D03*
X175565000Y-43847500D03*
X174915000Y-43847500D03*
X174265000Y-43847500D03*
X173615000Y-43847500D03*
X172965000Y-43847500D03*
X172315000Y-43847500D03*
X171665000Y-43847500D03*
%TD*%
D11*
%TO.C,R5*%
X189735000Y-47020000D03*
X191385000Y-47020000D03*
%TD*%
D12*
%TO.C,C14*%
X191280000Y-43850000D03*
X189730000Y-43850000D03*
%TD*%
%TO.C,C12*%
X195520000Y-90440000D03*
X193970000Y-90440000D03*
%TD*%
D13*
%TO.C,C19*%
X229380000Y-69630000D03*
X230930000Y-69630000D03*
%TD*%
D14*
%TO.C,U7*%
X230295000Y-96160000D03*
X230295000Y-96810000D03*
X230295000Y-97460000D03*
X230295000Y-98110000D03*
X230295000Y-98760000D03*
X230295000Y-99410000D03*
X230295000Y-100060000D03*
X230295000Y-100710000D03*
X230295000Y-101360000D03*
X230295000Y-102010000D03*
X236020000Y-102010000D03*
X236020000Y-101360000D03*
X236020000Y-100710000D03*
X236020000Y-100060000D03*
X236020000Y-99410000D03*
X236020000Y-98760000D03*
X236020000Y-98110000D03*
X236020000Y-97460000D03*
X236020000Y-96810000D03*
X236020000Y-96160000D03*
%TD*%
D11*
%TO.C,R3*%
X168585000Y-47370000D03*
X170235000Y-47370000D03*
%TD*%
D14*
%TO.C,U2*%
X181952500Y-86035000D03*
X181952500Y-86685000D03*
X181952500Y-87335000D03*
X181952500Y-87985000D03*
X181952500Y-88635000D03*
X181952500Y-89285000D03*
X181952500Y-89935000D03*
X181952500Y-90585000D03*
X181952500Y-91235000D03*
X181952500Y-91885000D03*
X187677500Y-91885000D03*
X187677500Y-91235000D03*
X187677500Y-90585000D03*
X187677500Y-89935000D03*
X187677500Y-89285000D03*
X187677500Y-88635000D03*
X187677500Y-87985000D03*
X187677500Y-87335000D03*
X187677500Y-86685000D03*
X187677500Y-86035000D03*
%TD*%
%TO.C,U8*%
X229640000Y-71060000D03*
X229640000Y-71710000D03*
X229640000Y-72360000D03*
X229640000Y-73010000D03*
X229640000Y-73660000D03*
X229640000Y-74310000D03*
X229640000Y-74960000D03*
X229640000Y-75610000D03*
X229640000Y-76260000D03*
X229640000Y-76910000D03*
X235365000Y-76910000D03*
X235365000Y-76260000D03*
X235365000Y-75610000D03*
X235365000Y-74960000D03*
X235365000Y-74310000D03*
X235365000Y-73660000D03*
X235365000Y-73010000D03*
X235365000Y-72360000D03*
X235365000Y-71710000D03*
X235365000Y-71060000D03*
%TD*%
D13*
%TO.C,C17*%
X234215000Y-57880000D03*
X235765000Y-57880000D03*
%TD*%
D12*
%TO.C,C24*%
X230910000Y-81310000D03*
X229360000Y-81310000D03*
%TD*%
D14*
%TO.C,U9*%
X229877500Y-82725000D03*
X229877500Y-83375000D03*
X229877500Y-84025000D03*
X229877500Y-84675000D03*
X229877500Y-85325000D03*
X229877500Y-85975000D03*
X229877500Y-86625000D03*
X229877500Y-87275000D03*
X229877500Y-87925000D03*
X229877500Y-88575000D03*
X235602500Y-88575000D03*
X235602500Y-87925000D03*
X235602500Y-87275000D03*
X235602500Y-86625000D03*
X235602500Y-85975000D03*
X235602500Y-85325000D03*
X235602500Y-84675000D03*
X235602500Y-84025000D03*
X235602500Y-83375000D03*
X235602500Y-82725000D03*
%TD*%
D12*
%TO.C,C8*%
X195385000Y-86940000D03*
X193835000Y-86940000D03*
%TD*%
D10*
%TO.C,U5*%
X192855000Y-48552500D03*
X193505000Y-48552500D03*
X194155000Y-48552500D03*
X194805000Y-48552500D03*
X195455000Y-48552500D03*
X196105000Y-48552500D03*
X196755000Y-48552500D03*
X197405000Y-48552500D03*
X198055000Y-48552500D03*
X198705000Y-48552500D03*
X198705000Y-42827500D03*
X198055000Y-42827500D03*
X197405000Y-42827500D03*
X196755000Y-42827500D03*
X196105000Y-42827500D03*
X195455000Y-42827500D03*
X194805000Y-42827500D03*
X194155000Y-42827500D03*
X193505000Y-42827500D03*
X192855000Y-42827500D03*
%TD*%
D12*
%TO.C,C16*%
X231095000Y-57890000D03*
X229545000Y-57890000D03*
%TD*%
D14*
%TO.C,U6*%
X229725000Y-59285000D03*
X229725000Y-59935000D03*
X229725000Y-60585000D03*
X229725000Y-61235000D03*
X229725000Y-61885000D03*
X229725000Y-62535000D03*
X229725000Y-63185000D03*
X229725000Y-63835000D03*
X229725000Y-64485000D03*
X229725000Y-65135000D03*
X235450000Y-65135000D03*
X235450000Y-64485000D03*
X235450000Y-63835000D03*
X235450000Y-63185000D03*
X235450000Y-62535000D03*
X235450000Y-61885000D03*
X235450000Y-61235000D03*
X235450000Y-60585000D03*
X235450000Y-59935000D03*
X235450000Y-59285000D03*
%TD*%
D12*
%TO.C,C22*%
X236440000Y-94690000D03*
X234890000Y-94690000D03*
%TD*%
%TO.C,C3*%
X147745000Y-43990000D03*
X146195000Y-43990000D03*
%TD*%
D13*
%TO.C,C21*%
X234050000Y-69630000D03*
X235600000Y-69630000D03*
%TD*%
D15*
%TO.C,R6*%
X231040000Y-66540000D03*
X229390000Y-66540000D03*
%TD*%
D14*
%TO.C,U4*%
X197497500Y-86215000D03*
X197497500Y-86865000D03*
X197497500Y-87515000D03*
X197497500Y-88165000D03*
X197497500Y-88815000D03*
X197497500Y-89465000D03*
X197497500Y-90115000D03*
X197497500Y-90765000D03*
X197497500Y-91415000D03*
X197497500Y-92065000D03*
X203222500Y-92065000D03*
X203222500Y-91415000D03*
X203222500Y-90765000D03*
X203222500Y-90115000D03*
X203222500Y-89465000D03*
X203222500Y-88815000D03*
X203222500Y-88165000D03*
X203222500Y-87515000D03*
X203222500Y-86865000D03*
X203222500Y-86215000D03*
%TD*%
D15*
%TO.C,R8*%
X231630000Y-103400000D03*
X229980000Y-103400000D03*
%TD*%
D11*
%TO.C,R4*%
X193930000Y-92000000D03*
X195580000Y-92000000D03*
%TD*%
%TO.C,R2*%
X178525000Y-91700000D03*
X180175000Y-91700000D03*
%TD*%
D12*
%TO.C,C27*%
X231140000Y-91720000D03*
X229590000Y-91720000D03*
%TD*%
D11*
%TO.C,R1*%
X146160000Y-47130000D03*
X147810000Y-47130000D03*
%TD*%
D12*
%TO.C,C26*%
X235950000Y-81260000D03*
X234400000Y-81260000D03*
%TD*%
%TO.C,C18*%
X230970000Y-68100000D03*
X229420000Y-68100000D03*
%TD*%
D13*
%TO.C,C20*%
X229590000Y-93310000D03*
X231140000Y-93310000D03*
%TD*%
%TO.C,C23*%
X230030000Y-104970000D03*
X231580000Y-104970000D03*
%TD*%
D12*
%TO.C,C2*%
X179900000Y-86730000D03*
X178350000Y-86730000D03*
%TD*%
D15*
%TO.C,R7*%
X230950000Y-78270000D03*
X229300000Y-78270000D03*
%TD*%
%TO.C,R9*%
X231180000Y-90100000D03*
X229530000Y-90100000D03*
%TD*%
D13*
%TO.C,C1*%
X146190000Y-48740000D03*
X147740000Y-48740000D03*
%TD*%
D12*
%TO.C,C6*%
X180080000Y-89940000D03*
X178530000Y-89940000D03*
%TD*%
D13*
%TO.C,C10*%
X205330000Y-86850000D03*
X206880000Y-86850000D03*
%TD*%
D12*
%TO.C,C4*%
X187945000Y-84570000D03*
X186395000Y-84570000D03*
%TD*%
D10*
%TO.C,U1*%
X149360000Y-48640000D03*
X150010000Y-48640000D03*
X150660000Y-48640000D03*
X151310000Y-48640000D03*
X151960000Y-48640000D03*
X152610000Y-48640000D03*
X153260000Y-48640000D03*
X153910000Y-48640000D03*
X154560000Y-48640000D03*
X155210000Y-48640000D03*
X155210000Y-42915000D03*
X154560000Y-42915000D03*
X153910000Y-42915000D03*
X153260000Y-42915000D03*
X152610000Y-42915000D03*
X151960000Y-42915000D03*
X151310000Y-42915000D03*
X150660000Y-42915000D03*
X150010000Y-42915000D03*
X149360000Y-42915000D03*
%TD*%
D13*
%TO.C,C11*%
X168670000Y-45690000D03*
X170220000Y-45690000D03*
%TD*%
%TO.C,C25*%
X229360000Y-79790000D03*
X230910000Y-79790000D03*
%TD*%
D12*
%TO.C,C9*%
X170240000Y-44030000D03*
X168690000Y-44030000D03*
%TD*%
%TO.C,C13*%
X191310000Y-48630000D03*
X189760000Y-48630000D03*
%TD*%
%TO.C,C15*%
X191290000Y-45430000D03*
X189740000Y-45430000D03*
%TD*%
D13*
%TO.C,C7*%
X168590000Y-49040000D03*
X170140000Y-49040000D03*
%TD*%
%TO.C,C5*%
X146190000Y-45580000D03*
X147740000Y-45580000D03*
%TD*%
M02*
