M48
; DRILL file {KiCad 9.0.0} date 2026-01-22T12:53:34+0300
; FORMAT={-:-/ absolute / inch / decimal}
; #@! TF.CreationDate,2026-01-22T12:53:34+03:00
; #@! TF.GenerationSoftware,Kicad,Pcbnew,9.0.0
; #@! TF.FileFunction,Plated,1,2,PTH
FMAT,2
INCH
; #@! TA.AperFunction,Plated,PTH,ViaDrill
T1C0.0118
; #@! TA.AperFunction,Plated,PTH,ComponentDrill
T2C0.0394
%
G90
G05
T1
X5.672Y-1.8106
X5.8012Y-1.6634
X5.8941Y-1.8083
X6.198Y-3.2925
X6.4028Y-1.7492
X6.452Y-1.9311
X6.5024Y-1.7504
X6.5236Y-1.9327
X6.576Y-1.8335
X6.5815Y-1.9299
X6.5894Y-1.7894
X6.7173Y-1.6669
X6.7614Y-3.2965
X6.7957Y-1.8331
X7.0323Y-3.6575
X7.0469Y-3.2933
X7.1094Y-3.3429
X7.1165Y-3.4509
X7.2157Y-3.4646
X7.2217Y-3.5644
X7.2298Y-3.5161
X7.2464Y-3.4718
X7.2469Y-1.7311
X7.2563Y-3.5862
X7.2661Y-3.5378
X7.3343Y-1.7484
X7.339Y-1.9244
X7.3398Y-1.8382
X7.3469Y-4.3929
X7.3827Y-1.7988
X7.3843Y-3.8224
X7.4102Y-1.7504
X7.4169Y-3.865
X7.4465Y-3.5683
X7.4575Y-3.5157
X7.4768Y-3.5488
X7.4909Y-3.4898
X7.5043Y-3.7083
X7.5083Y-3.7764
X7.5913Y-3.622
X7.6004Y-3.7276
X7.6043Y-3.8071
X7.6224Y-1.7988
X7.6846Y-3.376
X7.8248Y-3.4717
X7.8276Y-3.5748
X7.8303Y-3.5217
X7.8366Y-3.4413
X7.8417Y-3.3953
X7.8555Y-3.4957
X7.8555Y-3.5472
X7.8579Y-3.602
X7.9941Y-3.6787
X7.9941Y-3.7902
X7.9953Y-3.7354
X8.2146Y-3.6846
X8.2193Y-3.7465
X8.2252Y-3.8043
X8.2614Y-4.1307
X8.2661Y-3.4717
X8.3626Y-3.7142
X8.9366Y-2.8028
X8.9583Y-2.7413
X8.9632Y-3.6817
X8.9764Y-3.922
X8.9906Y-3.9614
X9.0098Y-3.9055
X9.0992Y-2.9264
X9.1008Y-2.9787
X9.1063Y-2.8764
X9.1193Y-3.8402
X9.1264Y-2.952
X9.1291Y-3.0091
X9.1303Y-3.9969
X9.1354Y-2.9
X9.1382Y-2.8559
X9.1434Y-3.8647
X9.15Y-3.8976
X9.1622Y-4.0815
X9.1787Y-2.6638
X9.1846Y-3.3307
X9.1874Y-3.3811
X9.1933Y-3.4343
X9.2157Y-3.3059
X9.2177Y-3.2594
X9.2177Y-3.4079
X9.2185Y-3.3555
X9.2193Y-3.4606
X9.2457Y-3.6665
X9.2736Y-2.6795
X9.276Y-2.2059
X9.289Y-3.1469
X9.3665Y-2.7823
X9.3929Y-2.6441
X9.4224Y-2.7047
X9.4547Y-2.6571
X9.4846Y-2.7157
X9.515Y-2.6705
X9.5445Y-2.7039
X9.5724Y-2.6563
X9.5961Y-2.6283
X10.1193Y-2.5323
X10.1217Y-3.1799
X10.124Y-2.9528
X10.124Y-3.5748
X10.1264Y-2.7413
X10.1264Y-3.3614
T2
X5.4978Y-2.1
X5.5978Y-2.1
X5.6978Y-2.1
X5.7094Y-1.4697
X5.7732Y-4.5146
X5.7978Y-2.1
X5.8094Y-1.4697
X5.8705Y-3.9965
X5.8732Y-4.5146
X5.8978Y-2.1
X5.9094Y-1.4697
X5.9705Y-3.9965
X5.9732Y-4.5146
X5.9978Y-2.1
X6.0094Y-1.4697
X6.0705Y-3.9965
X6.0732Y-4.5146
X6.0978Y-2.1
X6.1094Y-1.4697
X6.1705Y-3.9965
X6.1732Y-4.5146
X6.1978Y-2.1
X6.2094Y-1.4697
X6.2705Y-3.9965
X6.2732Y-4.5146
X6.2978Y-2.1
X6.3094Y-1.4697
X6.3705Y-3.9965
X6.3732Y-4.5146
X6.3978Y-2.1
X6.4094Y-1.4697
X6.4705Y-3.9965
X6.4732Y-4.5146
X6.5094Y-1.4697
X6.5699Y-2.1012
X6.5705Y-3.9965
X6.5732Y-4.5146
X6.6094Y-1.4697
X6.6699Y-2.1012
X6.6732Y-4.5146
X6.7094Y-1.4697
X6.7657Y-3.9965
X6.7699Y-2.1012
X6.7732Y-4.5146
X6.8094Y-1.4697
X6.8657Y-3.9965
X6.8699Y-2.1012
X6.8732Y-4.5146
X6.9094Y-1.4697
X6.9657Y-3.9965
X6.9699Y-2.1012
X6.9732Y-4.5146
X7.0094Y-1.4697
X7.0657Y-3.9965
X7.0699Y-2.1012
X7.0732Y-4.5146
X7.1094Y-1.4697
X7.1657Y-3.9965
X7.1699Y-2.1012
X7.1732Y-4.5146
X7.2094Y-1.4697
X7.2657Y-3.9965
X7.2699Y-2.1012
X7.2732Y-4.5146
X7.3094Y-1.4697
X7.3657Y-3.9965
X7.3732Y-4.5146
X7.4094Y-1.4697
X7.4461Y-2.1031
X7.4657Y-3.9965
X7.4732Y-4.5146
X7.5094Y-1.4697
X7.5461Y-2.1031
X7.5732Y-4.5146
X7.6094Y-1.4697
X7.6461Y-2.1031
X7.6626Y-3.9965
X7.6732Y-4.5146
X7.7094Y-1.4697
X7.7461Y-2.1031
X7.7626Y-3.9965
X7.7732Y-4.5146
X7.8094Y-1.4697
X7.8461Y-2.1031
X7.8626Y-3.9965
X7.8732Y-4.5146
X7.9094Y-1.4697
X7.9461Y-2.1031
X7.9626Y-3.9965
X7.9732Y-4.5146
X8.0094Y-1.4697
X8.0461Y-2.1031
X8.0626Y-3.9965
X8.0732Y-4.5146
X8.1094Y-1.4697
X8.1461Y-2.1031
X8.1626Y-3.9965
X8.1732Y-4.5146
X8.2094Y-1.4697
X8.2626Y-3.9965
X8.2732Y-4.5146
X8.3626Y-3.9965
X8.4602Y-2.0937
X8.4602Y-2.1937
X8.4602Y-2.2937
X8.4602Y-2.3937
X8.4602Y-2.4937
X8.4602Y-2.5937
X8.4602Y-2.6937
X8.4602Y-2.7937
X8.4602Y-2.8937
X8.4602Y-2.9937
X8.4602Y-3.0937
X8.4602Y-3.1937
X8.4602Y-3.2937
X8.4602Y-3.3937
X8.4602Y-3.4937
X8.4602Y-3.5937
X8.4602Y-3.6937
X8.4602Y-3.7937
X8.5602Y-2.0937
X8.5602Y-2.1937
X8.5602Y-2.2937
X8.5602Y-2.3937
X8.5602Y-2.4937
X8.5602Y-2.5937
X8.5602Y-2.6937
X8.5602Y-2.7937
X8.5602Y-2.8937
X8.5602Y-2.9937
X8.5602Y-3.0937
X8.5602Y-3.1937
X8.5602Y-3.2937
X8.5602Y-3.3937
X8.5602Y-3.4937
X8.5602Y-3.5937
X8.5602Y-3.6937
X8.5602Y-3.7937
X9.8713Y-2.2047
X9.8713Y-2.3047
X9.8713Y-2.4047
X9.8713Y-2.5047
X9.8713Y-2.6047
X9.8713Y-2.7047
X9.8713Y-2.8047
X9.8713Y-2.9047
X9.8713Y-3.0047
X9.8713Y-3.1047
X9.8713Y-3.2047
X9.8713Y-3.3047
X9.8713Y-3.4047
X9.8713Y-3.5047
X9.8713Y-3.6047
X9.8713Y-3.7047
X9.8713Y-3.8047
X9.8713Y-3.9047
X9.9713Y-2.2047
X9.9713Y-2.3047
X9.9713Y-2.4047
X9.9713Y-2.5047
X9.9713Y-2.6047
X9.9713Y-2.7047
X9.9713Y-2.8047
X9.9713Y-2.9047
X9.9713Y-3.0047
X9.9713Y-3.1047
X9.9713Y-3.2047
X9.9713Y-3.3047
X9.9713Y-3.4047
X9.9713Y-3.5047
X9.9713Y-3.6047
X9.9713Y-3.7047
X9.9713Y-3.8047
X9.9713Y-3.9047
M30
